<?xml version="1.0" encoding="UTF-8"?>
<!DOCTYPE svg PUBLIC "-//W3C//DTD SVG 1.1//EN" "http://www.w3.org/Graphics/SVG/1.1/DTD/svg11.dtd">
<svg xmlns="http://www.w3.org/2000/svg" version="1.1" width="275px" height="183px" style="shape-rendering:geometricPrecision; text-rendering:geometricPrecision; image-rendering:optimizeQuality; fill-rule:evenodd; clip-rule:evenodd" xmlns:xlink="http://www.w3.org/1999/xlink">
<g><path style="opacity:1" fill="#1d1212" d="M 5.5,-0.5 C 27.5,-0.5 49.5,-0.5 71.5,-0.5C 71.6251,9.00063 71.6251,18.334 71.5,27.5C 59.4631,27.669 47.4631,28.3357 35.5,29.5C 35.7678,27.901 35.4345,26.5676 34.5,25.5C 33.6879,24.0069 32.3545,23.3402 30.5,23.5C 29.2739,23.5195 28.2739,23.8529 27.5,24.5C 26.1667,24.5 24.8333,24.5 23.5,24.5C 17.5,24.8333 11.5,25.1667 5.5,25.5C 3.5,25.5 1.5,25.5 -0.5,25.5C -0.5,24.5 -0.5,23.5 -0.5,22.5C 12.3775,22.2749 25.0441,21.2749 37.5,19.5C 39.256,18.4479 39.9227,16.7812 39.5,14.5C 28.8436,15.0995 18.1769,15.4328 7.5,15.5C 7.5,14.5 7.5,13.5 7.5,12.5C 16.3494,12.8264 25.0161,12.493 33.5,11.5C 34.7199,9.71626 34.7199,8.04959 33.5,6.5C 25.7587,5.93896 17.9253,6.60562 10,8.5C 6.55921,7.6178 3.05921,7.28446 -0.5,7.5C -0.5,6.5 -0.5,5.5 -0.5,4.5C 2.51838,4.66463 5.51838,4.49796 8.5,4C 9.33663,2.98873 9.66997,1.82207 9.5,0.5C 7.90097,0.767809 6.56764,0.434475 5.5,-0.5 Z"/></g>
<g><path style="opacity:1" fill="#362c29" d="M 255.5,-0.5 C 261.833,-0.5 268.167,-0.5 274.5,-0.5C 274.5,11.8333 274.5,24.1667 274.5,36.5C 268.167,36.5 261.833,36.5 255.5,36.5C 251.632,35.533 247.632,34.533 243.5,33.5C 238.183,34.0549 232.849,34.3883 227.5,34.5C 218.16,33.4974 208.827,32.4974 199.5,31.5C 199.5,28.8333 199.5,26.1667 199.5,23.5C 198.5,23.5 197.5,23.5 196.5,23.5C 195.833,34.1667 195.167,34.1667 194.5,23.5C 193.5,23.5 192.5,23.5 191.5,23.5C 191.5,20.8333 191.5,18.1667 191.5,15.5C 202.833,15.5 214.167,15.5 225.5,15.5C 225.5,18.1667 225.5,20.8333 225.5,23.5C 227.5,23.5 229.5,23.5 231.5,23.5C 231.5,20.8333 231.5,18.1667 231.5,15.5C 239.5,15.5 247.5,15.5 255.5,15.5C 255.5,10.1667 255.5,4.83333 255.5,-0.5 Z"/></g>
<g><path style="opacity:1" fill="#5b504c" d="M -0.5,-0.5 C 1.5,-0.5 3.5,-0.5 5.5,-0.5C 6.56764,0.434475 7.90097,0.767809 9.5,0.5C 9.66997,1.82207 9.33663,2.98873 8.5,4C 5.51838,4.49796 2.51838,4.66463 -0.5,4.5C -0.5,2.83333 -0.5,1.16667 -0.5,-0.5 Z"/></g>
<g><path style="opacity:1" fill="#584c4c" d="M 33.5,6.5 C 34.7199,8.04959 34.7199,9.71626 33.5,11.5C 27.5,11.5 21.5,11.5 15.5,11.5C 15.5,10.5 15.5,9.5 15.5,8.5C 21.4791,7.66932 27.4791,7.00266 33.5,6.5 Z"/></g>
<g><path style="opacity:1" fill="#2f2324" d="M 96.5,-0.5 C 100.5,-0.5 104.5,-0.5 108.5,-0.5C 108.5,-0.166667 108.5,0.166667 108.5,0.5C 107.5,0.5 106.5,0.5 105.5,0.5C 105.5,2.16667 105.5,3.83333 105.5,5.5C 110.37,5.31041 115.036,4.64374 119.5,3.5C 121.492,3.32846 123.158,3.99512 124.5,5.5C 125.466,3.60395 125.799,1.60395 125.5,-0.5C 136.167,-0.5 146.833,-0.5 157.5,-0.5C 157.414,0.495904 157.748,1.32924 158.5,2C 154.815,3.60749 151.148,4.27416 147.5,4C 149.595,4.55563 149.762,5.05563 148,5.5C 146.632,4.29737 145.132,3.29737 143.5,2.5C 138.694,4.33738 134.027,4.67072 129.5,3.5C 129.323,4.94721 128.323,6.28054 126.5,7.5C 123.375,8.47944 120.042,8.81277 116.5,8.5C 116.5,10.1667 116.5,11.8333 116.5,13.5C 118.582,13.528 120.416,12.8613 122,11.5C 124.719,12.4438 127.552,12.7771 130.5,12.5C 132.735,12.7947 134.735,12.4614 136.5,11.5C 138.5,11.5 140.5,11.5 142.5,11.5C 142.5,10.1667 142.5,8.83333 142.5,7.5C 143.5,7.5 144.5,7.5 145.5,7.5C 145.232,9.09903 145.566,10.4324 146.5,11.5C 147.167,11.5 147.833,11.5 148.5,11.5C 149.458,12.9616 150.624,14.2949 152,15.5C 152.788,21.2195 152.621,26.8862 151.5,32.5C 153.5,33.5 155.5,34.5 157.5,35.5C 153.698,36.3483 149.865,37.015 146,37.5C 144.624,37.6842 143.791,38.3509 143.5,39.5C 142.504,39.5858 141.671,39.2524 141,38.5C 140.503,36.1902 140.337,33.8568 140.5,31.5C 139.209,31.2627 138.209,31.596 137.5,32.5C 137.5,32.8333 137.5,33.1667 137.5,33.5C 136.549,34.9187 136.216,36.5853 136.5,38.5C 135.5,38.5 134.5,38.5 133.5,38.5C 133.5,37.1667 133.5,35.8333 133.5,34.5C 129.571,33.1767 125.571,32.1767 121.5,31.5C 121.833,31.5 122.167,31.5 122.5,31.5C 124.167,31.5 125.833,31.5 127.5,31.5C 128.833,31.5 130.167,31.5 131.5,31.5C 132.167,31.5 132.833,31.5 133.5,31.5C 134.777,30.3064 135.444,28.6397 135.5,26.5C 136.308,20.8411 134.141,19.1744 129,21.5C 128.817,24.3647 128.317,27.0314 127.5,29.5C 127.5,27.8333 127.5,26.1667 127.5,24.5C 125.139,24.6741 122.806,25.0074 120.5,25.5C 120.918,24.7784 121.584,24.2784 122.5,24C 118.179,23.501 113.846,23.3343 109.5,23.5C 112.35,18.9727 111.017,16.3061 105.5,15.5C 105.5,18.1667 105.5,20.8333 105.5,23.5C 104.573,28.7578 103.906,34.0912 103.5,39.5C 101.167,39.5 98.8333,39.5 96.5,39.5C 96.5628,34.7971 96.2295,30.1304 95.5,25.5C 97.5,25.5 99.5,25.5 101.5,25.5C 101.5,24.1667 101.5,22.8333 101.5,21.5C 99.5,21.5 97.5,21.5 95.5,21.5C 96.3498,14.2015 96.6831,6.86815 96.5,-0.5 Z"/></g>
<g><path style="opacity:1" fill="#767272" d="M 128.5,7.5 C 130.5,7.5 132.5,7.5 134.5,7.5C 134.157,9.48324 134.824,10.8166 136.5,11.5C 134.735,12.4614 132.735,12.7947 130.5,12.5C 131.635,11.5255 132.635,10.3588 133.5,9C 131.618,8.80192 129.952,8.30192 128.5,7.5 Z"/></g>
<g><path style="opacity:1" fill="#bfbcbd" d="M 126.5,7.5 C 127.167,7.5 127.833,7.5 128.5,7.5C 129.952,8.30192 131.618,8.80192 133.5,9C 132.635,10.3588 131.635,11.5255 130.5,12.5C 127.552,12.7771 124.719,12.4438 122,11.5C 120.416,12.8613 118.582,13.528 116.5,13.5C 116.5,11.8333 116.5,10.1667 116.5,8.5C 120.042,8.81277 123.375,8.47944 126.5,7.5 Z"/></g>
<g><path style="opacity:1" fill="#b1aead" d="M 134.5,7.5 C 136.766,7.14118 138.599,7.80784 140,9.5C 140.417,8.24402 141.25,7.57735 142.5,7.5C 142.5,8.83333 142.5,10.1667 142.5,11.5C 140.5,11.5 138.5,11.5 136.5,11.5C 134.824,10.8166 134.157,9.48324 134.5,7.5 Z"/></g>
<g><path style="opacity:1" fill="#b8b1b3" d="M 108.5,0.5 C 113.267,0.190759 117.934,0.690759 122.5,2C 121.263,2.23209 120.263,2.73209 119.5,3.5C 115.036,4.64374 110.37,5.31041 105.5,5.5C 105.5,3.83333 105.5,2.16667 105.5,0.5C 106.5,0.5 107.5,0.5 108.5,0.5 Z"/></g>
<g><path style="opacity:1" fill="#806578" d="M 108.5,0.5 C 108.5,0.166667 108.5,-0.166667 108.5,-0.5C 114.167,-0.5 119.833,-0.5 125.5,-0.5C 125.799,1.60395 125.466,3.60395 124.5,5.5C 123.158,3.99512 121.492,3.32846 119.5,3.5C 120.263,2.73209 121.263,2.23209 122.5,2C 117.934,0.690759 113.267,0.190759 108.5,0.5 Z"/></g>
<g><path style="opacity:1" fill="#352b2c" d="M 157.5,-0.5 C 190.167,-0.5 222.833,-0.5 255.5,-0.5C 255.5,4.83333 255.5,10.1667 255.5,15.5C 247.5,15.5 239.5,15.5 231.5,15.5C 231.5,18.1667 231.5,20.8333 231.5,23.5C 229.5,23.5 227.5,23.5 225.5,23.5C 225.5,20.8333 225.5,18.1667 225.5,15.5C 214.167,15.5 202.833,15.5 191.5,15.5C 191.5,18.1667 191.5,20.8333 191.5,23.5C 192.5,23.5 193.5,23.5 194.5,23.5C 195.167,34.1667 195.833,34.1667 196.5,23.5C 197.5,23.5 198.5,23.5 199.5,23.5C 199.5,26.1667 199.5,28.8333 199.5,31.5C 208.827,32.4974 218.16,33.4974 227.5,34.5C 232.849,34.3883 238.183,34.0549 243.5,33.5C 247.632,34.533 251.632,35.533 255.5,36.5C 237.493,37.0009 219.493,37.6675 201.5,38.5C 193.924,38.492 186.424,38.1587 179,37.5C 178.658,39.6192 177.825,39.9526 176.5,38.5C 175.167,38.5 173.833,38.5 172.5,38.5C 162.916,39.4732 153.25,39.8065 143.5,39.5C 143.791,38.3509 144.624,37.6842 146,37.5C 149.865,37.015 153.698,36.3483 157.5,35.5C 155.5,34.5 153.5,33.5 151.5,32.5C 152.621,26.8862 152.788,21.2195 152,15.5C 150.624,14.2949 149.458,12.9616 148.5,11.5C 151.369,11.4556 154.202,10.4556 157,8.5C 159.717,11.3207 162.05,10.9874 164,7.5C 164.667,10.1667 165.333,10.1667 166,7.5C 168.041,8.75218 170.375,9.41885 173,9.5C 175.167,9.33333 177.333,9.16667 179.5,9C 178.289,8.10723 178.289,7.2739 179.5,6.5C 180.141,7.99346 181.141,8.99346 182.5,9.5C 183.5,9.5 184.5,9.5 185.5,9.5C 185.785,7.71199 185.452,6.04533 184.5,4.5C 183.473,3.20859 182.473,3.20859 181.5,4.5C 178.531,5.82496 175.531,5.82496 172.5,4.5C 169.493,6.37198 165.993,6.70531 162,5.5C 157.539,6.24707 153.039,6.74707 148.5,7C 146.893,8.04899 146.227,9.54899 146.5,11.5C 145.566,10.4324 145.232,9.09903 145.5,7.5C 144.5,7.5 143.5,7.5 142.5,7.5C 141.25,7.57735 140.417,8.24402 140,9.5C 138.599,7.80784 136.766,7.14118 134.5,7.5C 132.5,7.5 130.5,7.5 128.5,7.5C 127.833,7.5 127.167,7.5 126.5,7.5C 128.323,6.28054 129.323,4.94721 129.5,3.5C 134.027,4.67072 138.694,4.33738 143.5,2.5C 145.132,3.29737 146.632,4.29737 148,5.5C 149.762,5.05563 149.595,4.55563 147.5,4C 151.148,4.27416 154.815,3.60749 158.5,2C 157.748,1.32924 157.414,0.495904 157.5,-0.5 Z"/></g>
<g><path style="opacity:1" fill="#c2c0bd" d="M 181.5,4.5 C 181.434,6.08304 181.767,7.7497 182.5,9.5C 181.141,8.99346 180.141,7.99346 179.5,6.5C 178.289,7.2739 178.289,8.10723 179.5,9C 177.333,9.16667 175.167,9.33333 173,9.5C 170.375,9.41885 168.041,8.75218 166,7.5C 165.333,10.1667 164.667,10.1667 164,7.5C 162.05,10.9874 159.717,11.3207 157,8.5C 154.202,10.4556 151.369,11.4556 148.5,11.5C 147.833,11.5 147.167,11.5 146.5,11.5C 146.227,9.54899 146.893,8.04899 148.5,7C 153.039,6.74707 157.539,6.24707 162,5.5C 165.993,6.70531 169.493,6.37198 172.5,4.5C 175.531,5.82496 178.531,5.82496 181.5,4.5 Z"/></g>
<g><path style="opacity:1" fill="#766e6f" d="M 182.5,9.5 C 181.767,7.7497 181.434,6.08304 181.5,4.5C 182.473,3.20859 183.473,3.20859 184.5,4.5C 185.452,6.04533 185.785,7.71199 185.5,9.5C 184.5,9.5 183.5,9.5 182.5,9.5 Z"/></g>
<g><path style="opacity:1" fill="#443938" d="M 33.5,6.5 C 27.4791,7.00266 21.4791,7.66932 15.5,8.5C 15.5,9.5 15.5,10.5 15.5,11.5C 21.5,11.5 27.5,11.5 33.5,11.5C 25.0161,12.493 16.3494,12.8264 7.5,12.5C 7.5,13.5 7.5,14.5 7.5,15.5C 18.1769,15.4328 28.8436,15.0995 39.5,14.5C 39.9227,16.7812 39.256,18.4479 37.5,19.5C 25.0441,21.2749 12.3775,22.2749 -0.5,22.5C -0.5,22.1667 -0.5,21.8333 -0.5,21.5C 3.72223,21.9219 7.72223,21.2552 11.5,19.5C 8.00099,16.8627 4.00099,15.8627 -0.5,16.5C -0.5,13.5 -0.5,10.5 -0.5,7.5C 3.05921,7.28446 6.55921,7.6178 10,8.5C 17.9253,6.60562 25.7587,5.93896 33.5,6.5 Z"/></g>
<g><path style="opacity:1" fill="#645a59" d="M 37.5,19.5 C 32.8333,19.5 28.1667,19.5 23.5,19.5C 23.5,18.5 23.5,17.5 23.5,16.5C 27.2017,16.579 30.8683,16.2457 34.5,15.5C 37.5747,15.704 38.5747,17.0373 37.5,19.5 Z"/></g>
<g><path style="opacity:1" fill="#635958" d="M -0.5,16.5 C 4.00099,15.8627 8.00099,16.8627 11.5,19.5C 7.72223,21.2552 3.72223,21.9219 -0.5,21.5C -0.5,19.8333 -0.5,18.1667 -0.5,16.5 Z"/></g>
<g><path style="opacity:1" fill="#58254a" d="M 109.5,23.5 C 108.167,23.5 106.833,23.5 105.5,23.5C 105.5,20.8333 105.5,18.1667 105.5,15.5C 111.017,16.3061 112.35,18.9727 109.5,23.5 Z"/></g>
<g><path style="opacity:1" fill="#3a1d2f" d="M 133.5,31.5 C 132.833,22.1667 132.167,22.1667 131.5,31.5C 130.167,31.5 128.833,31.5 127.5,31.5C 127.5,30.8333 127.5,30.1667 127.5,29.5C 128.317,27.0314 128.817,24.3647 129,21.5C 134.141,19.1744 136.308,20.8411 135.5,26.5C 135.444,28.6397 134.777,30.3064 133.5,31.5 Z"/></g>
<g><path style="opacity:1" fill="#925a8c" d="M 133.5,31.5 C 132.833,31.5 132.167,31.5 131.5,31.5C 132.167,22.1667 132.833,22.1667 133.5,31.5 Z"/></g>
<g><path style="opacity:1" fill="#7ab5dc" d="M 120.5,26.5 C 121.338,26.8417 121.672,27.5084 121.5,28.5C 116.26,29.4491 110.927,29.7825 105.5,29.5C 105.5,28.5 105.5,27.5 105.5,26.5C 110.5,26.5 115.5,26.5 120.5,26.5 Z"/></g>
<g><path style="opacity:1" fill="#915195" d="M 127.5,29.5 C 127.5,30.1667 127.5,30.8333 127.5,31.5C 125.833,31.5 124.167,31.5 122.5,31.5C 122.737,30.209 122.404,29.209 121.5,28.5C 121.672,27.5084 121.338,26.8417 120.5,26.5C 120.5,26.1667 120.5,25.8333 120.5,25.5C 122.806,25.0074 125.139,24.6741 127.5,24.5C 127.5,26.1667 127.5,27.8333 127.5,29.5 Z"/></g>
<g><path style="opacity:1" fill="#4f4947" d="M -0.5,25.5 C 1.5,25.5 3.5,25.5 5.5,25.5C 6.71957,27.2821 7.38623,29.2821 7.5,31.5C 13.1764,31.3339 18.8431,31.5006 24.5,32C 27.4017,34.8642 27.0684,37.0308 23.5,38.5C 24.3007,36.9582 24.634,35.2915 24.5,33.5C 16.1381,33.3348 7.80479,33.6682 -0.5,34.5C -0.5,31.5 -0.5,28.5 -0.5,25.5 Z"/></g>
<g><path style="opacity:1" fill="#483e3c" d="M 70.5,37.5 C 58.4954,37.6665 46.4954,37.4999 34.5,37C 35.3081,36.6924 35.9747,36.1924 36.5,35.5C 35.2713,34.7189 33.938,34.2189 32.5,34C 37.4735,32.427 42.4735,31.2603 47.5,30.5C 55.4827,29.8345 63.4827,29.5012 71.5,29.5C 71.8064,32.3854 71.4731,35.0521 70.5,37.5 Z"/></g>
<g><path style="opacity:1" fill="#78726f" d="M 23.5,38.5 C 16.6787,39.3285 9.6787,39.8285 2.5,40C 1.04723,41.6487 0.0472313,43.4821 -0.5,45.5C -0.5,41.8333 -0.5,38.1667 -0.5,34.5C 7.80479,33.6682 16.1381,33.3348 24.5,33.5C 24.634,35.2915 24.3007,36.9582 23.5,38.5 Z"/></g>
<g><path style="opacity:1" fill="#3a2f2d" d="M 27.5,24.5 C 28.2739,23.8529 29.2739,23.5195 30.5,23.5C 32.3545,23.3402 33.6879,24.0069 34.5,25.5C 34.5,27.1667 34.5,28.8333 34.5,30.5C 38.8333,30.5 43.1667,30.5 47.5,30.5C 42.4735,31.2603 37.4735,32.427 32.5,34C 33.938,34.2189 35.2713,34.7189 36.5,35.5C 35.9747,36.1924 35.3081,36.6924 34.5,37C 46.4954,37.4999 58.4954,37.6665 70.5,37.5C 70.1667,38.1667 69.8333,38.8333 69.5,39.5C 47.8529,40.4319 26.1862,40.7652 4.5,40.5C 4.5,41.8333 4.5,43.1667 4.5,44.5C 3.06967,45.5375 1.40301,46.2041 -0.5,46.5C -0.5,46.1667 -0.5,45.8333 -0.5,45.5C 0.0472313,43.4821 1.04723,41.6487 2.5,40C 9.6787,39.8285 16.6787,39.3285 23.5,38.5C 27.0684,37.0308 27.4017,34.8642 24.5,32C 18.8431,31.5006 13.1764,31.3339 7.5,31.5C 7.38623,29.2821 6.71957,27.2821 5.5,25.5C 11.5,25.1667 17.5,24.8333 23.5,24.5C 19.6836,25.4824 15.6836,26.1491 11.5,26.5C 11.5,27.5 11.5,28.5 11.5,29.5C 18.1661,30.6325 24.8328,30.4658 31.5,29C 33.158,28.2747 33.658,27.108 33,25.5C 31.3005,24.5939 29.4672,24.2606 27.5,24.5 Z"/></g>
<g><path style="opacity:1" fill="#564c4b" d="M 23.5,24.5 C 24.8333,24.5 26.1667,24.5 27.5,24.5C 29.4672,24.2606 31.3005,24.5939 33,25.5C 33.658,27.108 33.158,28.2747 31.5,29C 24.8328,30.4658 18.1661,30.6325 11.5,29.5C 11.5,28.5 11.5,27.5 11.5,26.5C 15.6836,26.1491 19.6836,25.4824 23.5,24.5 Z"/></g>
<g><path style="opacity:1" fill="#cf679b" d="M 133.5,34.5 C 133.5,35.8333 133.5,37.1667 133.5,38.5C 130.5,38.5 127.5,38.5 124.5,38.5C 121.794,38.4249 119.127,38.0916 116.5,37.5C 116.5,36.5 116.5,35.5 116.5,34.5C 122.167,34.5 127.833,34.5 133.5,34.5 Z"/></g>
<g><path style="opacity:1" fill="#979290" d="M 5.5,34.5 C 11.1667,34.5 16.8333,34.5 22.5,34.5C 22.5,35.5 22.5,36.5 22.5,37.5C 16.4908,37.6662 10.4908,37.4995 4.5,37C 5.25244,36.3292 5.58577,35.4959 5.5,34.5 Z"/></g>
<g><path style="opacity:1" fill="#482437" d="M 121.5,31.5 C 125.571,32.1767 129.571,33.1767 133.5,34.5C 127.833,34.5 122.167,34.5 116.5,34.5C 116.5,35.5 116.5,36.5 116.5,37.5C 119.127,38.0916 121.794,38.4249 124.5,38.5C 122.052,39.4731 119.385,39.8064 116.5,39.5C 115.504,39.5858 114.671,39.2524 114,38.5C 112.632,40.8146 111.799,40.8146 111.5,38.5C 112.669,36.5801 113.669,34.5801 114.5,32.5C 116.743,31.5258 119.076,31.1924 121.5,31.5 Z"/></g>
<g><path style="opacity:1" fill="#4d4951" d="M 255.5,36.5 C 261.833,36.5 268.167,36.5 274.5,36.5C 274.5,40.1667 274.5,43.8333 274.5,47.5C 250.994,47.1691 227.661,47.5025 204.5,48.5C 204.5,48.8333 204.5,49.1667 204.5,49.5C 202.5,49.5 200.5,49.5 198.5,49.5C 191.576,47.5367 184.243,46.8701 176.5,47.5C 176.5,44.5 176.5,41.5 176.5,38.5C 177.825,39.9526 178.658,39.6192 179,37.5C 186.424,38.1587 193.924,38.492 201.5,38.5C 219.493,37.6675 237.493,37.0009 255.5,36.5 Z"/></g>
<g><path style="opacity:1" fill="#201616" d="M 69.5,39.5 C 70.5,39.5 71.5,39.5 72.5,39.5C 72.2664,60.8396 72.0997,82.1729 72,103.5C 73.049,101.893 74.549,101.227 76.5,101.5C 76.5,100.167 76.5,98.8333 76.5,97.5C 75.1779,97.33 74.0113,97.6634 73,98.5C 72.5172,97.552 72.3505,96.552 72.5,95.5C 74.8863,95.2587 76.8863,95.9254 78.5,97.5C 78.5,98.8333 78.5,100.167 78.5,101.5C 76.5654,102.81 74.5654,104.143 72.5,105.5C 71.5713,106.689 71.238,108.022 71.5,109.5C 73.143,109.48 74.4763,110.147 75.5,111.5C 76.3142,109.234 76.8142,106.9 77,104.5C 77.8184,107.227 77.6517,109.894 76.5,112.5C 74.8366,113.875 73.5032,113.542 72.5,111.5C 72.1667,112.5 71.8333,113.5 71.5,114.5C 71.9263,122.873 72.093,131.206 72,139.5C 73.3509,138.039 74.8509,136.706 76.5,135.5C 76.8333,135.833 77.1667,136.167 77.5,136.5C 76.2485,137.631 75.2485,138.964 74.5,140.5C 75.6579,144.004 74.8245,144.338 72,141.5C 71.3333,144.833 71.3333,148.167 72,151.5C 72.3333,150.167 72.6667,148.833 73,147.5C 73.2784,148.416 73.7784,149.082 74.5,149.5C 74.6107,150.117 74.944,150.617 75.5,151C 74.3333,151.5 73.5,152.333 73,153.5C 71.9823,152.294 71.4823,152.627 71.5,154.5C 72.1667,155.833 72.8333,157.167 73.5,158.5C 72.0764,160.745 71.4098,163.245 71.5,166C 72.7351,169.853 72.7351,173.686 71.5,177.5C 66.1667,177.833 60.8333,178.167 55.5,178.5C 55.5,179.833 55.5,181.167 55.5,182.5C 43.1667,182.5 30.8333,182.5 18.5,182.5C 18.5,182.167 18.5,181.833 18.5,181.5C 19.3764,181.631 20.0431,181.298 20.5,180.5C 21.0149,178.775 21.6816,177.108 22.5,175.5C 23.2175,172.729 23.5508,170.063 23.5,167.5C 24.9705,168.381 25.8038,169.714 26,171.5C 26.7247,172.059 27.5581,172.392 28.5,172.5C 32.0636,172.541 35.7303,172.208 39.5,171.5C 41.482,170.784 43.1487,169.617 44.5,168C 43.552,167.517 42.552,167.351 41.5,167.5C 41.8134,164.753 41.48,162.086 40.5,159.5C 39.5159,162.428 39.1826,165.428 39.5,168.5C 36.8127,168.664 34.146,168.497 31.5,168C 33.1341,167.506 34.8008,167.34 36.5,167.5C 36.5,159.5 36.5,151.5 36.5,143.5C 38.1667,143.5 39.8333,143.5 41.5,143.5C 41.5,140.833 41.5,138.167 41.5,135.5C 39.8333,135.5 38.1667,135.5 36.5,135.5C 36.5,116.833 36.5,98.1667 36.5,79.5C 37.5,79.5 38.5,79.5 39.5,79.5C 40.1667,74.1667 40.8333,68.8333 41.5,63.5C 43.5,63.5 45.5,63.5 47.5,63.5C 47.5,60.8333 47.5,58.1667 47.5,55.5C 49.1667,55.5 50.8333,55.5 52.5,55.5C 52.5,52.8333 52.5,50.1667 52.5,47.5C 50.8008,47.6602 49.1341,47.4935 47.5,47C 58.1466,45.8423 58.1466,45.009 47.5,44.5C 47.5,43.5 47.5,42.5 47.5,41.5C 33.5,41.5 19.5,41.5 5.5,41.5C 5.73731,42.791 5.40397,43.791 4.5,44.5C 4.5,43.1667 4.5,41.8333 4.5,40.5C 26.1862,40.7652 47.8529,40.4319 69.5,39.5 Z"/></g>
<g><path style="opacity:1" fill="#769ea6" d="M 137.5,32.5 C 138.376,32.3691 139.043,32.7025 139.5,33.5C 138.58,35.7857 138.58,38.1191 139.5,40.5C 136.302,39.9644 133.635,40.631 131.5,42.5C 131.167,42.5 130.833,42.5 130.5,42.5C 130.5,41.5 130.5,40.5 130.5,39.5C 132.833,39.5 135.167,39.5 137.5,39.5C 137.5,37.5 137.5,35.5 137.5,33.5C 137.5,33.1667 137.5,32.8333 137.5,32.5 Z"/></g>
<g><path style="opacity:1" fill="#48404c" d="M 137.5,32.5 C 138.209,31.596 139.209,31.2627 140.5,31.5C 140.337,33.8568 140.503,36.1902 141,38.5C 141.671,39.2524 142.504,39.5858 143.5,39.5C 153.25,39.8065 162.916,39.4732 172.5,38.5C 172.737,39.791 172.404,40.791 171.5,41.5C 171.167,41.5 170.833,41.5 170.5,41.5C 162.125,41.2596 153.792,41.5929 145.5,42.5C 140.833,42.5 136.167,42.5 131.5,42.5C 133.635,40.631 136.302,39.9644 139.5,40.5C 138.58,38.1191 138.58,35.7857 139.5,33.5C 139.043,32.7025 138.376,32.3691 137.5,32.5 Z"/></g>
<g><path style="opacity:1" fill="#1a100f" d="M 18.5,181.5 C 19.1098,180.609 19.4431,179.609 19.5,178.5C 20.6129,177.054 20.7796,175.387 20,173.5C 17.3281,172.718 14.8281,171.718 12.5,170.5C 13.9468,169.866 14.6134,168.699 14.5,167C 14.0665,165.072 13.3998,163.239 12.5,161.5C 14.2889,158.752 13.6222,157.085 10.5,156.5C 7.00187,155.083 3.3352,154.417 -0.5,154.5C -0.5,153.5 -0.5,152.5 -0.5,151.5C 3.44602,152.527 7.44602,152.694 11.5,152C 12.8009,150.384 12.8009,148.884 11.5,147.5C 10.0243,145.77 10.3576,144.437 12.5,143.5C 13.4742,141.257 13.8076,138.924 13.5,136.5C 11.5328,136.739 9.69946,136.406 8,135.5C 8.5844,133.3 8.41773,131.133 7.5,129C 4.93731,127.921 2.27065,127.421 -0.5,127.5C -0.5,126.833 -0.5,126.167 -0.5,125.5C 3.48957,126.19 7.48957,126.357 11.5,126C 12.4061,124.301 12.7394,122.467 12.5,120.5C 10.139,120.326 7.80562,119.993 5.5,119.5C 5.38929,118.883 5.05596,118.383 4.5,118C 8.48617,117.501 12.4862,117.334 16.5,117.5C 16.7564,115.208 16.4231,113.041 15.5,111C 10.1771,110.501 4.84372,110.334 -0.5,110.5C -0.5,106.833 -0.5,103.167 -0.5,99.5C 3.18174,99.6653 6.84841,99.4986 10.5,99C 12.0779,96.6612 11.7446,94.8278 9.5,93.5C 11.597,91.5176 14.2637,90.5176 17.5,90.5C 17.4921,87.4552 17.1587,84.4552 16.5,81.5C 16.5,76.8333 16.5,72.1667 16.5,67.5C 10.9252,66.5476 5.25858,66.2143 -0.5,66.5C -0.5,65.5 -0.5,64.5 -0.5,63.5C 3.51383,63.6655 7.51383,63.4988 11.5,63C 13.1554,61.5557 13.822,59.7224 13.5,57.5C 8.83333,57.5 4.16667,57.5 -0.5,57.5C -0.5,56.5 -0.5,55.5 -0.5,54.5C 3.51383,54.6655 7.51383,54.4988 11.5,54C 13.6576,52.6883 13.9909,51.0217 12.5,49C 8.17944,48.501 3.84611,48.3343 -0.5,48.5C -0.5,47.8333 -0.5,47.1667 -0.5,46.5C 1.40301,46.2041 3.06967,45.5375 4.5,44.5C 5.40397,43.791 5.73731,42.791 5.5,41.5C 19.5,41.5 33.5,41.5 47.5,41.5C 47.5,42.5 47.5,43.5 47.5,44.5C 58.1466,45.009 58.1466,45.8423 47.5,47C 49.1341,47.4935 50.8008,47.6602 52.5,47.5C 52.5,50.1667 52.5,52.8333 52.5,55.5C 50.8333,55.5 49.1667,55.5 47.5,55.5C 47.5,58.1667 47.5,60.8333 47.5,63.5C 45.5,63.5 43.5,63.5 41.5,63.5C 40.8333,68.8333 40.1667,74.1667 39.5,79.5C 38.5,79.5 37.5,79.5 36.5,79.5C 36.5,98.1667 36.5,116.833 36.5,135.5C 38.1667,135.5 39.8333,135.5 41.5,135.5C 41.5,138.167 41.5,140.833 41.5,143.5C 39.8333,143.5 38.1667,143.5 36.5,143.5C 36.5,151.5 36.5,159.5 36.5,167.5C 34.8008,167.34 33.1341,167.506 31.5,168C 34.146,168.497 36.8127,168.664 39.5,168.5C 39.1826,165.428 39.5159,162.428 40.5,159.5C 41.48,162.086 41.8134,164.753 41.5,167.5C 42.552,167.351 43.552,167.517 44.5,168C 43.1487,169.617 41.482,170.784 39.5,171.5C 35.7303,172.208 32.0636,172.541 28.5,172.5C 27.5581,172.392 26.7247,172.059 26,171.5C 25.8038,169.714 24.9705,168.381 23.5,167.5C 23.5508,170.063 23.2175,172.729 22.5,175.5C 21.6816,177.108 21.0149,178.775 20.5,180.5C 20.0431,181.298 19.3764,181.631 18.5,181.5 Z"/></g>
<g><path style="opacity:1" fill="#d285b5" d="M 130.5,42.5 C 130.833,42.5 131.167,42.5 131.5,42.5C 136.167,42.5 140.833,42.5 145.5,42.5C 145.029,43.9008 144.362,45.2342 143.5,46.5C 142.808,45.9747 142.308,45.3081 142,44.5C 140.33,46.6983 138.33,47.0317 136,45.5C 134.378,46.0989 132.878,46.7656 131.5,47.5C 130.549,46.0813 130.216,44.4147 130.5,42.5 Z"/></g>
<g><path style="opacity:1" fill="#cc8ab1" d="M 170.5,41.5 C 170.833,41.5 171.167,41.5 171.5,41.5C 171.5,42.1667 171.5,42.8333 171.5,43.5C 171.423,44.7498 170.756,45.5831 169.5,46C 165.452,46.3042 161.452,46.8042 157.5,47.5C 156.132,46.6937 154.799,45.6937 153.5,44.5C 151.492,46.7617 151.159,46.2617 152.5,43C 158.681,42.8276 164.681,42.3276 170.5,41.5 Z"/></g>
<g><path style="opacity:1" fill="#92a899" d="M 172.5,38.5 C 173.833,38.5 175.167,38.5 176.5,38.5C 176.5,41.5 176.5,44.5 176.5,47.5C 176.5,47.8333 176.5,48.1667 176.5,48.5C 174.517,48.8432 173.183,48.1765 172.5,46.5C 172.737,45.209 172.404,44.209 171.5,43.5C 171.5,42.8333 171.5,42.1667 171.5,41.5C 172.404,40.791 172.737,39.791 172.5,38.5 Z"/></g>
<g><path style="opacity:1" fill="#774a6d" d="M 170.5,41.5 C 164.681,42.3276 158.681,42.8276 152.5,43C 151.159,46.2617 151.492,46.7617 153.5,44.5C 154.799,45.6937 156.132,46.6937 157.5,47.5C 153.833,47.5 150.167,47.5 146.5,47.5C 144.5,47.5 142.5,47.5 140.5,47.5C 137.5,47.5 134.5,47.5 131.5,47.5C 132.878,46.7656 134.378,46.0989 136,45.5C 138.33,47.0317 140.33,46.6983 142,44.5C 142.308,45.3081 142.808,45.9747 143.5,46.5C 144.362,45.2342 145.029,43.9008 145.5,42.5C 153.792,41.5929 162.125,41.2596 170.5,41.5 Z"/></g>
<g><path style="opacity:1" fill="#362d2a" d="M 204.5,48.5 C 227.661,47.5025 250.994,47.1691 274.5,47.5C 274.5,54.5 274.5,61.5 274.5,68.5C 270.167,69.8333 265.833,69.8333 261.5,68.5C 256.13,68.6079 250.797,68.2745 245.5,67.5C 245.5,68.5 245.5,69.5 245.5,70.5C 246.5,70.5 247.5,70.5 248.5,70.5C 248.5,72.1667 248.5,73.8333 248.5,75.5C 245.138,75.0695 242.305,76.0695 240,78.5C 236.27,77.5399 232.437,77.2065 228.5,77.5C 226.278,77.178 224.444,77.8446 223,79.5C 219.839,78.7926 216.672,78.1259 213.5,77.5C 211.169,76.6827 208.669,76.0161 206,75.5C 200.206,76.6013 194.373,76.7679 188.5,76C 192.046,74.8263 195.713,74.1596 199.5,74C 200.056,73.6174 200.389,73.1174 200.5,72.5C 201.338,72.1583 201.672,71.4916 201.5,70.5C 202.5,70.5 203.5,70.5 204.5,70.5C 204.5,71.5 204.5,72.5 204.5,73.5C 207.5,73.5 210.5,73.5 213.5,73.5C 215.947,73.385 217.947,72.385 219.5,70.5C 219.22,73.3882 220.553,74.8882 223.5,75C 228.759,75.8077 233.759,75.3077 238.5,73.5C 238.833,73.5 239.167,73.5 239.5,73.5C 240.5,73.5 241.5,73.5 242.5,73.5C 242.5,72.5 242.5,71.5 242.5,70.5C 241.5,70.5 240.5,70.5 239.5,70.5C 239.5,69.8333 239.167,69.5 238.5,69.5C 235.264,68.1347 231.931,67.1347 228.5,66.5C 230.833,66.5 233.167,66.5 235.5,66.5C 235.5,65.5 235.5,64.5 235.5,63.5C 236.167,63.5 236.833,63.5 237.5,63.5C 239.344,62.7961 239.844,61.4628 239,59.5C 237.644,58.6198 236.144,58.2865 234.5,58.5C 229.787,59.709 225.121,59.709 220.5,58.5C 219.833,58.5 219.167,58.5 218.5,58.5C 213.821,58.6658 209.155,58.4992 204.5,58C 204.167,57.6667 203.833,57.3333 203.5,57C 204.381,56.2917 205.047,55.4584 205.5,54.5C 207.048,54.1788 207.715,53.1788 207.5,51.5C 212.959,51.8967 218.292,51.3967 223.5,50C 217.243,48.6827 210.909,48.1827 204.5,48.5 Z"/></g>
<g><path style="opacity:1" fill="#77b5ab" d="M 130.5,39.5 C 130.5,40.5 130.5,41.5 130.5,42.5C 130.216,44.4147 130.549,46.0813 131.5,47.5C 131.38,48.5862 130.713,49.2528 129.5,49.5C 128.833,49.1667 128.167,48.8333 127.5,48.5C 126.626,46.2534 126.292,43.9201 126.5,41.5C 127.183,39.8235 128.517,39.1568 130.5,39.5 Z"/></g>
<g><path style="opacity:1" fill="#433d49" d="M 171.5,43.5 C 172.404,44.209 172.737,45.209 172.5,46.5C 169.361,46.9531 166.694,48.2864 164.5,50.5C 163.148,49.1038 161.481,48.4371 159.5,48.5C 155.524,49.4424 151.524,49.6091 147.5,49C 146.944,48.6174 146.611,48.1174 146.5,47.5C 150.167,47.5 153.833,47.5 157.5,47.5C 161.452,46.8042 165.452,46.3042 169.5,46C 170.756,45.5831 171.423,44.7498 171.5,43.5 Z"/></g>
<g><path style="opacity:1" fill="#5d7a76" d="M 194.5,53.5 C 193.082,51.6921 191.082,51.0254 188.5,51.5C 187.5,51.5 186.5,51.5 185.5,51.5C 185.47,50.5028 185.97,49.8361 187,49.5C 190.81,49.849 194.31,51.0156 197.5,53C 196.552,53.4828 195.552,53.6495 194.5,53.5 Z"/></g>
<g><path style="opacity:1" fill="#574e4f" d="M -0.5,48.5 C 3.84611,48.3343 8.17944,48.501 12.5,49C 13.9909,51.0217 13.6576,52.6883 11.5,54C 7.51383,54.4988 3.51383,54.6655 -0.5,54.5C -0.5,52.5 -0.5,50.5 -0.5,48.5 Z"/></g>
<g><path style="opacity:1" fill="#938371" d="M 181.5,51.5 C 181.833,51.5 182.167,51.5 182.5,51.5C 183.5,51.5 184.5,51.5 185.5,51.5C 185.737,52.791 185.404,53.791 184.5,54.5C 182.666,55.494 180.999,55.494 179.5,54.5C 180.906,54.0269 181.573,53.0269 181.5,51.5 Z"/></g>
<g><path style="opacity:1" fill="#d0b7a6" d="M 207.5,51.5 C 207.715,53.1788 207.048,54.1788 205.5,54.5C 205.238,53.0222 205.571,51.6888 206.5,50.5C 207.107,50.6236 207.44,50.9569 207.5,51.5 Z"/></g>
<g><path style="opacity:1" fill="#97b8be" d="M 188.5,51.5 C 191.082,51.0254 193.082,51.6921 194.5,53.5C 193.89,54.391 193.557,55.391 193.5,56.5C 192.833,56.5 192.167,56.5 191.5,56.5C 192.519,52.7223 191.852,52.7223 189.5,56.5C 188.548,54.9547 188.215,53.288 188.5,51.5 Z"/></g>
<g><path style="opacity:1" fill="#baa166" d="M 181.5,51.5 C 181.573,53.0269 180.906,54.0269 179.5,54.5C 171.402,55.1053 163.069,55.4386 154.5,55.5C 154.5,54.1667 154.5,52.8333 154.5,51.5C 156.143,51.5198 157.476,50.8532 158.5,49.5C 159.298,51.0777 159.798,52.7444 160,54.5C 160.483,53.552 160.649,52.552 160.5,51.5C 167.5,50.1667 174.5,50.1667 181.5,51.5 Z"/></g>
<g><path style="opacity:1" fill="#282b2e" d="M 185.5,51.5 C 186.5,51.5 187.5,51.5 188.5,51.5C 188.215,53.288 188.548,54.9547 189.5,56.5C 191.852,52.7223 192.519,52.7223 191.5,56.5C 188.976,57.8003 186.309,57.8003 183.5,56.5C 183.863,55.8165 184.196,55.1499 184.5,54.5C 185.404,53.791 185.737,52.791 185.5,51.5 Z"/></g>
<g><path style="opacity:1" fill="#313132" d="M 176.5,48.5 C 176.5,48.1667 176.5,47.8333 176.5,47.5C 184.243,46.8701 191.576,47.5367 198.5,49.5C 198.966,51.2012 198.966,52.7012 198.5,54C 199.448,54.4828 200.448,54.6495 201.5,54.5C 201.5,53.5 201.5,52.5 201.5,51.5C 203.179,51.7148 204.179,51.0481 204.5,49.5C 204.5,49.1667 204.5,48.8333 204.5,48.5C 210.909,48.1827 217.243,48.6827 223.5,50C 218.292,51.3967 212.959,51.8967 207.5,51.5C 207.44,50.9569 207.107,50.6236 206.5,50.5C 205.571,51.6888 205.238,53.0222 205.5,54.5C 205.047,55.4584 204.381,56.2917 203.5,57C 203.833,57.3333 204.167,57.6667 204.5,58C 209.155,58.4992 213.821,58.6658 218.5,58.5C 218.672,59.4916 218.338,60.1583 217.5,60.5C 216.207,60.1254 214.874,59.7921 213.5,59.5C 209.203,59.548 205.203,59.8813 201.5,60.5C 201.222,62.3464 201.889,63.6798 203.5,64.5C 204.5,63.1667 205.5,63.1667 206.5,64.5C 208.134,64.032 209.3,63.032 210,61.5C 210.417,62.756 211.25,63.4226 212.5,63.5C 218.167,64.8333 223.833,64.8333 229.5,63.5C 231.184,62.4728 232.851,61.4728 234.5,60.5C 235.338,60.8417 235.672,61.5084 235.5,62.5C 235.5,62.8333 235.5,63.1667 235.5,63.5C 235.5,64.5 235.5,65.5 235.5,66.5C 233.167,66.5 230.833,66.5 228.5,66.5C 226.143,66.3367 223.81,66.5034 221.5,67C 220.915,68.3024 220.249,69.469 219.5,70.5C 217.947,72.385 215.947,73.385 213.5,73.5C 215.374,71.8853 216.708,69.8853 217.5,67.5C 212.326,69.7968 206.993,70.1302 201.5,68.5C 197.833,68.5 194.167,68.5 190.5,68.5C 193.305,67.6805 196.305,67.1805 199.5,67C 199.167,66.6667 198.833,66.3333 198.5,66C 201.125,64.6243 201.125,63.4577 198.5,62.5C 197.432,61.5655 196.099,61.2322 194.5,61.5C 194.5,61.1667 194.5,60.8333 194.5,60.5C 195.954,58.7367 195.62,57.4033 193.5,56.5C 193.557,55.391 193.89,54.391 194.5,53.5C 195.552,53.6495 196.552,53.4828 197.5,53C 194.31,51.0156 190.81,49.849 187,49.5C 185.97,49.8361 185.47,50.5028 185.5,51.5C 184.5,51.5 183.5,51.5 182.5,51.5C 183.598,50.603 183.598,49.7697 182.5,49C 180.527,48.5045 178.527,48.3379 176.5,48.5 Z"/></g>
<g><path style="opacity:1" fill="#84aaa9" d="M 198.5,49.5 C 200.5,49.5 202.5,49.5 204.5,49.5C 204.179,51.0481 203.179,51.7148 201.5,51.5C 201.5,52.5 201.5,53.5 201.5,54.5C 200.448,54.6495 199.448,54.4828 198.5,54C 198.966,52.7012 198.966,51.2012 198.5,49.5 Z"/></g>
<g><path style="opacity:1" fill="#392d1f" d="M 172.5,46.5 C 173.183,48.1765 174.517,48.8432 176.5,48.5C 178.527,48.3379 180.527,48.5045 182.5,49C 183.598,49.7697 183.598,50.603 182.5,51.5C 182.167,51.5 181.833,51.5 181.5,51.5C 174.5,50.1667 167.5,50.1667 160.5,51.5C 160.649,52.552 160.483,53.552 160,54.5C 159.798,52.7444 159.298,51.0777 158.5,49.5C 157.476,50.8532 156.143,51.5198 154.5,51.5C 154.5,52.8333 154.5,54.1667 154.5,55.5C 163.069,55.4386 171.402,55.1053 179.5,54.5C 180.999,55.494 182.666,55.494 184.5,54.5C 184.196,55.1499 183.863,55.8165 183.5,56.5C 186.309,57.8003 188.976,57.8003 191.5,56.5C 192.167,56.5 192.833,56.5 193.5,56.5C 195.62,57.4033 195.954,58.7367 194.5,60.5C 190.135,60.5622 186.135,60.2289 182.5,59.5C 180.105,58.6842 177.771,57.6842 175.5,56.5C 163.81,57.4769 152.143,57.8102 140.5,57.5C 139.833,57.5 139.167,57.5 138.5,57.5C 134.495,57.837 131.828,56.1703 130.5,52.5C 132.713,51.3947 134.88,51.3947 137,52.5C 138.5,51.3333 140,50.1667 141.5,49C 140.944,48.6174 140.611,48.1174 140.5,47.5C 142.5,47.5 144.5,47.5 146.5,47.5C 146.611,48.1174 146.944,48.6174 147.5,49C 151.524,49.6091 155.524,49.4424 159.5,48.5C 161.481,48.4371 163.148,49.1038 164.5,50.5C 166.694,48.2864 169.361,46.9531 172.5,46.5 Z"/></g>
<g><path style="opacity:1" fill="#cabe98" d="M 148.5,51.5 C 149.5,51.5 150.5,51.5 151.5,51.5C 150.5,56.8333 149.5,56.8333 148.5,51.5 Z"/></g>
<g><path style="opacity:1" fill="#cbb591" d="M 143.5,50.5 C 144.833,50.5 146.167,50.5 147.5,50.5C 147.5,52.1667 147.5,53.8333 147.5,55.5C 144.881,55.7683 142.381,55.435 140,54.5C 139.333,53.8333 139.333,53.1667 140,52.5C 141.302,51.9152 142.469,51.2485 143.5,50.5 Z"/></g>
<g><path style="opacity:1" fill="#504228" d="M 175.5,56.5 C 177.771,57.6842 180.105,58.6842 182.5,59.5C 182.671,62.7973 182.005,63.1306 180.5,60.5C 179.289,61.2739 179.289,62.1072 180.5,63C 184.152,63.4986 187.818,63.6653 191.5,63.5C 187.267,64.7943 182.934,64.7943 178.5,63.5C 178.719,62.325 178.386,61.325 177.5,60.5C 177.002,61.6034 176.669,62.6034 176.5,63.5C 175.14,59.6603 173.64,59.6603 172,63.5C 171.458,58.2792 170.624,58.2792 169.5,63.5C 166.972,62.5022 166.972,61.6689 169.5,61C 168.552,60.5172 167.552,60.3505 166.5,60.5C 166.5,61.5 166.5,62.5 166.5,63.5C 165.167,63.5 163.833,63.5 162.5,63.5C 163.914,61.4017 163.248,60.4017 160.5,60.5C 160.433,61.9587 160.766,63.2921 161.5,64.5C 160.833,64.5 160.167,64.5 159.5,64.5C 159.66,62.8008 159.494,61.1341 159,59.5C 158.014,60.1712 156.847,60.1712 155.5,59.5C 158.343,58.3132 161.343,58.3132 164.5,59.5C 168.63,59.3 172.296,58.3 175.5,56.5 Z"/></g>
<g><path style="opacity:1" fill="#a8b6b7" d="M 201.5,60.5 C 200.325,60.719 199.325,60.3857 198.5,59.5C 200.052,58.2021 201.052,58.5354 201.5,60.5 Z"/></g>
<g><path style="opacity:1" fill="#39393d" d="M 126.5,41.5 C 126.292,43.9201 126.626,46.2534 127.5,48.5C 128.167,48.8333 128.833,49.1667 129.5,49.5C 130.713,49.2528 131.38,48.5862 131.5,47.5C 134.5,47.5 137.5,47.5 140.5,47.5C 140.611,48.1174 140.944,48.6174 141.5,49C 140,50.1667 138.5,51.3333 137,52.5C 134.88,51.3947 132.713,51.3947 130.5,52.5C 129.167,52.5 128.5,53.1667 128.5,54.5C 127.833,57.5 127.167,60.5 126.5,63.5C 126.827,58.7863 126.493,54.1196 125.5,49.5C 123.684,48.2651 122.017,48.2651 120.5,49.5C 119.833,49.5 119.167,49.5 118.5,49.5C 118.5,46.8333 118.5,44.1667 118.5,41.5C 121.167,41.5 123.833,41.5 126.5,41.5 Z"/></g>
<g><path style="opacity:1" fill="#62595a" d="M -0.5,57.5 C 4.16667,57.5 8.83333,57.5 13.5,57.5C 13.822,59.7224 13.1554,61.5557 11.5,63C 7.51383,63.4988 3.51383,63.6655 -0.5,63.5C -0.5,61.5 -0.5,59.5 -0.5,57.5 Z"/></g>
<g><path style="opacity:1" fill="#c2b49d" d="M 162.5,63.5 C 162.5,64.1667 162.167,64.5 161.5,64.5C 160.766,63.2921 160.433,61.9587 160.5,60.5C 163.248,60.4017 163.914,61.4017 162.5,63.5 Z"/></g>
<g><path style="opacity:1" fill="#bea09e" d="M 194.5,61.5 C 196.099,61.2322 197.432,61.5655 198.5,62.5C 198.5,62.8333 198.5,63.1667 198.5,63.5C 196.259,63.9539 194.259,63.9539 192.5,63.5C 193.5,63.1667 194.167,62.5 194.5,61.5 Z"/></g>
<g><path style="opacity:1" fill="#81bfba" d="M 213.5,59.5 C 213.768,61.099 213.434,62.4324 212.5,63.5C 211.25,63.4226 210.417,62.756 210,61.5C 209.3,63.032 208.134,64.032 206.5,64.5C 205.5,63.1667 204.5,63.1667 203.5,64.5C 201.889,63.6798 201.222,62.3464 201.5,60.5C 205.203,59.8813 209.203,59.548 213.5,59.5 Z"/></g>
<g><path style="opacity:1" fill="#80cfc6" d="M 218.5,58.5 C 219.167,58.5 219.833,58.5 220.5,58.5C 220.66,60.1992 220.494,61.8659 220,63.5C 219.667,62.8333 219.333,62.1667 219,61.5C 217.933,63.2826 216.433,63.7826 214.5,63C 215.373,61.955 216.373,61.1217 217.5,60.5C 218.338,60.1583 218.672,59.4916 218.5,58.5 Z"/></g>
<g><path style="opacity:1" fill="#7a664d" d="M 234.5,58.5 C 236.144,58.2865 237.644,58.6198 239,59.5C 239.844,61.4628 239.344,62.7961 237.5,63.5C 238.935,62.0152 238.768,60.6819 237,59.5C 236.768,60.7375 236.268,61.7375 235.5,62.5C 235.672,61.5084 235.338,60.8417 234.5,60.5C 234.5,59.8333 234.5,59.1667 234.5,58.5 Z"/></g>
<g><path style="opacity:1" fill="#f2ceb2" d="M 237.5,63.5 C 236.833,63.5 236.167,63.5 235.5,63.5C 235.5,63.1667 235.5,62.8333 235.5,62.5C 236.268,61.7375 236.768,60.7375 237,59.5C 238.768,60.6819 238.935,62.0152 237.5,63.5 Z"/></g>
<g><path style="opacity:1" fill="#b7ab82" d="M 155.5,59.5 C 156.847,60.1712 158.014,60.1712 159,59.5C 159.494,61.1341 159.66,62.8008 159.5,64.5C 157.123,64.2155 154.956,64.2155 153,64.5C 151.232,63.3181 151.065,61.9848 152.5,60.5C 153.561,59.9595 154.561,59.6262 155.5,59.5 Z"/></g>
<g><path style="opacity:1" fill="#e0b778" d="M 182.5,59.5 C 186.135,60.2289 190.135,60.5622 194.5,60.5C 194.5,60.8333 194.5,61.1667 194.5,61.5C 194.167,62.5 193.5,63.1667 192.5,63.5C 192.167,63.5 191.833,63.5 191.5,63.5C 187.818,63.6653 184.152,63.4986 180.5,63C 179.289,62.1072 179.289,61.2739 180.5,60.5C 182.005,63.1306 182.671,62.7973 182.5,59.5 Z"/></g>
<g><path style="opacity:1" fill="#2b2222" d="M 71.5,-0.5 C 74.1667,-0.5 76.8333,-0.5 79.5,-0.5C 79.7214,0.734849 80.3881,1.73485 81.5,2.5C 81.0469,5.72598 81.0469,9.05931 81.5,12.5C 81.1667,12.8333 80.8333,13.1667 80.5,13.5C 79.5344,11.604 79.2011,9.60395 79.5,7.5C 78.5,7.5 77.5,7.5 76.5,7.5C 76.5,12.8333 76.5,18.1667 76.5,23.5C 75.325,23.281 74.325,23.6143 73.5,24.5C 75.0862,26.6705 76.4196,29.0038 77.5,31.5C 78.3329,48.1567 78.8329,64.8233 79,81.5C 84.6778,83.6624 86.8445,81.6624 85.5,75.5C 84.1266,75.6567 82.7932,75.49 81.5,75C 83.0581,74.79 84.3915,74.29 85.5,73.5C 86.3718,70.6736 86.3718,68.007 85.5,65.5C 85.5,63.8333 85.5,62.1667 85.5,60.5C 84.7703,58.955 83.437,58.1216 81.5,58C 82.056,57.6174 82.3893,57.1174 82.5,56.5C 83.791,56.7373 84.791,56.404 85.5,55.5C 85.8872,52.9244 86.2205,50.2577 86.5,47.5C 86.7678,45.901 86.4345,44.5676 85.5,43.5C 85.5,42.5 85.5,41.5 85.5,40.5C 86.1098,39.609 86.4431,38.609 86.5,37.5C 86.8851,33.7066 86.8851,29.7066 86.5,25.5C 84.4727,25.6621 82.4727,25.4955 80.5,25C 82.3817,24.8019 84.0484,24.3019 85.5,23.5C 86.4614,21.7354 86.7947,19.7354 86.5,17.5C 85.8333,16.8333 85.1667,16.1667 84.5,15.5C 87.3523,14.2768 88.0189,12.2768 86.5,9.5C 84.754,8.99874 83.754,8.33208 83.5,7.5C 84.5,7.5 85.5,7.5 86.5,7.5C 86.5,5.5 86.5,3.5 86.5,1.5C 86.5,0.833333 86.5,0.166667 86.5,-0.5C 88.8333,-0.5 91.1667,-0.5 93.5,-0.5C 92.8452,60.5001 92.1786,121.5 91.5,182.5C 79.5,182.5 67.5,182.5 55.5,182.5C 55.5,181.167 55.5,179.833 55.5,178.5C 60.8333,178.167 66.1667,177.833 71.5,177.5C 72.7351,173.686 72.7351,169.853 71.5,166C 71.4098,163.245 72.0764,160.745 73.5,158.5C 72.8333,157.167 72.1667,155.833 71.5,154.5C 71.4823,152.627 71.9823,152.294 73,153.5C 73.5,152.333 74.3333,151.5 75.5,151C 74.944,150.617 74.6107,150.117 74.5,149.5C 73.7784,149.082 73.2784,148.416 73,147.5C 72.6667,148.833 72.3333,150.167 72,151.5C 71.3333,148.167 71.3333,144.833 72,141.5C 74.8245,144.338 75.6579,144.004 74.5,140.5C 75.2485,138.964 76.2485,137.631 77.5,136.5C 77.1667,136.167 76.8333,135.833 76.5,135.5C 74.8509,136.706 73.3509,138.039 72,139.5C 72.093,131.206 71.9263,122.873 71.5,114.5C 71.8333,113.5 72.1667,112.5 72.5,111.5C 73.5032,113.542 74.8366,113.875 76.5,112.5C 77.6517,109.894 77.8184,107.227 77,104.5C 76.8142,106.9 76.3142,109.234 75.5,111.5C 74.4763,110.147 73.143,109.48 71.5,109.5C 71.238,108.022 71.5713,106.689 72.5,105.5C 74.5654,104.143 76.5654,102.81 78.5,101.5C 78.5,107.167 78.5,112.833 78.5,118.5C 77.448,118.351 76.448,118.517 75.5,119C 77.3958,120.873 78.3958,123.206 78.5,126C 77.6937,129.457 77.6937,132.957 78.5,136.5C 78.7796,140.225 80.7796,141.392 84.5,140C 85.9608,137.418 85.2941,135.585 82.5,134.5C 82.8212,132.952 83.8212,132.285 85.5,132.5C 85.7947,130.265 85.4614,128.265 84.5,126.5C 84.0825,125.778 83.4158,125.278 82.5,125C 83.4158,124.722 84.0825,124.222 84.5,123.5C 85.4861,119.03 85.8195,114.363 85.5,109.5C 84.325,109.719 83.325,109.386 82.5,108.5C 83.9935,107.859 84.9935,106.859 85.5,105.5C 85.7678,103.901 85.4345,102.568 84.5,101.5C 84.0825,100.778 83.4158,100.278 82.5,100C 83.4158,99.7216 84.0825,99.2216 84.5,98.5C 85.8333,96.5 85.8333,94.5 84.5,92.5C 84.5,91.5 84.5,90.5 84.5,89.5C 85.4345,88.4324 85.7678,87.099 85.5,85.5C 83.4402,84.1888 81.2735,84.1888 79,85.5C 78.5012,89.4862 78.3345,93.4862 78.5,97.5C 76.8863,95.9254 74.8863,95.2587 72.5,95.5C 72.3505,96.552 72.5172,97.552 73,98.5C 74.0113,97.6634 75.1779,97.33 76.5,97.5C 76.5,98.8333 76.5,100.167 76.5,101.5C 74.549,101.227 73.049,101.893 72,103.5C 72.0997,82.1729 72.2664,60.8396 72.5,39.5C 71.5,39.5 70.5,39.5 69.5,39.5C 69.8333,38.8333 70.1667,38.1667 70.5,37.5C 71.4731,35.0521 71.8064,32.3854 71.5,29.5C 63.4827,29.5012 55.4827,29.8345 47.5,30.5C 43.1667,30.5 38.8333,30.5 34.5,30.5C 34.5,28.8333 34.5,27.1667 34.5,25.5C 35.4345,26.5676 35.7678,27.901 35.5,29.5C 47.4631,28.3357 59.4631,27.669 71.5,27.5C 71.6251,18.334 71.6251,9.00063 71.5,-0.5 Z"/></g>
<g><path style="opacity:1" fill="#655f63" d="M 85.5,60.5 C 85.5,62.1667 85.5,63.8333 85.5,65.5C 80.5,66.5 78.5,64.5 79.5,59.5C 81.6208,59.3253 83.6208,59.6586 85.5,60.5 Z"/></g>
<g><path style="opacity:1" fill="#767174" d="M 85.5,55.5 C 84.791,56.404 83.791,56.7373 82.5,56.5C 80.7748,56.1575 80.2748,55.1575 81,53.5C 82.3561,52.6198 83.8561,52.2865 85.5,52.5C 85.5,53.5 85.5,54.5 85.5,55.5 Z"/></g>
<g><path style="opacity:1" fill="#8e8689" d="M 85.5,43.5 C 86.4345,44.5676 86.7678,45.901 86.5,47.5C 84.6208,48.3414 82.6208,48.6747 80.5,48.5C 80.5,46.8333 80.5,45.1667 80.5,43.5C 82.1667,43.5 83.8333,43.5 85.5,43.5 Z"/></g>
<g><path style="opacity:1" fill="#696063" d="M 86.5,37.5 C 86.4431,38.609 86.1098,39.609 85.5,40.5C 83.8333,40.5 82.1667,40.5 80.5,40.5C 80.5,38.5 80.5,36.5 80.5,34.5C 82.5,34.5 84.5,34.5 86.5,34.5C 86.5,35.5 86.5,36.5 86.5,37.5 Z"/></g>
<g><path style="opacity:1" fill="#686062" d="M 86.5,17.5 C 86.7947,19.7354 86.4614,21.7354 85.5,23.5C 83.8333,23.5 82.1667,23.5 80.5,23.5C 80.1937,19.3029 82.1937,17.3029 86.5,17.5 Z"/></g>
<g><path style="opacity:1" fill="#5a4e50" d="M 86.5,9.5 C 88.0189,12.2768 87.3523,14.2768 84.5,15.5C 83.3509,15.2089 82.6842,14.3756 82.5,13C 82.4235,10.2439 83.7569,9.07723 86.5,9.5 Z"/></g>
<g><path style="opacity:1" fill="#352c2d" d="M 79.5,-0.5 C 81.8333,-0.5 84.1667,-0.5 86.5,-0.5C 86.5,0.166667 86.5,0.833333 86.5,1.5C 85.1667,1.5 83.8333,1.5 82.5,1.5C 82.5172,3.56475 82.8505,5.56475 83.5,7.5C 83.754,8.33208 84.754,8.99874 86.5,9.5C 83.7569,9.07723 82.4235,10.2439 82.5,13C 82.6842,14.3756 83.3509,15.2089 84.5,15.5C 85.1667,16.1667 85.8333,16.8333 86.5,17.5C 82.1937,17.3029 80.1937,19.3029 80.5,23.5C 82.1667,23.5 83.8333,23.5 85.5,23.5C 84.0484,24.3019 82.3817,24.8019 80.5,25C 82.4727,25.4955 84.4727,25.6621 86.5,25.5C 86.8851,29.7066 86.8851,33.7066 86.5,37.5C 86.5,36.5 86.5,35.5 86.5,34.5C 84.5,34.5 82.5,34.5 80.5,34.5C 80.5,36.5 80.5,38.5 80.5,40.5C 82.1667,40.5 83.8333,40.5 85.5,40.5C 85.5,41.5 85.5,42.5 85.5,43.5C 83.8333,43.5 82.1667,43.5 80.5,43.5C 80.5,45.1667 80.5,46.8333 80.5,48.5C 82.6208,48.6747 84.6208,48.3414 86.5,47.5C 86.2205,50.2577 85.8872,52.9244 85.5,55.5C 85.5,54.5 85.5,53.5 85.5,52.5C 83.8561,52.2865 82.3561,52.6198 81,53.5C 80.2748,55.1575 80.7748,56.1575 82.5,56.5C 82.3893,57.1174 82.056,57.6174 81.5,58C 83.437,58.1216 84.7703,58.955 85.5,60.5C 83.6208,59.6586 81.6208,59.3253 79.5,59.5C 78.5,64.5 80.5,66.5 85.5,65.5C 86.3718,68.007 86.3718,70.6736 85.5,73.5C 84.3915,74.29 83.0581,74.79 81.5,75C 82.7932,75.49 84.1266,75.6567 85.5,75.5C 86.8445,81.6624 84.6778,83.6624 79,81.5C 78.8329,64.8233 78.3329,48.1567 77.5,31.5C 76.4196,29.0038 75.0862,26.6705 73.5,24.5C 74.325,23.6143 75.325,23.281 76.5,23.5C 76.5,18.1667 76.5,12.8333 76.5,7.5C 77.5,7.5 78.5,7.5 79.5,7.5C 79.2011,9.60395 79.5344,11.604 80.5,13.5C 80.8333,13.1667 81.1667,12.8333 81.5,12.5C 81.0469,9.05931 81.0469,5.72598 81.5,2.5C 80.3881,1.73485 79.7214,0.734849 79.5,-0.5 Z"/></g>
<g><path style="opacity:1" fill="#696163" d="M 80.5,26.5 C 82.1667,26.5 83.8333,26.5 85.5,26.5C 85.5,28.5 85.5,30.5 85.5,32.5C 83.8333,32.5 82.1667,32.5 80.5,32.5C 80.5,30.5 80.5,28.5 80.5,26.5 Z"/></g>
<g><path style="opacity:1" fill="#665a5c" d="M 86.5,1.5 C 86.5,3.5 86.5,5.5 86.5,7.5C 85.5,7.5 84.5,7.5 83.5,7.5C 82.8505,5.56475 82.5172,3.56475 82.5,1.5C 83.8333,1.5 85.1667,1.5 86.5,1.5 Z"/></g>
<g><path style="opacity:1" fill="#2c2125" d="M 103.5,175.5 C 103.5,177.833 103.5,180.167 103.5,182.5C 100.833,182.5 98.1667,182.5 95.5,182.5C 95.5,138.167 95.5,93.8333 95.5,49.5C 98.5,49.5 101.5,49.5 104.5,49.5C 103.883,91.4972 103.55,133.497 103.5,175.5 Z"/></g>
<g><path style="opacity:1" fill="#b4a583" d="M 178.5,63.5 C 174.601,64.7908 170.601,64.7908 166.5,63.5C 166.5,62.5 166.5,61.5 166.5,60.5C 167.552,60.3505 168.552,60.5172 169.5,61C 166.972,61.6689 166.972,62.5022 169.5,63.5C 170.624,58.2792 171.458,58.2792 172,63.5C 173.64,59.6603 175.14,59.6603 176.5,63.5C 176.669,62.6034 177.002,61.6034 177.5,60.5C 178.386,61.325 178.719,62.325 178.5,63.5 Z"/></g>
<g><path style="opacity:1" fill="#5c928a" d="M 220.5,58.5 C 225.121,59.709 229.787,59.709 234.5,58.5C 234.5,59.1667 234.5,59.8333 234.5,60.5C 232.851,61.4728 231.184,62.4728 229.5,63.5C 223.833,64.8333 218.167,64.8333 212.5,63.5C 213.434,62.4324 213.768,61.099 213.5,59.5C 214.874,59.7921 216.207,60.1254 217.5,60.5C 216.373,61.1217 215.373,61.955 214.5,63C 216.433,63.7826 217.933,63.2826 219,61.5C 219.333,62.1667 219.667,62.8333 220,63.5C 220.494,61.8659 220.66,60.1992 220.5,58.5 Z"/></g>
<g><path style="opacity:1" fill="#81e7db" d="M 229.5,63.5 C 226.833,63.5 224.167,63.5 221.5,63.5C 221.5,62.5 221.5,61.5 221.5,60.5C 224.684,60.8331 228.018,60.9998 231.5,61C 230.244,61.4169 229.577,62.2502 229.5,63.5 Z"/></g>
<g><path style="opacity:1" fill="#332924" d="M 152.5,60.5 C 151.065,61.9848 151.232,63.3181 153,64.5C 154.956,64.2155 157.123,64.2155 159.5,64.5C 160.167,64.5 160.833,64.5 161.5,64.5C 162.167,64.5 162.5,64.1667 162.5,63.5C 163.833,63.5 165.167,63.5 166.5,63.5C 170.601,64.7908 174.601,64.7908 178.5,63.5C 182.934,64.7943 187.267,64.7943 191.5,63.5C 191.833,63.5 192.167,63.5 192.5,63.5C 194.259,63.9539 196.259,63.9539 198.5,63.5C 198.938,63.4346 199.272,63.6012 199.5,64C 192.906,65.2188 186.239,66.2188 179.5,67C 174.913,67.7991 170.413,67.6324 166,66.5C 163.835,67.5827 161.835,68.916 160,70.5C 158.354,68.8592 157.354,69.1925 157,71.5C 156.395,69.5188 155.395,69.1854 154,70.5C 153.077,69.2412 152.243,67.9079 151.5,66.5C 150.893,66.6236 150.56,66.9569 150.5,67.5C 150.5,68.5 150.5,69.5 150.5,70.5C 146.232,72.5186 143.898,71.1852 143.5,66.5C 144.281,61.4087 147.281,59.4087 152.5,60.5 Z"/></g>
<g><path style="opacity:1" fill="#685f64" d="M -0.5,66.5 C 5.25858,66.2143 10.9252,66.5476 16.5,67.5C 16.5,69.1667 16.5,70.8333 16.5,72.5C 10.8477,71.9682 5.18099,71.6349 -0.5,71.5C -0.5,69.8333 -0.5,68.1667 -0.5,66.5 Z"/></g>
<g><path style="opacity:1" fill="#2e2227" d="M 111.5,49.5 C 111.883,52.462 110.883,53.462 108.5,52.5C 107.343,55.7844 107.176,59.1177 108,62.5C 108.667,59.8333 109.333,59.8333 110,62.5C 110.974,60.1224 111.641,60.4557 112,63.5C 112.667,79.5 112.667,95.5 112,111.5C 111.469,85.0292 110.469,85.0292 109,111.5C 108.762,132.176 108.262,152.843 107.5,173.5C 107.669,176.533 108.002,179.533 108.5,182.5C 107.833,182.5 107.167,182.5 106.5,182.5C 106.802,179.941 106.468,177.607 105.5,175.5C 105.55,133.497 105.883,91.4972 106.5,49.5C 108.167,49.5 109.833,49.5 111.5,49.5 Z"/></g>
<g><path style="opacity:1" fill="#4d9182" d="M 261.5,68.5 C 261.5,68.8333 261.5,69.1667 261.5,69.5C 257.5,69.5 253.5,69.5 249.5,69.5C 249.077,71.7812 249.744,73.4479 251.5,74.5C 250.791,75.404 249.791,75.7373 248.5,75.5C 248.5,73.8333 248.5,72.1667 248.5,70.5C 247.5,70.5 246.5,70.5 245.5,70.5C 245.5,69.5 245.5,68.5 245.5,67.5C 250.797,68.2745 256.13,68.6079 261.5,68.5 Z"/></g>
<g><path style="opacity:1" fill="#3e343d" d="M 93.5,-0.5 C 94.5,-0.5 95.5,-0.5 96.5,-0.5C 96.6831,6.86815 96.3498,14.2015 95.5,21.5C 97.5,21.5 99.5,21.5 101.5,21.5C 101.5,22.8333 101.5,24.1667 101.5,25.5C 99.5,25.5 97.5,25.5 95.5,25.5C 96.2295,30.1304 96.5628,34.7971 96.5,39.5C 98.8333,39.5 101.167,39.5 103.5,39.5C 103.906,34.0912 104.573,28.7578 105.5,23.5C 106.833,23.5 108.167,23.5 109.5,23.5C 113.846,23.3343 118.179,23.501 122.5,24C 121.584,24.2784 120.918,24.7784 120.5,25.5C 120.5,25.8333 120.5,26.1667 120.5,26.5C 115.5,26.5 110.5,26.5 105.5,26.5C 105.5,27.5 105.5,28.5 105.5,29.5C 107.978,30.1641 110.645,30.4975 113.5,30.5C 116.59,30.4783 119.257,29.8117 121.5,28.5C 122.404,29.209 122.737,30.209 122.5,31.5C 122.167,31.5 121.833,31.5 121.5,31.5C 119.076,31.1924 116.743,31.5258 114.5,32.5C 113.669,34.5801 112.669,36.5801 111.5,38.5C 111.799,40.8146 112.632,40.8146 114,38.5C 114.671,39.2524 115.504,39.5858 116.5,39.5C 115.612,42.0545 115.279,44.7212 115.5,47.5C 114.533,48.8062 113.199,49.4729 111.5,49.5C 109.833,49.5 108.167,49.5 106.5,49.5C 105.883,91.4972 105.55,133.497 105.5,175.5C 104.833,175.5 104.167,175.5 103.5,175.5C 103.55,133.497 103.883,91.4972 104.5,49.5C 101.5,49.5 98.5,49.5 95.5,49.5C 95.5,93.8333 95.5,138.167 95.5,182.5C 94.1667,182.5 92.8333,182.5 91.5,182.5C 92.1786,121.5 92.8452,60.5001 93.5,-0.5 Z"/></g>
<g><path style="opacity:1" fill="#5d799a" d="M 121.5,28.5 C 119.257,29.8117 116.59,30.4783 113.5,30.5C 110.645,30.4975 107.978,30.1641 105.5,29.5C 110.927,29.7825 116.26,29.4491 121.5,28.5 Z"/></g>
<g><path style="opacity:1" fill="#5c3c23" d="M 228.5,66.5 C 231.931,67.1347 235.264,68.1347 238.5,69.5C 236.738,69.6427 235.071,69.3094 233.5,68.5C 232.833,69.8333 232.167,71.1667 231.5,72.5C 231.467,71.011 230.967,69.6776 230,68.5C 228.318,69.8646 228.151,71.3646 229.5,73C 232.482,73.498 235.482,73.6646 238.5,73.5C 233.759,75.3077 228.759,75.8077 223.5,75C 220.553,74.8882 219.22,73.3882 219.5,70.5C 220.249,69.469 220.915,68.3024 221.5,67C 223.81,66.5034 226.143,66.3367 228.5,66.5 Z"/></g>
<g><path style="opacity:1" fill="#d8b481" d="M 225.5,67.5 C 227.308,68.9179 227.975,70.9179 227.5,73.5C 225.5,73.5 223.5,73.5 221.5,73.5C 221.215,71.712 221.548,70.0453 222.5,68.5C 224.225,70.0916 225.225,69.7583 225.5,67.5 Z"/></g>
<g><path style="opacity:1" fill="#5d4009" d="M 223.5,70.5 C 225.337,70.6395 225.67,71.3061 224.5,72.5C 223.702,72.0431 223.369,71.3764 223.5,70.5 Z"/></g>
<g><path style="opacity:1" fill="#dbad71" d="M 238.5,69.5 C 239.167,69.5 239.5,69.8333 239.5,70.5C 239.5,71.5 239.5,72.5 239.5,73.5C 239.167,73.5 238.833,73.5 238.5,73.5C 235.482,73.6646 232.482,73.498 229.5,73C 228.151,71.3646 228.318,69.8646 230,68.5C 230.967,69.6776 231.467,71.011 231.5,72.5C 232.167,71.1667 232.833,69.8333 233.5,68.5C 235.071,69.3094 236.738,69.6427 238.5,69.5 Z"/></g>
<g><path style="opacity:1" fill="#716b6e" d="M 85.5,73.5 C 83.8333,73.5 82.1667,73.5 80.5,73.5C 80.5,71.8333 80.5,70.1667 80.5,68.5C 84.5,67.8333 86.1667,69.5 85.5,73.5 Z"/></g>
<g><path style="opacity:1" fill="#cead7b" d="M 201.5,70.5 C 201.672,71.4916 201.338,72.1583 200.5,72.5C 195.562,73.3924 190.562,73.7257 185.5,73.5C 185.5,72.1667 185.5,70.8333 185.5,69.5C 190.87,69.3921 196.203,69.7255 201.5,70.5 Z"/></g>
<g><path style="opacity:1" fill="#7ebfb6" d="M 213.5,73.5 C 210.5,73.5 207.5,73.5 204.5,73.5C 204.5,72.5 204.5,71.5 204.5,70.5C 203.5,70.5 202.5,70.5 201.5,70.5C 201.5,69.8333 201.5,69.1667 201.5,68.5C 206.993,70.1302 212.326,69.7968 217.5,67.5C 216.708,69.8853 215.374,71.8853 213.5,73.5 Z"/></g>
<g><path style="opacity:1" fill="#aba5a6" d="M 239.5,70.5 C 240.5,70.5 241.5,70.5 242.5,70.5C 242.5,71.5 242.5,72.5 242.5,73.5C 241.5,73.5 240.5,73.5 239.5,73.5C 239.5,72.5 239.5,71.5 239.5,70.5 Z"/></g>
<g><path style="opacity:1" fill="#78ebd5" d="M 261.5,69.5 C 262.721,70.0283 263.887,70.695 265,71.5C 266.388,70.4464 267.888,70.2797 269.5,71C 268.167,71.6667 268.167,72.3333 269.5,73C 265.179,73.499 260.846,73.6657 256.5,73.5C 256.44,72.9569 256.107,72.6236 255.5,72.5C 253.974,72.9943 252.641,73.661 251.5,74.5C 249.744,73.4479 249.077,71.7812 249.5,69.5C 253.5,69.5 257.5,69.5 261.5,69.5 Z"/></g>
<g><path style="opacity:1" fill="#58bba9" d="M 261.5,69.5 C 261.5,69.1667 261.5,68.8333 261.5,68.5C 265.833,69.8333 270.167,69.8333 274.5,68.5C 274.5,70.5 274.5,72.5 274.5,74.5C 268.31,74.8229 262.31,74.4896 256.5,73.5C 260.846,73.6657 265.179,73.499 269.5,73C 268.167,72.3333 268.167,71.6667 269.5,71C 267.888,70.2797 266.388,70.4464 265,71.5C 263.887,70.695 262.721,70.0283 261.5,69.5 Z"/></g>
<g><path style="opacity:1" fill="#284240" d="M 256.5,73.5 C 262.31,74.4896 268.31,74.8229 274.5,74.5C 274.5,75.1667 274.5,75.8333 274.5,76.5C 266.842,75.7921 259.176,75.1254 251.5,74.5C 252.641,73.661 253.974,72.9943 255.5,72.5C 256.107,72.6236 256.44,72.9569 256.5,73.5 Z"/></g>
<g><path style="opacity:1" fill="#342b28" d="M 16.5,67.5 C 16.5,72.1667 16.5,76.8333 16.5,81.5C 16.7394,79.5328 16.4061,77.6995 15.5,76C 10.1771,75.5006 4.84372,75.334 -0.5,75.5C -0.5,74.1667 -0.5,72.8333 -0.5,71.5C 5.18099,71.6349 10.8477,71.9682 16.5,72.5C 16.5,70.8333 16.5,69.1667 16.5,67.5 Z"/></g>
<g><path style="opacity:1" fill="#645b60" d="M -0.5,75.5 C 4.84372,75.334 10.1771,75.5006 15.5,76C 16.4061,77.6995 16.7394,79.5328 16.5,81.5C 10.828,81.2401 5.16133,80.9068 -0.5,80.5C -0.5,78.8333 -0.5,77.1667 -0.5,75.5 Z"/></g>
<g><path style="opacity:1" fill="#756e73" d="M 80.5,77.5 C 81.8333,77.5 83.1667,77.5 84.5,77.5C 84.5499,79.5901 83.5499,80.9234 81.5,81.5C 80.5713,80.3112 80.238,78.9778 80.5,77.5 Z"/></g>
<g><path style="opacity:1" fill="#392e29" d="M 190.5,68.5 C 194.167,68.5 197.833,68.5 201.5,68.5C 201.5,69.1667 201.5,69.8333 201.5,70.5C 196.203,69.7255 190.87,69.3921 185.5,69.5C 185.5,70.8333 185.5,72.1667 185.5,73.5C 190.562,73.7257 195.562,73.3924 200.5,72.5C 200.389,73.1174 200.056,73.6174 199.5,74C 195.713,74.1596 192.046,74.8263 188.5,76C 194.373,76.7679 200.206,76.6013 206,75.5C 208.669,76.0161 211.169,76.6827 213.5,77.5C 212.167,77.5 211.5,78.1667 211.5,79.5C 210.167,79.5 208.833,79.5 207.5,79.5C 206.5,79.5 205.5,79.5 204.5,79.5C 202.016,78.6311 199.349,77.9644 196.5,77.5C 192.882,78.3464 189.215,78.6797 185.5,78.5C 185.649,79.552 185.483,80.552 185,81.5C 183.542,76.4055 182.709,76.7389 182.5,82.5C 187.167,82.5 191.833,82.5 196.5,82.5C 200.167,82.5 203.833,82.5 207.5,82.5C 208.5,82.5 209.5,82.5 210.5,82.5C 215.401,84.1199 220.568,85.1199 226,85.5C 227.376,85.3158 228.209,84.6491 228.5,83.5C 230.262,82.7377 231.262,81.4044 231.5,79.5C 230.5,78.8333 229.5,78.1667 228.5,77.5C 232.437,77.2065 236.27,77.5399 240,78.5C 242.305,76.0695 245.138,75.0695 248.5,75.5C 249.791,75.7373 250.791,75.404 251.5,74.5C 259.176,75.1254 266.842,75.7921 274.5,76.5C 274.5,85.5 274.5,94.5 274.5,103.5C 273.5,103.5 272.5,103.5 271.5,103.5C 270.833,108.833 270.167,108.833 269.5,103.5C 266.086,102.271 262.753,100.771 259.5,99C 260.357,98.3109 261.023,97.4776 261.5,96.5C 259.604,95.5344 257.604,95.2011 255.5,95.5C 255.817,98.5719 255.484,101.572 254.5,104.5C 253.252,105.04 252.085,105.707 251,106.5C 247.697,105.869 244.53,104.869 241.5,103.5C 240.584,103.543 239.917,103.876 239.5,104.5C 237.162,103.834 234.995,103.834 233,104.5C 232.502,101.518 232.335,98.5184 232.5,95.5C 230.833,95.5 229.167,95.5 227.5,95.5C 226.98,100.851 227.98,105.851 230.5,110.5C 229.222,110.218 228.222,109.551 227.5,108.5C 226.791,107.596 225.791,107.263 224.5,107.5C 224.5,106.833 224.167,106.5 223.5,106.5C 222.25,106.577 221.417,107.244 221,108.5C 216.199,107.808 211.365,107.142 206.5,106.5C 205.817,106.863 205.15,107.196 204.5,107.5C 205.112,104.303 207.112,102.969 210.5,103.5C 210.833,103.5 211.167,103.5 211.5,103.5C 214.017,105.673 217.017,106.673 220.5,106.5C 220.55,104.41 219.55,103.077 217.5,102.5C 216.548,100.955 216.215,99.288 216.5,97.5C 217.833,97.5 219.167,97.5 220.5,97.5C 220.833,97.5 221.167,97.5 221.5,97.5C 220.432,98.4345 219.099,98.7678 217.5,98.5C 217.5,99.5 217.5,100.5 217.5,101.5C 219.674,101.92 221.674,101.92 223.5,101.5C 224.626,100.192 224.626,98.8583 223.5,97.5C 224.144,94.856 225.811,93.1894 228.5,92.5C 231.336,92.1627 232.002,90.8293 230.5,88.5C 230.082,87.7784 229.416,87.2784 228.5,87C 216.171,86.5001 203.838,86.3335 191.5,86.5C 190.833,86.5 190.5,86.8333 190.5,87.5C 186.766,87.6773 183.099,87.3439 179.5,86.5C 173.256,85.0161 166.922,83.8494 160.5,83C 159.978,82.4387 159.645,81.772 159.5,81C 161.335,78.3332 163.668,76.1665 166.5,74.5C 171.78,75.6178 177.113,75.7845 182.5,75C 182.421,73.0932 182.754,71.0932 183.5,69C 185.81,68.5034 188.143,68.3367 190.5,68.5 Z"/></g>
<g><path style="opacity:1" fill="#bba4ae" d="M 207.5,79.5 C 208.833,79.5 210.167,79.5 211.5,79.5C 211.737,80.791 211.404,81.791 210.5,82.5C 209.5,82.5 208.5,82.5 207.5,82.5C 207.5,81.5 207.5,80.5 207.5,79.5 Z"/></g>
<g><path style="opacity:1" fill="#b9b193" d="M 164.5,77.5 C 166.747,77.9208 168.913,77.9208 171,77.5C 171.419,81.8518 172.086,82.1851 173,78.5C 173.667,79.8333 174.333,79.8333 175,78.5C 175.684,79.7839 175.517,80.9505 174.5,82C 171.135,82.3139 167.969,82.4806 165,82.5C 163.372,81.0383 163.205,79.3717 164.5,77.5 Z"/></g>
<g><path style="opacity:1" fill="#a99589" d="M 179.5,78.5 C 180.239,78.369 180.906,78.5357 181.5,79C 180.167,80 180.167,81 181.5,82C 180.552,82.4828 179.552,82.6495 178.5,82.5C 178.433,81.0413 178.766,79.7079 179.5,78.5 Z"/></g>
<g><path style="opacity:1" fill="#eec372" d="M 204.5,79.5 C 205.5,79.5 206.5,79.5 207.5,79.5C 207.5,80.5 207.5,81.5 207.5,82.5C 203.833,82.5 200.167,82.5 196.5,82.5C 195.391,81.71 194.058,81.21 192.5,81C 191.304,80.3457 191.304,79.8457 192.5,79.5C 196.318,79.6697 200.318,79.6697 204.5,79.5 Z"/></g>
<g><path style="opacity:1" fill="#efc7b6" d="M 229.5,79.5 C 230.167,79.5 230.833,79.5 231.5,79.5C 231.262,81.4044 230.262,82.7377 228.5,83.5C 228.833,82.1667 229.167,80.8333 229.5,79.5 Z"/></g>
<g><path style="opacity:1" fill="#bd9876" d="M 204.5,79.5 C 200.318,79.6697 196.318,79.6697 192.5,79.5C 191.304,79.8457 191.304,80.3457 192.5,81C 194.058,81.21 195.391,81.71 196.5,82.5C 191.833,82.5 187.167,82.5 182.5,82.5C 182.709,76.7389 183.542,76.4055 185,81.5C 185.483,80.552 185.649,79.552 185.5,78.5C 189.215,78.6797 192.882,78.3464 196.5,77.5C 199.349,77.9644 202.016,78.6311 204.5,79.5 Z"/></g>
<g><path style="opacity:1" fill="#2c3a30" d="M 211.5,79.5 C 212.5,79.5 213.5,79.5 214.5,79.5C 214.354,81.9424 215.187,82.6091 217,81.5C 219.153,83.4439 221.653,83.9439 224.5,83C 225.337,81.9887 225.67,80.8221 225.5,79.5C 226.833,79.5 228.167,79.5 229.5,79.5C 229.167,80.8333 228.833,82.1667 228.5,83.5C 228.209,84.6491 227.376,85.3158 226,85.5C 220.568,85.1199 215.401,84.1199 210.5,82.5C 211.404,81.791 211.737,80.791 211.5,79.5 Z"/></g>
<g><path style="opacity:1" fill="#7ac3b7" d="M 213.5,77.5 C 216.672,78.1259 219.839,78.7926 223,79.5C 224.444,77.8446 226.278,77.178 228.5,77.5C 229.5,78.1667 230.5,78.8333 231.5,79.5C 230.833,79.5 230.167,79.5 229.5,79.5C 228.167,79.5 226.833,79.5 225.5,79.5C 225.67,80.8221 225.337,81.9887 224.5,83C 221.653,83.9439 219.153,83.4439 217,81.5C 215.187,82.6091 214.354,81.9424 214.5,79.5C 213.5,79.5 212.5,79.5 211.5,79.5C 211.5,78.1667 212.167,77.5 213.5,77.5 Z"/></g>
<g><path style="opacity:1" fill="#352f2f" d="M -0.5,80.5 C 5.16133,80.9068 10.828,81.2401 16.5,81.5C 17.1587,84.4552 17.4921,87.4552 17.5,90.5C 14.2637,90.5176 11.597,91.5176 9.5,93.5C 6.16667,93.5 2.83333,93.5 -0.5,93.5C -0.5,92.1667 -0.5,90.8333 -0.5,89.5C 4.51108,89.6659 9.51108,89.4993 14.5,89C 16.689,88.323 17.0224,87.1563 15.5,85.5C 10.2079,84.5052 4.8746,84.1718 -0.5,84.5C -0.5,83.1667 -0.5,81.8333 -0.5,80.5 Z"/></g>
<g><path style="opacity:1" fill="#6b6565" d="M -0.5,84.5 C 4.8746,84.1718 10.2079,84.5052 15.5,85.5C 17.0224,87.1563 16.689,88.323 14.5,89C 9.51108,89.4993 4.51108,89.6659 -0.5,89.5C -0.5,87.8333 -0.5,86.1667 -0.5,84.5 Z"/></g>
<g><path style="opacity:1" fill="#502b39" d="M 191.5,86.5 C 203.838,86.3335 216.171,86.5001 228.5,87C 229.416,87.2784 230.082,87.7784 230.5,88.5C 229.761,88.369 229.094,88.5357 228.5,89C 229.684,90.1455 229.684,91.3121 228.5,92.5C 225.811,93.1894 224.144,94.856 223.5,97.5C 222.833,97.5 222.167,97.5 221.5,97.5C 221.167,97.5 220.833,97.5 220.5,97.5C 220.586,96.5041 220.252,95.6708 219.5,95C 218.167,94.6667 216.833,94.3333 215.5,94C 206.288,93.8271 197.288,92.9938 188.5,91.5C 191.788,91.927 194.788,91.2603 197.5,89.5C 198.167,90.5 198.833,91.5 199.5,92.5C 208.344,92.7601 217.344,92.4268 226.5,91.5C 226.833,90.8333 227.167,90.1667 227.5,89.5C 219.319,88.7899 211.153,88.1232 203,87.5C 200.767,87.3227 198.433,87.656 196,88.5C 194.674,88.7549 193.674,89.4216 193,90.5C 192.209,89.255 191.709,87.9217 191.5,86.5 Z"/></g>
<g><path style="opacity:1" fill="#a87286" d="M 179.5,86.5 C 183.099,87.3439 186.766,87.6773 190.5,87.5C 187.562,88.0703 185.228,88.7369 183.5,89.5C 183.672,90.4916 183.338,91.1583 182.5,91.5C 180.602,90.9107 178.602,90.744 176.5,91C 175.748,90.3292 175.414,89.4959 175.5,88.5C 176.995,88.0113 178.329,87.3446 179.5,86.5 Z"/></g>
<g><path style="opacity:1" fill="#80777b" d="M 85.5,85.5 C 85.7678,87.099 85.4345,88.4324 84.5,89.5C 83.1667,89.5 81.8333,89.5 80.5,89.5C 80.5,88.1667 80.5,86.8333 80.5,85.5C 82.1667,85.5 83.8333,85.5 85.5,85.5 Z"/></g>
<g><path style="opacity:1" fill="#d77caf" d="M 191.5,86.5 C 191.709,87.9217 192.209,89.255 193,90.5C 193.674,89.4216 194.674,88.7549 196,88.5C 198.433,87.656 200.767,87.3227 203,87.5C 211.153,88.1232 219.319,88.7899 227.5,89.5C 227.167,90.1667 226.833,90.8333 226.5,91.5C 217.344,92.4268 208.344,92.7601 199.5,92.5C 198.833,91.5 198.167,90.5 197.5,89.5C 194.788,91.2603 191.788,91.927 188.5,91.5C 186.446,91.6347 184.779,90.968 183.5,89.5C 185.228,88.7369 187.562,88.0703 190.5,87.5C 190.5,86.8333 190.833,86.5 191.5,86.5 Z"/></g>
<g><path style="opacity:1" fill="#eacab1" d="M 230.5,88.5 C 232.002,90.8293 231.336,92.1627 228.5,92.5C 229.684,91.3121 229.684,90.1455 228.5,89C 229.094,88.5357 229.761,88.369 230.5,88.5 Z"/></g>
<g><path style="opacity:1" fill="#5a5251" d="M -0.5,93.5 C 2.83333,93.5 6.16667,93.5 9.5,93.5C 11.7446,94.8278 12.0779,96.6612 10.5,99C 6.84841,99.4986 3.18174,99.6653 -0.5,99.5C -0.5,97.5 -0.5,95.5 -0.5,93.5 Z"/></g>
<g><path style="opacity:1" fill="#645e60" d="M 84.5,92.5 C 85.8333,94.5 85.8333,96.5 84.5,98.5C 82.8333,98.5 81.1667,98.5 79.5,98.5C 79.5,96.5 79.5,94.5 79.5,92.5C 81.1667,92.5 82.8333,92.5 84.5,92.5 Z"/></g>
<g><path style="opacity:1" fill="#3c3536" d="M 85.5,85.5 C 83.8333,85.5 82.1667,85.5 80.5,85.5C 80.5,86.8333 80.5,88.1667 80.5,89.5C 81.8333,89.5 83.1667,89.5 84.5,89.5C 84.5,90.5 84.5,91.5 84.5,92.5C 82.8333,92.5 81.1667,92.5 79.5,92.5C 79.5,94.5 79.5,96.5 79.5,98.5C 81.1667,98.5 82.8333,98.5 84.5,98.5C 84.0825,99.2216 83.4158,99.7216 82.5,100C 83.4158,100.278 84.0825,100.778 84.5,101.5C 82.8333,101.5 81.1667,101.5 79.5,101.5C 79.5,103.167 79.5,104.833 79.5,106.5C 81.6208,106.675 83.6208,106.341 85.5,105.5C 84.9935,106.859 83.9935,107.859 82.5,108.5C 83.325,109.386 84.325,109.719 85.5,109.5C 85.8195,114.363 85.4861,119.03 84.5,123.5C 84.0825,124.222 83.4158,124.722 82.5,125C 83.4158,125.278 84.0825,125.778 84.5,126.5C 85.4614,128.265 85.7947,130.265 85.5,132.5C 83.8212,132.285 82.8212,132.952 82.5,134.5C 80.8007,134.527 79.4674,135.194 78.5,136.5C 77.6937,132.957 77.6937,129.457 78.5,126C 78.3958,123.206 77.3958,120.873 75.5,119C 76.448,118.517 77.448,118.351 78.5,118.5C 78.5,112.833 78.5,107.167 78.5,101.5C 78.5,100.167 78.5,98.8333 78.5,97.5C 78.3345,93.4862 78.5012,89.4862 79,85.5C 81.2735,84.1888 83.4402,84.1888 85.5,85.5 Z"/></g>
<g><path style="opacity:1" fill="#3e2f34" d="M 183.5,89.5 C 184.779,90.968 186.446,91.6347 188.5,91.5C 197.288,92.9938 206.288,93.8271 215.5,94C 216.833,94.3333 218.167,94.6667 219.5,95C 220.252,95.6708 220.586,96.5041 220.5,97.5C 219.167,97.5 217.833,97.5 216.5,97.5C 216.215,99.288 216.548,100.955 217.5,102.5C 219.55,103.077 220.55,104.41 220.5,106.5C 217.017,106.673 214.017,105.673 211.5,103.5C 211.833,103.5 212.167,103.5 212.5,103.5C 213.496,103.586 214.329,103.252 215,102.5C 215.497,100.19 215.663,97.8568 215.5,95.5C 213.219,95.0773 211.552,95.744 210.5,97.5C 208.418,97.6243 206.918,98.6243 206,100.5C 205.333,96.5 204.667,96.5 204,100.5C 203.781,99.062 203.281,97.7287 202.5,96.5C 202.167,96.6667 201.833,96.8333 201.5,97C 202.833,98.3333 202.833,99.6667 201.5,101C 203.81,101.497 206.143,101.663 208.5,101.5C 209.167,102.167 209.833,102.833 210.5,103.5C 207.112,102.969 205.112,104.303 204.5,107.5C 203.685,108.429 202.852,109.429 202,110.5C 201.959,105.867 201.125,102.867 199.5,101.5C 200.434,100.432 200.768,99.099 200.5,97.5C 198.459,97.8541 196.626,97.8541 195,97.5C 194.805,98.8193 194.972,100.153 195.5,101.5C 193.626,105.165 192.293,105.165 191.5,101.5C 193.101,102.643 193.767,101.976 193.5,99.5C 193.767,97.0239 193.101,96.3572 191.5,97.5C 191.5,96.1667 191.5,94.8333 191.5,93.5C 188.273,93.3239 185.273,92.6572 182.5,91.5C 183.338,91.1583 183.672,90.4916 183.5,89.5 Z"/></g>
<g><path style="opacity:1" fill="#747070" d="M 84.5,101.5 C 85.4345,102.568 85.7678,103.901 85.5,105.5C 83.6208,106.341 81.6208,106.675 79.5,106.5C 79.5,104.833 79.5,103.167 79.5,101.5C 81.1667,101.5 82.8333,101.5 84.5,101.5 Z"/></g>
<g><path style="opacity:1" fill="#2f2628" d="M 115.5,47.5 C 115.137,91.1664 114.803,134.833 114.5,178.5C 115.5,178.5 116.5,178.5 117.5,178.5C 117.5,177.5 117.5,176.5 117.5,175.5C 118.21,173.107 118.877,170.607 119.5,168C 119.378,149.258 119.378,130.424 119.5,111.5C 120.496,95.6754 120.83,79.6754 120.5,63.5C 120.599,58.5241 120.599,53.8574 120.5,49.5C 122.017,48.2651 123.684,48.2651 125.5,49.5C 126.493,54.1196 126.827,58.7863 126.5,63.5C 126.83,79.6754 126.496,95.6754 125.5,111.5C 125.167,125.516 125.501,139.516 126.5,153.5C 127.392,120.503 128.059,87.5031 128.5,54.5C 128.5,53.1667 129.167,52.5 130.5,52.5C 131.828,56.1703 134.495,57.837 138.5,57.5C 137.935,89.8334 137.768,122.167 138,154.5C 138.5,154 139,153.5 139.5,153C 138.878,151.431 138.544,149.764 138.5,148C 139.179,117.829 139.846,87.6623 140.5,57.5C 152.143,57.8102 163.81,57.4769 175.5,56.5C 172.296,58.3 168.63,59.3 164.5,59.5C 161.343,58.3132 158.343,58.3132 155.5,59.5C 154.561,59.6262 153.561,59.9595 152.5,60.5C 147.281,59.4087 144.281,61.4087 143.5,66.5C 143.898,71.1852 146.232,72.5186 150.5,70.5C 150.264,95.8349 149.931,121.168 149.5,146.5C 149.031,148.995 149.031,151.661 149.5,154.5C 150.5,154.5 151.5,154.5 152.5,154.5C 154.607,155.468 156.941,155.802 159.5,155.5C 159.5,156.833 159.5,158.167 159.5,159.5C 158.167,159.5 156.833,159.5 155.5,159.5C 153.898,157.926 151.898,157.259 149.5,157.5C 149.5,158.5 149.5,159.5 149.5,160.5C 147.648,158.531 144.648,157.531 140.5,157.5C 137.333,157.6 134.333,156.933 131.5,155.5C 130.893,155.624 130.56,155.957 130.5,156.5C 127.046,156.267 126.046,157.6 127.5,160.5C 131.355,163.035 135.688,164.035 140.5,163.5C 140.617,165.484 139.95,167.15 138.5,168.5C 134.895,169.49 131.228,170.156 127.5,170.5C 127.5,171.5 127.5,172.5 127.5,173.5C 132.88,173.676 138.213,173.342 143.5,172.5C 143.222,170.654 143.889,169.32 145.5,168.5C 150.128,170.168 154.794,170.501 159.5,169.5C 159.5,170.833 159.5,172.167 159.5,173.5C 168.357,175.304 177.357,175.971 186.5,175.5C 186.5,177.833 186.5,180.167 186.5,182.5C 160.5,182.5 134.5,182.5 108.5,182.5C 108.002,179.533 107.669,176.533 107.5,173.5C 108.262,152.843 108.762,132.176 109,111.5C 110.469,85.0292 111.469,85.0292 112,111.5C 112.667,95.5 112.667,79.5 112,63.5C 111.641,60.4557 110.974,60.1224 110,62.5C 109.333,59.8333 108.667,59.8333 108,62.5C 107.176,59.1177 107.343,55.7844 108.5,52.5C 110.883,53.462 111.883,52.462 111.5,49.5C 113.199,49.4729 114.533,48.8062 115.5,47.5 Z"/></g>
<g><path style="opacity:1" fill="#27281d" d="M 120.5,63.5 C 120.83,79.6754 120.496,95.6754 119.5,111.5C 118.834,103.674 118.5,95.6738 118.5,87.5C 118.502,79.1376 119.169,71.1376 120.5,63.5 Z"/></g>
<g><path style="opacity:1" fill="#30261b" d="M 125.5,111.5 C 124.085,94.7839 122.752,77.7839 121.5,60.5C 121.692,58.4233 122.192,56.4233 123,54.5C 123.988,57.4245 124.654,60.4245 125,63.5C 125.5,79.4965 125.667,95.4965 125.5,111.5 Z"/></g>
<g><path style="opacity:1" fill="#6b6568" d="M -0.5,111.5 C 3.84611,111.334 8.17944,111.501 12.5,112C 16.2372,112.999 16.2372,114.332 12.5,116C 8.17944,116.499 3.84611,116.666 -0.5,116.5C -0.5,114.833 -0.5,113.167 -0.5,111.5 Z"/></g>
<g><path style="opacity:1" fill="#6c6868" d="M 79.5,110.5 C 81.1667,110.5 82.8333,110.5 84.5,110.5C 84.5,112.167 84.5,113.833 84.5,115.5C 82.8333,115.5 81.1667,115.5 79.5,115.5C 79.5,113.833 79.5,112.167 79.5,110.5 Z"/></g>
<g><path style="opacity:1" fill="#40393a" d="M -0.5,111.5 C -0.5,111.167 -0.5,110.833 -0.5,110.5C 4.84372,110.334 10.1771,110.501 15.5,111C 16.4231,113.041 16.7564,115.208 16.5,117.5C 12.4862,117.334 8.48617,117.501 4.5,118C 5.05596,118.383 5.38929,118.883 5.5,119.5C 3.5,119.5 1.5,119.5 -0.5,119.5C -0.5,118.5 -0.5,117.5 -0.5,116.5C 3.84611,116.666 8.17944,116.499 12.5,116C 16.2372,114.332 16.2372,112.999 12.5,112C 8.17944,111.501 3.84611,111.334 -0.5,111.5 Z"/></g>
<g><path style="opacity:1" fill="#392f2d" d="M 175.5,88.5 C 175.414,89.4959 175.748,90.3292 176.5,91C 178.602,90.744 180.602,90.9107 182.5,91.5C 185.273,92.6572 188.273,93.3239 191.5,93.5C 191.5,94.8333 191.5,96.1667 191.5,97.5C 191.5,98.8333 191.5,100.167 191.5,101.5C 192.293,105.165 193.626,105.165 195.5,101.5C 196.702,100.595 198.036,100.595 199.5,101.5C 201.125,102.867 201.959,105.867 202,110.5C 202.852,109.429 203.685,108.429 204.5,107.5C 204.229,109.38 204.896,110.713 206.5,111.5C 209.167,111.5 211.833,111.5 214.5,111.5C 215.833,111.5 217.167,111.5 218.5,111.5C 222.298,112.483 226.298,112.817 230.5,112.5C 230.577,113.75 231.244,114.583 232.5,115C 235.542,115.178 238.375,116.012 241,117.5C 243.531,115.455 246.365,114.121 249.5,113.5C 255.102,113.852 260.602,113.852 266,113.5C 267.192,107.67 265.025,106.003 259.5,108.5C 257.514,108.213 255.68,107.547 254,106.5C 252.989,107.056 252.156,107.722 251.5,108.5C 250.167,108.5 248.833,108.5 247.5,108.5C 245.956,108.297 244.622,107.63 243.5,106.5C 242.264,107.246 240.93,107.579 239.5,107.5C 239.5,106.5 239.5,105.5 239.5,104.5C 239.917,103.876 240.584,103.543 241.5,103.5C 244.53,104.869 247.697,105.869 251,106.5C 252.085,105.707 253.252,105.04 254.5,104.5C 255.484,101.572 255.817,98.5719 255.5,95.5C 257.604,95.2011 259.604,95.5344 261.5,96.5C 261.023,97.4776 260.357,98.3109 259.5,99C 262.753,100.771 266.086,102.271 269.5,103.5C 270.167,108.833 270.833,108.833 271.5,103.5C 272.5,103.5 273.5,103.5 274.5,103.5C 274.5,129.833 274.5,156.167 274.5,182.5C 255.5,182.5 236.5,182.5 217.5,182.5C 217.696,172.094 217.029,161.76 215.5,151.5C 218.167,151.5 220.833,151.5 223.5,151.5C 223.5,148.833 223.5,146.167 223.5,143.5C 212.679,143.453 202.013,142.787 191.5,141.5C 191.5,140.5 191.5,139.5 191.5,138.5C 193.476,137.573 193.809,136.24 192.5,134.5C 191.459,136.991 190.626,136.991 190,134.5C 189.333,135.833 188.667,135.833 188,134.5C 186.913,136.932 186.413,136.598 186.5,133.5C 188.306,132.976 189.972,132.309 191.5,131.5C 202.875,131.586 214.208,132.253 225.5,133.5C 227.422,133.199 229.088,132.533 230.5,131.5C 232.635,131.853 233.968,131.02 234.5,129C 234.252,127.251 233.252,126.418 231.5,126.5C 230.833,126.5 230.167,126.5 229.5,126.5C 219.449,124.06 209.116,123.06 198.5,123.5C 198.663,121.143 198.497,118.81 198,116.5C 197.586,116.043 197.086,115.709 196.5,115.5C 195.747,118.294 194.747,120.96 193.5,123.5C 192.167,123.5 191.5,122.833 191.5,121.5C 192.993,120.688 193.66,119.355 193.5,117.5C 193.36,115.97 192.693,114.97 191.5,114.5C 190.791,113.596 189.791,113.263 188.5,113.5C 188.91,109.346 188.577,106.679 187.5,105.5C 186.603,104.402 185.77,104.402 185,105.5C 184.505,107.473 184.338,109.473 184.5,111.5C 182.5,111.5 180.5,111.5 178.5,111.5C 178.494,106.785 177.994,102.118 177,97.5C 176.19,105.498 175.857,113.498 176,121.5C 178.016,120.045 178.849,118.045 178.5,115.5C 182.693,115.362 185.027,117.362 185.5,121.5C 183.62,121.229 182.287,121.896 181.5,123.5C 180.833,123.5 180.5,123.833 180.5,124.5C 179.21,125.058 178.377,126.058 178,127.5C 176.796,126.529 176.296,125.529 176.5,124.5C 175.374,125.808 175.374,127.142 176.5,128.5C 173.763,127.969 171.096,127.136 168.5,126C 169.603,124.32 169.27,122.82 167.5,121.5C 168.439,112.877 169.106,104.21 169.5,95.5C 170.552,95.6495 171.552,95.4828 172.5,95C 167.238,89.9619 168.238,87.7953 175.5,88.5 Z"/></g>
<g><path style="opacity:1" fill="#b9b060" d="M 191.5,114.5 C 192.693,114.97 193.36,115.97 193.5,117.5C 193.66,119.355 192.993,120.688 191.5,121.5C 191.5,119.5 191.5,117.5 191.5,115.5C 191.5,115.167 191.5,114.833 191.5,114.5 Z"/></g>
<g><path style="opacity:1" fill="#393d4a" d="M 245.5,109.5 C 245.5,110.5 245.5,111.5 245.5,112.5C 246.833,112.5 248.167,112.5 249.5,112.5C 249.5,112.833 249.5,113.167 249.5,113.5C 246.365,114.121 243.531,115.455 241,117.5C 238.375,116.012 235.542,115.178 232.5,115C 231.244,114.583 230.577,113.75 230.5,112.5C 230.5,111.833 230.5,111.167 230.5,110.5C 230.833,110.5 231.167,110.5 231.5,110.5C 234.037,112.104 236.87,113.437 240,114.5C 241.5,114 243,113.5 244.5,113C 243.446,111.612 243.28,110.112 244,108.5C 244.383,109.056 244.883,109.389 245.5,109.5 Z"/></g>
<g><path style="opacity:1" fill="#3a2c35" d="M 187.5,105.5 C 187.523,110.874 188.023,116.207 189,121.5C 190.019,119.498 190.852,117.498 191.5,115.5C 191.5,117.5 191.5,119.5 191.5,121.5C 191.5,122.833 192.167,123.5 193.5,123.5C 192.866,124.947 191.699,125.613 190,125.5C 187.178,124.725 184.344,124.058 181.5,123.5C 182.287,121.896 183.62,121.229 185.5,121.5C 185.027,117.362 182.693,115.362 178.5,115.5C 178.849,118.045 178.016,120.045 176,121.5C 175.857,113.498 176.19,105.498 177,97.5C 177.994,102.118 178.494,106.785 178.5,111.5C 180.5,111.5 182.5,111.5 184.5,111.5C 184.338,109.473 184.505,107.473 185,105.5C 185.77,104.402 186.603,104.402 187.5,105.5 Z"/></g>
<g><path style="opacity:1" fill="#6c5566" d="M 191.5,114.5 C 191.5,114.833 191.5,115.167 191.5,115.5C 190.852,117.498 190.019,119.498 189,121.5C 188.023,116.207 187.523,110.874 187.5,105.5C 188.577,106.679 188.91,109.346 188.5,113.5C 189.791,113.263 190.791,113.596 191.5,114.5 Z"/></g>
<g><path style="opacity:1" fill="#a1a5af" d="M 249.5,113.5 C 249.5,113.167 249.5,112.833 249.5,112.5C 253.833,112.5 258.167,112.5 262.5,112.5C 262.5,111.5 262.5,110.5 262.5,109.5C 259.606,109.042 257.106,109.709 255,111.5C 254.333,106.167 253.667,106.167 253,111.5C 252.487,110.473 251.987,109.473 251.5,108.5C 252.156,107.722 252.989,107.056 254,106.5C 255.68,107.547 257.514,108.213 259.5,108.5C 265.025,106.003 267.192,107.67 266,113.5C 260.602,113.852 255.102,113.852 249.5,113.5 Z"/></g>
<g><path style="opacity:1" fill="#e5e0e4" d="M 249.5,112.5 C 248.167,112.5 246.833,112.5 245.5,112.5C 245.5,111.5 245.5,110.5 245.5,109.5C 246.492,109.672 247.158,109.338 247.5,108.5C 248.833,108.5 250.167,108.5 251.5,108.5C 251.987,109.473 252.487,110.473 253,111.5C 253.667,106.167 254.333,106.167 255,111.5C 257.106,109.709 259.606,109.042 262.5,109.5C 262.5,110.5 262.5,111.5 262.5,112.5C 258.167,112.5 253.833,112.5 249.5,112.5 Z"/></g>
<g><path style="opacity:1" fill="#8c7260" d="M 223.5,106.5 C 224.167,106.5 224.5,106.833 224.5,107.5C 224.5,108.833 224.5,110.167 224.5,111.5C 225.5,111.5 226.5,111.5 227.5,111.5C 227.5,110.5 227.5,109.5 227.5,108.5C 228.222,109.551 229.222,110.218 230.5,110.5C 230.5,111.167 230.5,111.833 230.5,112.5C 226.298,112.817 222.298,112.483 218.5,111.5C 220.167,111.5 221.833,111.5 223.5,111.5C 223.5,109.833 223.5,108.167 223.5,106.5 Z"/></g>
<g><path style="opacity:1" fill="#e1c2a0" d="M 223.5,106.5 C 223.5,108.167 223.5,109.833 223.5,111.5C 221.833,111.5 220.167,111.5 218.5,111.5C 217.167,111.5 215.833,111.5 214.5,111.5C 214.611,110.883 214.944,110.383 215.5,110C 213.772,110.353 212.106,110.519 210.5,110.5C 209.459,108.009 208.626,108.009 208,110.5C 207.577,109.044 206.744,108.544 205.5,109C 206.252,109.671 206.586,110.504 206.5,111.5C 204.896,110.713 204.229,109.38 204.5,107.5C 205.15,107.196 205.817,106.863 206.5,106.5C 211.365,107.142 216.199,107.808 221,108.5C 221.417,107.244 222.25,106.577 223.5,106.5 Z"/></g>
<g><path style="opacity:1" fill="#af9157" d="M 214.5,111.5 C 211.833,111.5 209.167,111.5 206.5,111.5C 206.586,110.504 206.252,109.671 205.5,109C 206.744,108.544 207.577,109.044 208,110.5C 208.626,108.009 209.459,108.009 210.5,110.5C 212.106,110.519 213.772,110.353 215.5,110C 214.944,110.383 214.611,110.883 214.5,111.5 Z"/></g>
<g><path style="opacity:1" fill="#96b3d3" d="M 239.5,107.5 C 240.93,107.579 242.264,107.246 243.5,106.5C 244.622,107.63 245.956,108.297 247.5,108.5C 247.158,109.338 246.492,109.672 245.5,109.5C 244.883,109.389 244.383,109.056 244,108.5C 243.28,110.112 243.446,111.612 244.5,113C 243,113.5 241.5,114 240,114.5C 236.87,113.437 234.037,112.104 231.5,110.5C 231.286,106.743 232.286,106.076 234.5,108.5C 236.071,107.691 237.738,107.357 239.5,107.5 Z"/></g>
<g><path style="opacity:1" fill="#e6ccaa" d="M 224.5,107.5 C 225.791,107.263 226.791,107.596 227.5,108.5C 227.5,109.5 227.5,110.5 227.5,111.5C 226.5,111.5 225.5,111.5 224.5,111.5C 224.5,110.167 224.5,108.833 224.5,107.5 Z"/></g>
<g><path style="opacity:1" fill="#432d43" d="M 239.5,104.5 C 239.5,105.5 239.5,106.5 239.5,107.5C 237.738,107.357 236.071,107.691 234.5,108.5C 232.286,106.076 231.286,106.743 231.5,110.5C 231.167,110.5 230.833,110.5 230.5,110.5C 227.98,105.851 226.98,100.851 227.5,95.5C 229.167,95.5 230.833,95.5 232.5,95.5C 232.335,98.5184 232.502,101.518 233,104.5C 234.995,103.834 237.162,103.834 239.5,104.5 Z"/></g>
<g><path style="opacity:1" fill="#af9360" d="M 221.5,97.5 C 222.167,97.5 222.833,97.5 223.5,97.5C 224.626,98.8583 224.626,100.192 223.5,101.5C 221.674,101.92 219.674,101.92 217.5,101.5C 217.5,100.5 217.5,99.5 217.5,98.5C 219.099,98.7678 220.432,98.4345 221.5,97.5 Z"/></g>
<g><path style="opacity:1" fill="#a8739e" d="M 191.5,101.5 C 191.5,100.167 191.5,98.8333 191.5,97.5C 193.101,96.3572 193.767,97.0239 193.5,99.5C 193.767,101.976 193.101,102.643 191.5,101.5 Z"/></g>
<g><path style="opacity:1" fill="#b678a9" d="M 229.5,96.5 C 230.376,96.3691 231.043,96.7025 231.5,97.5C 230.959,99.5352 230.292,101.535 229.5,103.5C 228.286,101.141 228.286,98.808 229.5,96.5 Z"/></g>
<g><path style="opacity:1" fill="#d1bfd2" d="M 210.5,97.5 C 210.843,99.4832 210.176,100.817 208.5,101.5C 206.143,101.663 203.81,101.497 201.5,101C 202.833,99.6667 202.833,98.3333 201.5,97C 201.833,96.8333 202.167,96.6667 202.5,96.5C 203.281,97.7287 203.781,99.062 204,100.5C 204.667,96.5 205.333,96.5 206,100.5C 206.918,98.6243 208.418,97.6243 210.5,97.5 Z"/></g>
<g><path style="opacity:1" fill="#bdb2b7" d="M 199.5,101.5 C 198.036,100.595 196.702,100.595 195.5,101.5C 194.972,100.153 194.805,98.8193 195,97.5C 196.626,97.8541 198.459,97.8541 200.5,97.5C 200.768,99.099 200.434,100.432 199.5,101.5 Z"/></g>
<g><path style="opacity:1" fill="#b4a16f" d="M 189.5,95.5 C 190.797,97.6934 190.797,100.027 189.5,102.5C 188.286,100.141 188.286,97.808 189.5,95.5 Z"/></g>
<g><path style="opacity:1" fill="#552b4d" d="M 212.5,103.5 C 213.714,101.192 213.714,98.8587 212.5,96.5C 212.723,98.7382 212.39,101.072 211.5,103.5C 211.167,103.5 210.833,103.5 210.5,103.5C 209.833,102.833 209.167,102.167 208.5,101.5C 210.176,100.817 210.843,99.4832 210.5,97.5C 211.552,95.744 213.219,95.0773 215.5,95.5C 215.663,97.8568 215.497,100.19 215,102.5C 214.329,103.252 213.496,103.586 212.5,103.5 Z"/></g>
<g><path style="opacity:1" fill="#b480af" d="M 212.5,103.5 C 212.167,103.5 211.833,103.5 211.5,103.5C 212.39,101.072 212.723,98.7382 212.5,96.5C 213.714,98.8587 213.714,101.192 212.5,103.5 Z"/></g>
<g><path style="opacity:1" fill="#696565" d="M 84.5,123.5 C 82.8333,123.5 81.1667,123.5 79.5,123.5C 79.5,121.833 79.5,120.167 79.5,118.5C 81.1667,118.5 82.8333,118.5 84.5,118.5C 84.5,120.167 84.5,121.833 84.5,123.5 Z"/></g>
<g><path style="opacity:1" fill="#584f56" d="M 150.5,67.5 C 151.498,93.6614 151.831,119.995 151.5,146.5C 150.833,146.5 150.167,146.5 149.5,146.5C 149.931,121.168 150.264,95.8349 150.5,70.5C 150.5,69.5 150.5,68.5 150.5,67.5 Z"/></g>
<g><path style="opacity:1" fill="#5f5a57" d="M -0.5,119.5 C 1.5,119.5 3.5,119.5 5.5,119.5C 7.80562,119.993 10.139,120.326 12.5,120.5C 12.7394,122.467 12.4061,124.301 11.5,126C 7.48957,126.357 3.48957,126.19 -0.5,125.5C -0.5,123.5 -0.5,121.5 -0.5,119.5 Z"/></g>
<g><path style="opacity:1" fill="#432637" d="M 229.5,126.5 C 221.056,126.975 212.723,126.308 204.5,124.5C 202.201,124.599 200.201,125.266 198.5,126.5C 196.515,125.953 194.849,124.953 193.5,123.5C 194.747,120.96 195.747,118.294 196.5,115.5C 197.086,115.709 197.586,116.043 198,116.5C 198.497,118.81 198.663,121.143 198.5,123.5C 209.116,123.06 219.449,124.06 229.5,126.5 Z"/></g>
<g><path style="opacity:1" fill="#676262" d="M 84.5,126.5 C 84.5,128.167 84.5,129.833 84.5,131.5C 82.8333,131.5 81.1667,131.5 79.5,131.5C 79.5,129.833 79.5,128.167 79.5,126.5C 81.1667,126.5 82.8333,126.5 84.5,126.5 Z"/></g>
<g><path style="opacity:1" fill="#52494c" d="M 138.5,57.5 C 139.167,57.5 139.833,57.5 140.5,57.5C 139.846,87.6623 139.179,117.829 138.5,148C 138.544,149.764 138.878,151.431 139.5,153C 139,153.5 138.5,154 138,154.5C 137.768,122.167 137.935,89.8334 138.5,57.5 Z"/></g>
<g><path style="opacity:1" fill="#462634" d="M 200.5,129.5 C 206.227,129.897 211.894,130.231 217.5,130.5C 219.5,130.5 221.5,130.5 223.5,130.5C 226.007,131.898 228.34,131.564 230.5,129.5C 230.5,130.167 230.5,130.833 230.5,131.5C 229.088,132.533 227.422,133.199 225.5,133.5C 214.208,132.253 202.875,131.586 191.5,131.5C 188.289,131.988 185.456,131.321 183,129.5C 181.841,130.566 181.008,130.233 180.5,128.5C 182.585,127.65 184.585,127.316 186.5,127.5C 191.02,129.114 195.687,129.78 200.5,129.5 Z"/></g>
<g><path style="opacity:1" fill="#c4779f" d="M 180.5,124.5 C 180.5,123.833 180.833,123.5 181.5,123.5C 184.344,124.058 187.178,124.725 190,125.5C 191.699,125.613 192.866,124.947 193.5,123.5C 194.849,124.953 196.515,125.953 198.5,126.5C 198.782,127.778 199.449,128.778 200.5,129.5C 195.687,129.78 191.02,129.114 186.5,127.5C 184.585,127.316 182.585,127.65 180.5,128.5C 181.686,127.039 181.686,125.705 180.5,124.5 Z"/></g>
<g><path style="opacity:1" fill="#b56792" d="M 229.5,126.5 C 230.167,126.5 230.833,126.5 231.5,126.5C 231.737,127.791 231.404,128.791 230.5,129.5C 228.34,131.564 226.007,131.898 223.5,130.5C 225.124,130.64 226.29,129.973 227,128.5C 227.333,129.167 227.667,129.833 228,130.5C 228.5,129.333 229.333,128.5 230.5,128C 226.179,127.501 221.846,127.334 217.5,127.5C 217.5,128.5 217.5,129.5 217.5,130.5C 211.894,130.231 206.227,129.897 200.5,129.5C 199.449,128.778 198.782,127.778 198.5,126.5C 200.201,125.266 202.201,124.599 204.5,124.5C 212.723,126.308 221.056,126.975 229.5,126.5 Z"/></g>
<g><path style="opacity:1" fill="#f28cc7" d="M 223.5,130.5 C 221.5,130.5 219.5,130.5 217.5,130.5C 217.5,129.5 217.5,128.5 217.5,127.5C 221.846,127.334 226.179,127.501 230.5,128C 229.333,128.5 228.5,129.333 228,130.5C 227.667,129.833 227.333,129.167 227,128.5C 226.29,129.973 225.124,130.64 223.5,130.5 Z"/></g>
<g><path style="opacity:1" fill="#cea49e" d="M 231.5,126.5 C 233.252,126.418 234.252,127.251 234.5,129C 233.968,131.02 232.635,131.853 230.5,131.5C 230.5,130.833 230.5,130.167 230.5,129.5C 231.404,128.791 231.737,127.791 231.5,126.5 Z"/></g>
<g><path style="opacity:1" fill="#676e7c" d="M 137.5,33.5 C 137.5,35.5 137.5,37.5 137.5,39.5C 135.167,39.5 132.833,39.5 130.5,39.5C 128.517,39.1568 127.183,39.8235 126.5,41.5C 123.833,41.5 121.167,41.5 118.5,41.5C 118.5,44.1667 118.5,46.8333 118.5,49.5C 116.814,91.3418 116.481,133.342 117.5,175.5C 117.5,176.5 117.5,177.5 117.5,178.5C 116.5,178.5 115.5,178.5 114.5,178.5C 114.803,134.833 115.137,91.1664 115.5,47.5C 115.279,44.7212 115.612,42.0545 116.5,39.5C 119.385,39.8064 122.052,39.4731 124.5,38.5C 127.5,38.5 130.5,38.5 133.5,38.5C 134.5,38.5 135.5,38.5 136.5,38.5C 136.216,36.5853 136.549,34.9187 137.5,33.5 Z"/></g>
<g><path style="opacity:1" fill="#262833" d="M 118.5,49.5 C 119.167,49.5 119.833,49.5 120.5,49.5C 120.599,53.8574 120.599,58.5241 120.5,63.5C 119.169,71.1376 118.502,79.1376 118.5,87.5C 118.5,95.6738 118.834,103.674 119.5,111.5C 119.378,130.424 119.378,149.258 119.5,168C 118.877,170.607 118.21,173.107 117.5,175.5C 116.481,133.342 116.814,91.3418 118.5,49.5 Z"/></g>
<g><path style="opacity:1" fill="#474451" d="M 128.5,54.5 C 128.059,87.5031 127.392,120.503 126.5,153.5C 125.501,139.516 125.167,125.516 125.5,111.5C 126.496,95.6754 126.83,79.6754 126.5,63.5C 127.167,60.5 127.833,57.5 128.5,54.5 Z"/></g>
<g><path style="opacity:1" fill="#b3a289" d="M 186.5,133.5 C 186.413,136.598 186.913,136.932 188,134.5C 188.667,135.833 189.333,135.833 190,134.5C 190.626,136.991 191.459,136.991 192.5,134.5C 193.809,136.24 193.476,137.573 191.5,138.5C 189.745,138.324 187.912,138.324 186,138.5C 183.684,138.066 181.684,137.066 180,135.5C 178.026,138.118 176.193,137.952 174.5,135C 175.025,134.308 175.692,133.808 176.5,133.5C 176.296,134.529 176.796,135.529 178,136.5C 178.583,134.998 179.416,133.665 180.5,132.5C 182.537,132.498 184.537,132.832 186.5,133.5 Z"/></g>
<g><path style="opacity:1" fill="#6b6263" d="M -0.5,137.5 C 2.8499,137.335 6.18323,137.502 9.5,138C 11.4386,138.908 12.4386,140.408 12.5,142.5C 8.16667,142.5 3.83333,142.5 -0.5,142.5C -0.5,140.833 -0.5,139.167 -0.5,137.5 Z"/></g>
<g><path style="opacity:1" fill="#656061" d="M 82.5,134.5 C 85.2941,135.585 85.9608,137.418 84.5,140C 80.7796,141.392 78.7796,140.225 78.5,136.5C 79.4674,135.194 80.8007,134.527 82.5,134.5 Z"/></g>
<g><path style="opacity:1" fill="#3f3637" d="M -0.5,127.5 C 2.27065,127.421 4.93731,127.921 7.5,129C 8.41773,131.133 8.5844,133.3 8,135.5C 9.69946,136.406 11.5328,136.739 13.5,136.5C 13.8076,138.924 13.4742,141.257 12.5,143.5C 10.3576,144.437 10.0243,145.77 11.5,147.5C 7.69952,145.857 3.69952,145.19 -0.5,145.5C -0.5,144.5 -0.5,143.5 -0.5,142.5C 3.83333,142.5 8.16667,142.5 12.5,142.5C 12.4386,140.408 11.4386,138.908 9.5,138C 6.18323,137.502 2.8499,137.335 -0.5,137.5C -0.5,134.167 -0.5,130.833 -0.5,127.5 Z"/></g>
<g><path style="opacity:1" fill="#352c2d" d="M 198.5,63.5 C 198.5,63.1667 198.5,62.8333 198.5,62.5C 201.125,63.4577 201.125,64.6243 198.5,66C 198.833,66.3333 199.167,66.6667 199.5,67C 196.305,67.1805 193.305,67.6805 190.5,68.5C 188.143,68.3367 185.81,68.5034 183.5,69C 182.754,71.0932 182.421,73.0932 182.5,75C 177.113,75.7845 171.78,75.6178 166.5,74.5C 163.668,76.1665 161.335,78.3332 159.5,81C 159.645,81.772 159.978,82.4387 160.5,83C 166.922,83.8494 173.256,85.0161 179.5,86.5C 178.329,87.3446 176.995,88.0113 175.5,88.5C 168.238,87.7953 167.238,89.9619 172.5,95C 171.552,95.4828 170.552,95.6495 169.5,95.5C 169.106,104.21 168.439,112.877 167.5,121.5C 169.27,122.82 169.603,124.32 168.5,126C 171.096,127.136 173.763,127.969 176.5,128.5C 179.142,128.512 180.475,127.179 180.5,124.5C 181.686,125.705 181.686,127.039 180.5,128.5C 181.008,130.233 181.841,130.566 183,129.5C 185.456,131.321 188.289,131.988 191.5,131.5C 189.972,132.309 188.306,132.976 186.5,133.5C 184.537,132.832 182.537,132.498 180.5,132.5C 179.416,133.665 178.583,134.998 178,136.5C 176.796,135.529 176.296,134.529 176.5,133.5C 175.692,133.808 175.025,134.308 174.5,135C 176.193,137.952 178.026,138.118 180,135.5C 181.684,137.066 183.684,138.066 186,138.5C 187.912,138.324 189.745,138.324 191.5,138.5C 191.5,139.5 191.5,140.5 191.5,141.5C 202.013,142.787 212.679,143.453 223.5,143.5C 223.5,146.167 223.5,148.833 223.5,151.5C 220.833,151.5 218.167,151.5 215.5,151.5C 217.029,161.76 217.696,172.094 217.5,182.5C 207.167,182.5 196.833,182.5 186.5,182.5C 186.5,180.167 186.5,177.833 186.5,175.5C 177.357,175.971 168.357,175.304 159.5,173.5C 159.5,172.167 159.5,170.833 159.5,169.5C 154.794,170.501 150.128,170.168 145.5,168.5C 143.889,169.32 143.222,170.654 143.5,172.5C 138.213,173.342 132.88,173.676 127.5,173.5C 127.5,172.5 127.5,171.5 127.5,170.5C 131.228,170.156 134.895,169.49 138.5,168.5C 139.95,167.15 140.617,165.484 140.5,163.5C 148.175,164.427 155.842,165.427 163.5,166.5C 167.257,165.963 170.924,165.963 174.5,166.5C 175.298,166.043 175.631,165.376 175.5,164.5C 177.466,163.745 177.8,162.579 176.5,161C 172.605,159.734 168.605,159.234 164.5,159.5C 163.5,159.5 162.5,159.5 161.5,159.5C 163.932,158.042 166.599,156.875 169.5,156C 170.985,154.244 170.652,153.077 168.5,152.5C 168.027,151.094 167.027,150.427 165.5,150.5C 165.351,149.448 165.517,148.448 166,147.5C 167.545,147.366 169.212,147.7 171,148.5C 172.684,148.317 172.85,147.65 171.5,146.5C 172.5,146.5 173.5,146.5 174.5,146.5C 175.052,148.703 176.385,149.536 178.5,149C 180.965,148.368 182.631,146.868 183.5,144.5C 182.675,143.614 181.675,143.281 180.5,143.5C 180.5,142.833 180.167,142.5 179.5,142.5C 173.231,139.241 166.564,138.575 159.5,140.5C 159.574,145.82 156.907,147.82 151.5,146.5C 151.831,119.995 151.498,93.6614 150.5,67.5C 150.56,66.9569 150.893,66.6236 151.5,66.5C 152.243,67.9079 153.077,69.2412 154,70.5C 155.395,69.1854 156.395,69.5188 157,71.5C 157.354,69.1925 158.354,68.8592 160,70.5C 161.835,68.916 163.835,67.5827 166,66.5C 170.413,67.6324 174.913,67.7991 179.5,67C 186.239,66.2188 192.906,65.2188 199.5,64C 199.272,63.6012 198.938,63.4346 198.5,63.5 Z"/></g>
<g><path style="opacity:1" fill="#a99e8a" d="M 179.5,142.5 C 180.167,142.5 180.5,142.833 180.5,143.5C 180.332,146.051 179.332,146.718 177.5,145.5C 178.167,144.5 178.833,143.5 179.5,142.5 Z"/></g>
<g><path style="opacity:1" fill="#bcb09e" d="M 180.5,124.5 C 180.475,127.179 179.142,128.512 176.5,128.5C 175.374,127.142 175.374,125.808 176.5,124.5C 176.296,125.529 176.796,126.529 178,127.5C 178.377,126.058 179.21,125.058 180.5,124.5 Z"/></g>
<g><path style="opacity:1" fill="#675e61" d="M 162.5,84.5 C 163.827,102.338 163.827,120.338 162.5,138.5C 162.456,120.629 162.456,102.629 162.5,84.5 Z"/></g>
<g><path style="opacity:1" fill="#ad7899" d="M 176.5,68.5 C 177.268,69.2625 177.768,70.2625 178,71.5C 178.965,69.7397 180.132,69.4063 181.5,70.5C 180.359,71.4255 180.359,72.2588 181.5,73C 179.866,73.4935 178.199,73.6602 176.5,73.5C 176.5,71.8333 176.5,70.1667 176.5,68.5 Z"/></g>
<g><path style="opacity:1" fill="#9d748a" d="M 169.5,69.5 C 171.092,68.3984 171.925,69.065 172,71.5C 172.639,68.7723 173.806,68.2723 175.5,70C 174.663,71.0113 174.33,72.1779 174.5,73.5C 173.167,73.5 171.833,73.5 170.5,73.5C 170.567,72.0413 170.234,70.7079 169.5,69.5 Z"/></g>
<g><path style="opacity:1" fill="#b8a0a4" d="M 169.5,69.5 C 168.732,70.2625 168.232,71.2625 168,72.5C 166.866,68.8601 165.866,69.1935 165,73.5C 163.049,71.8629 163.216,70.3629 165.5,69C 167.066,68.235 168.399,68.4017 169.5,69.5 Z"/></g>
<g><path style="opacity:1" fill="#625d60" d="M 84.5,142.5 C 84.5,144.5 84.5,146.5 84.5,148.5C 80.7593,149.401 78.7593,148.068 78.5,144.5C 80.1137,142.925 82.1137,142.259 84.5,142.5 Z"/></g>
<g><path style="opacity:1" fill="#3a2f23" d="M 179.5,142.5 C 178.833,143.5 178.167,144.5 177.5,145.5C 179.332,146.718 180.332,146.051 180.5,143.5C 181.675,143.281 182.675,143.614 183.5,144.5C 182.631,146.868 180.965,148.368 178.5,149C 176.385,149.536 175.052,148.703 174.5,146.5C 173.815,144.586 173.315,142.586 173,140.5C 172.667,141.167 172.333,141.833 172,142.5C 171.014,141.829 169.847,141.829 168.5,142.5C 168.351,143.552 168.517,144.552 169,145.5C 169.951,145.884 170.784,146.217 171.5,146.5C 172.85,147.65 172.684,148.317 171,148.5C 169.212,147.7 167.545,147.366 166,147.5C 165.517,148.448 165.351,149.448 165.5,150.5C 164.5,150.5 163.5,150.5 162.5,150.5C 162.561,155.322 163.727,155.655 166,151.5C 165.038,156.24 165.872,156.574 168.5,152.5C 170.652,153.077 170.985,154.244 169.5,156C 166.599,156.875 163.932,158.042 161.5,159.5C 160.833,159.5 160.167,159.5 159.5,159.5C 159.5,158.167 159.5,156.833 159.5,155.5C 156.941,155.802 154.607,155.468 152.5,154.5C 151.5,154.5 150.5,154.5 149.5,154.5C 149.031,151.661 149.031,148.995 149.5,146.5C 150.167,146.5 150.833,146.5 151.5,146.5C 156.907,147.82 159.574,145.82 159.5,140.5C 166.564,138.575 173.231,139.241 179.5,142.5 Z"/></g>
<g><path style="opacity:1" fill="#ccbfa0" d="M 177.5,145.5 C 175.425,146.155 174.592,145.155 175,142.5C 175.667,143.833 176.333,143.833 177,142.5C 177.483,143.448 177.649,144.448 177.5,145.5 Z"/></g>
<g><path style="opacity:1" fill="#c5b9a0" d="M 174.5,146.5 C 173.5,146.5 172.5,146.5 171.5,146.5C 170.784,146.217 169.951,145.884 169,145.5C 168.517,144.552 168.351,143.552 168.5,142.5C 169.847,141.829 171.014,141.829 172,142.5C 172.333,141.833 172.667,141.167 173,140.5C 173.315,142.586 173.815,144.586 174.5,146.5 Z"/></g>
<g><path style="opacity:1" fill="#b7ae9c" d="M 168.5,142.5 C 167.521,143.765 166.521,145.099 165.5,146.5C 162.274,145.123 161.941,143.457 164.5,141.5C 164.911,142.262 165.077,143.262 165,144.5C 166,143.167 167,141.833 168,140.5C 168.464,141.094 168.631,141.761 168.5,142.5 Z"/></g>
<g><path style="opacity:1" fill="#5b5253" d="M -0.5,145.5 C 3.69952,145.19 7.69952,145.857 11.5,147.5C 12.8009,148.884 12.8009,150.384 11.5,152C 7.44602,152.694 3.44602,152.527 -0.5,151.5C -0.5,149.5 -0.5,147.5 -0.5,145.5 Z"/></g>
<g><path style="opacity:1" fill="#aba084" d="M 152.5,154.5 C 150.59,153.316 150.257,151.816 151.5,150C 152.449,149.383 153.282,149.549 154,150.5C 155,147.833 156,147.833 157,150.5C 158.049,148.893 159.549,148.227 161.5,148.5C 161.5,150.5 161.5,152.5 161.5,154.5C 158.453,155.145 156.287,154.145 155,151.5C 154.623,152.942 153.79,153.942 152.5,154.5 Z"/></g>
<g><path style="opacity:1" fill="#a99e8b" d="M 165.5,150.5 C 167.027,150.427 168.027,151.094 168.5,152.5C 165.872,156.574 165.038,156.24 166,151.5C 163.727,155.655 162.561,155.322 162.5,150.5C 163.5,150.5 164.5,150.5 165.5,150.5 Z"/></g>
<g><path style="opacity:1" fill="#6d686d" d="M 79.5,150.5 C 81.1667,151.167 82.8333,151.833 84.5,152.5C 84.5,153.833 84.5,155.167 84.5,156.5C 82.8333,156.5 81.1667,156.5 79.5,156.5C 79.5,154.5 79.5,152.5 79.5,150.5 Z"/></g>
<g><path style="opacity:1" fill="#6b6263" d="M -0.5,154.5 C 3.3352,154.417 7.00187,155.083 10.5,156.5C 10.5,157.5 10.5,158.5 10.5,159.5C 6.83333,159.5 3.16667,159.5 -0.5,159.5C -0.5,157.833 -0.5,156.167 -0.5,154.5 Z"/></g>
<g><path style="opacity:1" fill="#3f3738" d="M 84.5,142.5 C 85.0082,144.842 86.0082,147.009 87.5,149C 84.6353,149.183 81.9686,149.683 79.5,150.5C 79.5,152.5 79.5,154.5 79.5,156.5C 81.1667,156.5 82.8333,156.5 84.5,156.5C 84.5,155.167 84.5,153.833 84.5,152.5C 85.3063,153.868 86.3063,155.201 87.5,156.5C 86.675,157.386 85.675,157.719 84.5,157.5C 84.5,160.167 84.5,162.833 84.5,165.5C 82.5,165.5 80.5,165.5 78.5,165.5C 77.9678,160.105 77.9678,154.772 78.5,149.5C 77.3002,148.708 75.9669,148.708 74.5,149.5C 75.4602,147.539 76.7935,145.873 78.5,144.5C 78.7593,148.068 80.7593,149.401 84.5,148.5C 84.5,146.5 84.5,144.5 84.5,142.5 Z"/></g>
<g><path style="opacity:1" fill="#bf9982" d="M 130.5,156.5 C 130.5,157.167 130.5,157.833 130.5,158.5C 130.179,160.048 129.179,160.715 127.5,160.5C 126.046,157.6 127.046,156.267 130.5,156.5 Z"/></g>
<g><path style="opacity:1" fill="#d17aa3" d="M 140.5,157.5 C 141.635,158.474 142.635,159.641 143.5,161C 142.906,161.464 142.239,161.631 141.5,161.5C 138.455,161.492 135.455,161.159 132.5,160.5C 132.869,158.007 132.203,157.34 130.5,158.5C 130.5,157.833 130.5,157.167 130.5,156.5C 130.56,155.957 130.893,155.624 131.5,155.5C 134.333,156.933 137.333,157.6 140.5,157.5 Z"/></g>
<g><path style="opacity:1" fill="#d477ac" d="M 155.5,159.5 C 156.833,159.5 158.167,159.5 159.5,159.5C 160.167,159.5 160.833,159.5 161.5,159.5C 162.5,159.5 163.5,159.5 164.5,159.5C 166.265,160.461 168.265,160.795 170.5,160.5C 170.741,163.999 169.908,164.332 168,161.5C 167.292,162.381 166.458,163.047 165.5,163.5C 163.599,163.433 161.766,163.767 160,164.5C 157.815,164.302 156.315,163.302 155.5,161.5C 155.082,160.778 154.416,160.278 153.5,160C 154.094,159.536 154.761,159.369 155.5,159.5 Z"/></g>
<g><path style="opacity:1" fill="#915b77" d="M 140.5,157.5 C 144.648,157.531 147.648,158.531 149.5,160.5C 149.5,159.5 149.5,158.5 149.5,157.5C 151.898,157.259 153.898,157.926 155.5,159.5C 154.761,159.369 154.094,159.536 153.5,160C 154.416,160.278 155.082,160.778 155.5,161.5C 151.316,162.109 146.649,162.109 141.5,161.5C 142.239,161.631 142.906,161.464 143.5,161C 142.635,159.641 141.635,158.474 140.5,157.5 Z"/></g>
<g><path style="opacity:1" fill="#362d2d" d="M 10.5,156.5 C 13.6222,157.085 14.2889,158.752 12.5,161.5C 13.3998,163.239 14.0665,165.072 14.5,167C 14.6134,168.699 13.9468,169.866 12.5,170.5C 9.61456,170.806 6.9479,170.473 4.5,169.5C 7.1873,169.664 9.85397,169.497 12.5,169C 13.731,167.817 13.731,166.651 12.5,165.5C 8.23138,164.462 3.89805,163.795 -0.5,163.5C -0.5,162.167 -0.5,160.833 -0.5,159.5C 3.16667,159.5 6.83333,159.5 10.5,159.5C 10.5,158.5 10.5,157.5 10.5,156.5 Z"/></g>
<g><path style="opacity:1" fill="#8b586f" d="M 164.5,159.5 C 168.605,159.234 172.605,159.734 176.5,161C 177.8,162.579 177.466,163.745 175.5,164.5C 171.958,164.813 168.625,164.479 165.5,163.5C 166.458,163.047 167.292,162.381 168,161.5C 169.908,164.332 170.741,163.999 170.5,160.5C 168.265,160.795 166.265,160.461 164.5,159.5 Z"/></g>
<g><path style="opacity:1" fill="#412433" d="M 141.5,161.5 C 146.649,162.109 151.316,162.109 155.5,161.5C 156.315,163.302 157.815,164.302 160,164.5C 161.766,163.767 163.599,163.433 165.5,163.5C 168.625,164.479 171.958,164.813 175.5,164.5C 175.631,165.376 175.298,166.043 174.5,166.5C 170.924,165.963 167.257,165.963 163.5,166.5C 155.842,165.427 148.175,164.427 140.5,163.5C 135.688,164.035 131.355,163.035 127.5,160.5C 129.179,160.715 130.179,160.048 130.5,158.5C 132.203,157.34 132.869,158.007 132.5,160.5C 135.455,161.159 138.455,161.492 141.5,161.5 Z"/></g>
<g><path style="opacity:1" fill="#5e5858" d="M -0.5,163.5 C 3.89805,163.795 8.23138,164.462 12.5,165.5C 13.731,166.651 13.731,167.817 12.5,169C 9.85397,169.497 7.1873,169.664 4.5,169.5C 2.83333,169.5 1.16667,169.5 -0.5,169.5C -0.5,167.5 -0.5,165.5 -0.5,163.5 Z"/></g>
<g><path style="opacity:1" fill="#1f312c" d="M -0.5,169.5 C 1.16667,169.5 2.83333,169.5 4.5,169.5C 6.9479,170.473 9.61456,170.806 12.5,170.5C 14.8281,171.718 17.3281,172.718 20,173.5C 20.7796,175.387 20.6129,177.054 19.5,178.5C 19.7148,176.821 19.0481,175.821 17.5,175.5C 11.8767,172.857 5.87665,171.857 -0.5,172.5C -0.5,171.5 -0.5,170.5 -0.5,169.5 Z"/></g>
<g><path style="opacity:1" fill="#6f6668" d="M 79.5,167.5 C 81.1667,167.5 82.8333,167.5 84.5,167.5C 84.5,169.5 84.5,171.5 84.5,173.5C 82.5,173.5 80.5,173.5 78.5,173.5C 78.5172,171.435 78.8505,169.435 79.5,167.5 Z"/></g>
<g><path style="opacity:1" fill="#0f8675" d="M -0.5,172.5 C 5.87665,171.857 11.8767,172.857 17.5,175.5C 17.5,176.5 17.5,177.5 17.5,178.5C 11.477,178.498 5.47704,178.165 -0.5,177.5C -0.5,175.833 -0.5,174.167 -0.5,172.5 Z"/></g>
<g><path style="opacity:1" fill="#7d7275" d="M 79.5,176.5 C 81.1667,176.5 82.8333,176.5 84.5,176.5C 84.5,177.833 84.5,179.167 84.5,180.5C 82.8333,180.5 81.1667,180.5 79.5,180.5C 79.5,179.167 79.5,177.833 79.5,176.5 Z"/></g>
<g><path style="opacity:1" fill="#60305f" d="M 103.5,175.5 C 104.167,175.5 104.833,175.5 105.5,175.5C 106.468,177.607 106.802,179.941 106.5,182.5C 105.5,182.5 104.5,182.5 103.5,182.5C 103.5,180.167 103.5,177.833 103.5,175.5 Z"/></g>
<g><path style="opacity:1" fill="#195d51" d="M 17.5,175.5 C 19.0481,175.821 19.7148,176.821 19.5,178.5C 18.0115,179.939 16.1782,180.605 14,180.5C 9.18014,179.669 4.34681,179.002 -0.5,178.5C -0.5,178.167 -0.5,177.833 -0.5,177.5C 5.47704,178.165 11.477,178.498 17.5,178.5C 17.5,177.5 17.5,176.5 17.5,175.5 Z"/></g>
<g><path style="opacity:1" fill="#1b241d" d="M -0.5,178.5 C 4.34681,179.002 9.18014,179.669 14,180.5C 16.1782,180.605 18.0115,179.939 19.5,178.5C 19.4431,179.609 19.1098,180.609 18.5,181.5C 18.5,181.833 18.5,182.167 18.5,182.5C 12.1667,182.5 5.83333,182.5 -0.5,182.5C -0.5,181.167 -0.5,179.833 -0.5,178.5 Z"/></g>
</svg>
