<svg xmlns="http://www.w3.org/2000/svg" xmlns:v="https://svgstorm.com"
viewBox = "0 0 1050 200"
width="1050"
height="200">
<g fill="None" fill-opacity="0.0" stroke="#000000" stroke-opacity="0.00" stroke-width="0.3"><path d="
M 0.00 200.00 
L 1050.00 200.00
L 1050.00 0.00
L 0.00 0.00
L 0.00 200.00
M 90.00 22.00 
C 91.51 23.95 91.14 28.57 91.00 31.00
C 90.90 32.69 90.28 34.03 90.00 36.00
C 91.64 37.58 91.34 42.62 91.00 45.00
C 97.81 44.71 106.21 46.28 114.00 45.00
C 114.00 49.00 114.00 53.00 114.00 57.00
C 102.33 57.00 90.67 57.00 79.00 57.00
C 79.42 53.02 78.01 48.56 80.00 45.00
C 79.99 43.28 79.65 42.50 79.00 41.00
C 77.31 39.01 73.41 40.40 74.01 35.99 C 74.61 31.58 74.03 31.86 77.00 29.00
C 77.48 28.54 77.78 27.59 78.00 27.00
C 78.78 24.88 79.70 22.28 80.00 20.00
C 80.48 16.40 79.64 12.62 80.00 9.00
C 91.33 9.00 102.67 9.00 114.00 9.00
C 114.00 12.67 114.00 16.33 114.00 20.00
C 105.89 19.92 97.17 19.89 90.00 22.00
M 421.00 20.00 
C 422.77 16.94 437.13 19.11 441.00 19.00 C 444.87 18.89 458.35 17.24 461.00 20.00
C 463.60 22.48 459.87 32.12 461.00 37.00 C 462.13 41.88 460.47 50.55 461.00 56.00 C 461.53 61.45 462.32 67.01 462.00 73.00 C 461.68 78.99 462.61 86.09 462.00 92.00 C 461.39 97.91 462.94 104.09 461.00 109.00
C 471.87 104.06 477.40 87.36 485.92 79.92 C 494.44 72.48 476.22 68.36 477.00 64.00
C 490.67 64.00 504.33 64.00 518.00 64.00
C 516.71 71.42 503.65 71.11 498.77 77.77 C 493.89 84.43 488.35 89.11 483.00 95.00
C 486.23 102.95 492.67 108.81 496.75 116.25 C 500.84 123.68 506.21 130.21 510.30 137.70 C 514.40 145.18 523.49 150.19 526.00 157.00
C 510.33 157.00 494.67 157.00 479.00 157.00
C 479.46 149.80 488.51 152.14 482.69 143.31 C 476.88 134.47 470.44 125.50 466.00 116.00
C 464.43 116.96 462.75 118.32 462.00 120.00
C 459.44 125.87 461.40 137.39 462.00 144.00
C 462.83 153.14 471.60 149.39 473.00 157.00
C 463.90 156.98 455.13 157.03 446.00 157.00 C 436.87 156.97 428.26 157.06 419.00 157.00 C 409.74 156.94 400.42 157.11 391.00 157.00 C 381.58 156.89 373.76 157.26 364.00 157.00 C 354.24 156.74 346.45 157.55 336.00 157.00 C 325.55 156.45 321.11 158.27 309.00 157.00 C 296.89 155.73 305.81 152.33 315.07 151.07 C 324.34 149.82 320.36 137.20 321.00 130.00 C 321.64 122.80 320.75 110.00 321.00 102.00 C 321.25 94.00 321.01 83.06 321.00 75.00 C 320.99 66.94 321.24 54.41 321.00 47.00 C 320.76 39.59 323.48 27.80 314.92 26.08 C 306.37 24.36 296.40 20.47 308.00 19.00 C 319.61 17.53 324.75 19.64 335.00 19.00 C 345.25 18.36 353.30 19.31 363.00 19.00 C 372.70 18.69 380.54 19.16 390.00 19.00 C 399.46 18.84 408.57 19.12 418.00 19.00
C 418.00 32.33 418.00 45.67 418.00 59.00
C 409.26 58.81 412.14 45.58 406.08 39.92 C 400.02 34.25 396.20 28.59 386.93 28.07 C 377.66 27.55 364.61 28.31 355.00 28.00
C 355.00 46.00 355.00 64.00 355.00 82.00
C 364.26 83.95 372.98 80.13 377.75 72.75 C 382.52 65.37 379.25 52.89 388.00 51.00
C 388.00 74.67 388.00 98.33 388.00 122.00
C 379.35 120.99 382.43 107.79 377.23 100.77 C 372.03 93.75 364.39 89.67 355.00 91.00
C 354.96 100.76 355.05 114.65 355.00 124.00 C 354.95 133.35 352.54 146.88 363.22 148.78 C 373.90 150.67 385.52 148.36 395.01 147.01 C 404.50 145.66 407.75 138.31 413.75 132.75 C 419.76 127.20 419.42 113.12 428.00 115.00
C 425.25 127.46 424.16 140.36 422.00 153.00
C 439.09 150.00 432.54 128.41 433.00 114.00 C 433.46 99.59 433.54 77.39 433.00 63.00 C 432.46 48.61 439.39 24.84 421.00 24.00
C 421.00 22.67 421.00 21.33 421.00 20.00
M 719.00 19.00 
C 719.00 32.00 719.00 45.00 719.00 58.00
C 710.85 56.75 713.98 44.73 708.25 38.75 C 702.51 32.78 697.27 28.27 687.98 28.02 C 678.68 27.77 666.55 28.16 657.00 28.00
C 657.00 46.67 657.00 65.33 657.00 84.00
C 666.60 84.32 674.65 82.01 681.75 75.75 C 688.85 69.49 685.00 56.07 694.00 55.00
C 694.89 63.52 692.81 73.64 694.00 82.00 C 695.19 90.36 691.72 101.23 694.00 109.00 C 696.28 116.77 689.01 131.23 688.02 115.98 C 687.04 100.72 672.69 89.23 657.00 92.00
C 657.23 101.29 656.69 110.72 657.00 120.00 C 657.31 129.28 655.74 138.47 658.93 147.07 C 662.11 155.67 678.14 147.32 678.00 157.00
C 653.67 157.00 629.33 157.00 605.00 157.00
C 606.50 148.51 624.46 154.34 623.98 141.98 C 623.50 129.61 624.08 119.83 624.00 108.00 C 623.92 96.17 623.69 85.62 624.00 74.00 C 624.31 62.38 623.11 51.59 624.00 40.00 C 624.89 28.41 616.71 21.72 605.00 24.00
C 606.39 14.90 620.04 19.85 629.00 19.00 C 637.96 18.15 649.48 19.40 659.00 19.00 C 668.52 18.60 679.25 19.21 689.00 19.00 C 698.75 18.79 709.19 19.16 719.00 19.00
M 128.00 42.00 
C 125.69 42.00 123.30 42.17 121.00 42.00
C 117.33 41.72 109.83 41.63 109.00 37.00
C 107.28 34.14 108.53 28.62 112.00 28.00
C 122.42 27.06 133.51 27.52 144.00 28.00 C 154.49 28.48 166.66 25.90 177.00 28.00 C 187.34 30.10 199.30 22.04 208.25 29.75 C 217.19 37.47 202.64 43.25 193.00 41.00 C 183.36 38.75 170.19 41.46 160.00 41.00 C 149.81 40.54 138.53 42.00 128.00 42.00
M 568.00 61.00 
C 604.10 62.54 621.25 108.28 604.08 138.08 C 586.90 167.87 541.12 166.04 526.23 134.77 C 511.34 103.51 529.75 59.37 568.00 61.00
M 763.00 61.00 
C 798.77 62.53 815.50 108.39 798.69 137.69 C 781.89 167.00 735.88 166.80 721.08 134.92 C 706.27 103.05 723.98 59.33 763.00 61.00
M 838.00 96.00 
C 837.66 101.05 837.12 107.69 837.00 112.00
C 837.19 114.59 837.19 116.41 837.00 119.00
C 837.20 126.17 837.04 136.25 838.00 144.00
C 840.50 151.30 842.51 149.30 848.22 152.78 C 853.94 156.26 841.32 158.04 837.00 157.00 C 832.68 155.96 823.29 157.54 818.00 157.00 C 812.72 156.46 804.55 157.41 799.00 157.00
C 801.90 150.52 810.19 149.12 809.00 139.00 C 807.81 128.88 808.94 120.93 809.00 111.00 C 809.06 101.07 807.66 93.14 809.00 83.00 C 810.34 72.86 802.70 70.14 799.00 64.00
C 812.00 64.00 825.00 64.00 838.00 64.00
C 838.03 68.49 835.88 73.34 839.00 77.00
C 843.52 59.10 874.46 55.22 870.00 79.00
C 880.33 70.79 890.60 59.50 906.07 61.07 C 921.55 62.65 940.16 67.30 957.00 65.00
C 957.00 69.00 957.00 73.00 957.00 77.00
C 951.67 77.00 946.33 77.00 941.00 77.00
C 946.97 83.98 951.17 94.78 947.67 103.67 C 944.17 112.57 940.39 118.62 931.30 123.30 C 922.22 127.99 913.24 130.48 901.78 128.22 C 890.32 125.96 886.00 143.29 898.00 144.00 C 910.00 144.71 920.61 143.56 931.01 144.99 C 941.40 146.42 949.03 148.80 954.75 157.25 C 960.47 165.69 957.13 178.14 951.25 185.25 C 945.36 192.35 937.36 196.74 927.99 197.99 C 918.62 199.24 903.05 199.78 893.33 198.67 C 883.61 197.56 874.81 195.31 868.75 187.25 C 862.69 179.20 871.61 167.06 881.00 167.00
C 861.88 156.55 871.53 130.55 890.00 126.00
C 874.81 118.69 864.10 102.27 868.00 85.00
C 862.35 89.98 855.81 91.12 849.75 85.25 C 843.69 79.38 836.39 89.20 838.00 96.00
M 1032.00 108.00 
C 1014.67 108.00 997.33 108.00 980.00 108.00
C 980.92 120.40 984.99 134.08 996.08 140.92 C 1007.17 147.76 1022.78 141.23 1027.00 129.00
C 1035.98 133.61 1024.96 144.82 1017.75 151.75 C 1010.55 158.69 994.34 161.86 983.98 159.02 C 973.62 156.19 965.01 150.64 959.25 140.75 C 953.49 130.87 951.73 117.21 952.99 105.99 C 954.26 94.77 957.75 84.60 965.25 76.25 C 972.75 67.90 981.62 61.66 993.07 61.07 C 1004.52 60.48 1014.86 65.74 1022.25 74.75 C 1029.64 83.76 1032.61 96.11 1032.00 108.00
M 70.00 76.00 
C 70.33 92.61 70.48 109.78 69.00 126.00
C 59.49 126.22 52.83 118.13 43.77 114.23 C 34.71 110.33 28.35 103.32 22.23 95.77 C 16.11 88.22 13.47 78.03 8.00 70.00
C 8.79 64.24 22.67 67.37 29.00 67.00 C 35.33 66.63 45.87 66.51 53.67 67.33 C 61.47 68.15 69.78 65.24 70.00 76.00
M 204.00 171.00 
C 206.30 171.26 208.69 170.81 211.00 171.00
C 210.56 179.98 214.74 196.25 203.00 195.00 C 191.26 193.75 181.80 195.86 171.00 195.00 C 160.20 194.14 153.11 195.74 143.00 194.00
C 122.14 196.98 98.24 190.95 77.00 195.00
C 74.28 187.52 77.66 178.50 75.00 171.00
C 87.93 170.92 103.75 167.90 106.93 151.93 C 110.10 135.95 93.06 125.77 79.00 126.00
C 79.00 124.00 79.00 122.00 79.00 120.00
C 78.66 114.38 79.00 108.63 79.00 103.00
C 79.00 90.81 79.34 78.23 80.00 67.00
C 146.42 70.03 212.76 66.07 280.00 67.00
C 270.10 83.64 261.62 95.85 245.25 108.25 C 228.88 120.65 210.86 123.55 190.78 130.78 C 170.69 138.00 180.51 174.51 204.00 171.00 Z"/>
</g>
<g fill="None" fill-opacity="0.0" stroke="#F4F9F2" stroke-opacity="0.91" stroke-width="0.3"><path d="
M 80.00 20.00 
C 82.92 19.84 85.77 19.77 88.00 21.00
C 88.58 21.32 89.30 22.00 90.00 22.00
C 97.17 19.89 105.89 19.92 114.00 20.00
C 114.00 16.33 114.00 12.67 114.00 9.00
C 102.67 9.00 91.33 9.00 80.00 9.00
C 79.64 12.62 80.48 16.40 80.00 20.00 Z"/>
</g>
<g fill="None" fill-opacity="0.0" stroke="#FEFEFE" stroke-opacity="0.93" stroke-width="0.3"><path d="
M 462.00 144.00 
C 459.78 137.17 458.15 125.67 462.00 120.00
C 462.75 118.32 464.43 116.96 466.00 116.00
C 470.44 125.50 476.88 134.47 482.69 143.31 C 488.51 152.14 479.46 149.80 479.00 157.00
C 494.67 157.00 510.33 157.00 526.00 157.00
C 523.49 150.19 514.40 145.18 510.30 137.70 C 506.21 130.21 500.84 123.68 496.75 116.25 C 492.67 108.81 486.23 102.95 483.00 95.00
C 488.35 89.11 493.89 84.43 498.77 77.77 C 503.65 71.11 516.71 71.42 518.00 64.00
C 504.33 64.00 490.67 64.00 477.00 64.00
C 476.22 68.36 494.44 72.48 485.92 79.92 C 477.40 87.36 471.87 104.06 461.00 109.00
C 460.19 111.04 459.72 101.05 460.00 96.00 C 460.28 90.95 459.83 82.75 460.00 77.00 C 460.17 71.25 459.84 64.05 460.00 58.00 C 460.16 51.95 459.73 45.17 460.00 39.00 C 460.27 32.83 459.44 26.18 460.00 20.00
C 447.00 20.00 434.00 20.00 421.00 20.00
C 421.00 21.33 421.00 22.67 421.00 24.00
C 439.39 24.84 432.46 48.61 433.00 63.00 C 433.54 77.39 433.46 99.59 433.00 114.00 C 432.54 128.41 439.09 150.00 422.00 153.00
C 424.16 140.36 425.25 127.46 428.00 115.00
C 419.42 113.12 419.76 127.20 413.75 132.75 C 407.75 138.31 404.50 145.66 395.01 147.01 C 385.52 148.36 373.90 150.67 363.22 148.78 C 352.54 146.88 354.95 133.35 355.00 124.00 C 355.05 114.65 354.96 100.76 355.00 91.00
C 364.39 89.67 372.03 93.75 377.23 100.77 C 382.43 107.79 379.35 120.99 388.00 122.00
C 388.00 98.33 388.00 74.67 388.00 51.00
C 379.25 52.89 382.52 65.37 377.75 72.75 C 372.98 80.13 364.26 83.95 355.00 82.00
C 355.00 64.00 355.00 46.00 355.00 28.00
C 364.61 28.31 377.66 27.55 386.93 28.07 C 396.20 28.59 400.02 34.25 406.08 39.92 C 412.14 45.58 409.26 58.81 418.00 59.00
C 418.00 45.67 418.00 32.33 418.00 19.00
C 408.57 19.12 399.46 18.84 390.00 19.00 C 380.54 19.16 372.70 18.69 363.00 19.00 C 353.30 19.31 345.25 18.36 335.00 19.00 C 324.75 19.64 319.61 17.53 308.00 19.00 C 296.40 20.47 306.37 24.36 314.92 26.08 C 323.48 27.80 320.76 39.59 321.00 47.00 C 321.24 54.41 320.99 66.94 321.00 75.00 C 321.01 83.06 321.25 94.00 321.00 102.00 C 320.75 110.00 321.64 122.80 321.00 130.00 C 320.36 137.20 324.34 149.82 315.07 151.07 C 305.81 152.33 296.89 155.73 309.00 157.00 C 321.11 158.27 325.55 156.45 336.00 157.00 C 346.45 157.55 354.24 156.74 364.00 157.00 C 373.76 157.26 381.58 156.89 391.00 157.00 C 400.42 157.11 409.74 156.94 419.00 157.00 C 428.26 157.06 436.87 156.97 446.00 157.00 C 455.13 157.03 463.90 156.98 473.00 157.00
C 471.60 149.39 462.83 153.14 462.00 144.00 Z"/>
</g>
<g fill="None" fill-opacity="0.0" stroke="#FEFEFF" stroke-opacity="0.27" stroke-width="0.3"><path d="
M 421.00 20.00 
C 434.00 20.00 447.00 20.00 460.00 20.00
C 460.50 20.00 461.00 20.00 461.00 20.00
C 458.35 17.24 444.87 18.89 441.00 19.00 C 437.13 19.11 422.77 16.94 421.00 20.00 Z"/>
</g>
<g fill="None" fill-opacity="0.0" stroke="#FEFEFE" stroke-opacity="0.93" stroke-width="0.3"><path d="
M 719.00 19.00 
C 709.19 19.16 698.75 18.79 689.00 19.00 C 679.25 19.21 668.52 18.60 659.00 19.00 C 649.48 19.40 637.96 18.15 629.00 19.00 C 620.04 19.85 606.39 14.90 605.00 24.00
C 616.71 21.72 624.89 28.41 624.00 40.00 C 623.11 51.59 624.31 62.38 624.00 74.00 C 623.69 85.62 623.92 96.17 624.00 108.00 C 624.08 119.83 623.50 129.61 623.98 141.98 C 624.46 154.34 606.50 148.51 605.00 157.00
C 629.33 157.00 653.67 157.00 678.00 157.00
C 678.14 147.32 662.11 155.67 658.93 147.07 C 655.74 138.47 657.31 129.28 657.00 120.00 C 656.69 110.72 657.23 101.29 657.00 92.00
C 672.69 89.23 687.04 100.72 688.02 115.98 C 689.01 131.23 696.28 116.77 694.00 109.00 C 691.72 101.23 695.19 90.36 694.00 82.00 C 692.81 73.64 694.89 63.52 694.00 55.00
C 685.00 56.07 688.85 69.49 681.75 75.75 C 674.65 82.01 666.60 84.32 657.00 84.00
C 657.00 65.33 657.00 46.67 657.00 28.00
C 666.55 28.16 678.68 27.77 687.98 28.02 C 697.27 28.27 702.51 32.78 708.25 38.75 C 713.98 44.73 710.85 56.75 719.00 58.00
C 719.00 45.00 719.00 32.00 719.00 19.00 Z"/>
</g>
<g fill="None" fill-opacity="0.0" stroke="#6B7783" stroke-opacity="0.95" stroke-width="0.3"><path d="
M 78.00 27.00 
C 80.24 26.81 81.04 33.89 81.33 35.67 C 81.62 37.46 82.05 43.05 82.00 45.00
C 84.20 45.93 87.16 46.41 90.00 46.00
C 89.22 43.57 90.00 39.57 90.00 37.00
C 89.85 35.66 89.21 32.91 89.00 31.00
C 88.80 29.15 86.49 22.60 88.00 21.00
C 85.77 19.77 82.92 19.84 80.00 20.00
C 79.70 22.28 78.78 24.88 78.00 27.00 Z"/>
</g>
<g fill="None" fill-opacity="0.0" stroke="#FEFEFE" stroke-opacity="0.58" stroke-width="0.3"><path d="
M 461.00 109.00 
C 462.94 104.09 461.39 97.91 462.00 92.00 C 462.61 86.09 461.68 78.99 462.00 73.00 C 462.32 67.01 461.53 61.45 461.00 56.00 C 460.47 50.55 462.13 41.88 461.00 37.00 C 459.87 32.12 463.60 22.48 461.00 20.00
C 461.00 20.00 460.50 20.00 460.00 20.00
C 459.44 26.18 460.27 32.83 460.00 39.00 C 459.73 45.17 460.16 51.95 460.00 58.00 C 459.84 64.05 460.17 71.25 460.00 77.00 C 459.83 82.75 460.28 90.95 460.00 96.00 C 459.72 101.05 460.19 111.04 461.00 109.00 Z"/>
</g>
<g fill="None" fill-opacity="0.0" stroke="#9096A2" stroke-opacity="0.53" stroke-width="0.3"><path d="
M 89.00 31.00 
C 89.17 31.24 90.89 30.79 91.00 31.00
C 91.14 28.57 91.51 23.95 90.00 22.00
C 89.30 22.00 88.58 21.32 88.00 21.00
C 86.49 22.60 88.80 29.15 89.00 31.00 Z"/>
</g>
<g fill="None" fill-opacity="0.0" stroke="#A0B3BC" stroke-opacity="0.91" stroke-width="0.3"><path d="
M 77.00 29.00 
C 74.32 34.35 77.21 36.85 79.00 41.00
C 79.65 42.50 79.99 43.28 80.00 45.00
C 80.29 45.25 81.58 44.82 82.00 45.00
C 82.05 43.05 81.62 37.46 81.33 35.67 C 81.04 33.89 80.24 26.81 78.00 27.00
C 77.78 27.59 77.48 28.54 77.00 29.00 Z"/>
</g>
<g fill="None" fill-opacity="0.0" stroke="#9DA1AD" stroke-opacity="0.12" stroke-width="0.3"><path d="
M 109.00 37.00 
C 109.13 37.22 110.00 37.00 110.00 37.00
C 109.89 34.10 109.62 30.82 112.00 29.00
C 111.85 28.55 112.00 28.00 112.00 28.00
C 108.53 28.62 107.28 34.14 109.00 37.00 Z"/>
</g>
<g fill="None" fill-opacity="0.0" stroke="#B1BCC5" stroke-opacity="0.91" stroke-width="0.3"><path d="
M 112.00 29.00 
C 112.60 30.79 113.07 38.99 110.00 37.00
C 110.00 37.00 109.13 37.22 109.00 37.00
C 109.83 41.63 117.33 41.72 121.00 42.00
C 122.82 41.97 126.13 41.82 128.00 42.00
C 138.53 42.00 149.81 40.54 160.00 41.00 C 170.19 41.46 183.36 38.75 193.00 41.00 C 202.64 43.25 217.19 37.47 208.25 29.75 C 199.30 22.04 187.34 30.10 177.00 28.00 C 166.66 25.90 154.49 28.48 144.00 28.00 C 133.51 27.52 122.42 27.06 112.00 28.00
C 112.00 28.00 111.85 28.55 112.00 29.00 Z"/>
</g>
<g fill="None" fill-opacity="0.0" stroke="#DEEAF1" stroke-opacity="0.68" stroke-width="0.3"><path d="
M 79.00 41.00 
C 77.21 36.85 74.32 34.35 77.00 29.00
C 74.03 31.86 74.61 31.58 74.01 35.99 C 73.41 40.40 77.31 39.01 79.00 41.00 Z"/>
</g>
<g fill="None" fill-opacity="0.0" stroke="#7C868D" stroke-opacity="0.70" stroke-width="0.3"><path d="
M 110.00 37.00 
C 113.07 38.99 112.60 30.79 112.00 29.00
C 109.62 30.82 109.89 34.10 110.00 37.00 Z"/>
</g>
<g fill="None" fill-opacity="0.0" stroke="#607394" stroke-opacity="0.44" stroke-width="0.3"><path d="
M 90.00 37.00 
C 90.00 36.50 90.00 36.00 90.00 36.00
C 90.28 34.03 90.90 32.69 91.00 31.00
C 90.89 30.79 89.17 31.24 89.00 31.00
C 89.21 32.91 89.85 35.66 90.00 37.00 Z"/>
</g>
<g fill="None" fill-opacity="0.0" stroke="#8898A0" stroke-opacity="0.12" stroke-width="0.3"><path d="
M 90.00 37.00 
C 90.00 39.57 89.22 43.57 90.00 46.00
C 90.35 45.95 90.95 45.35 91.00 45.00
C 91.34 42.62 91.64 37.58 90.00 36.00
C 90.00 36.00 90.00 36.50 90.00 37.00 Z"/>
</g>
<g fill="None" fill-opacity="0.0" stroke="#C6D0D7" stroke-opacity="0.48" stroke-width="0.3"><path d="
M 121.00 42.00 
C 123.30 42.17 125.69 42.00 128.00 42.00
C 126.13 41.82 122.82 41.97 121.00 42.00 Z"/>
</g>
<g fill="None" fill-opacity="0.0" stroke="#F5FBF5" stroke-opacity="0.86" stroke-width="0.3"><path d="
M 91.00 45.00 
C 90.95 45.35 90.35 45.95 90.00 46.00
C 87.16 46.41 84.20 45.93 82.00 45.00
C 81.58 44.82 80.29 45.25 80.00 45.00
C 78.01 48.56 79.42 53.02 79.00 57.00
C 90.67 57.00 102.33 57.00 114.00 57.00
C 114.00 53.00 114.00 49.00 114.00 45.00
C 106.21 46.28 97.81 44.71 91.00 45.00 Z"/>
</g>
<g fill="None" fill-opacity="0.0" stroke="#FEFEFE" stroke-opacity="0.94" stroke-width="0.3"><path d="
M 568.00 61.00 
C 529.75 59.37 511.34 103.51 526.23 134.77 C 541.12 166.04 586.90 167.87 604.08 138.08 C 621.25 108.28 604.10 62.54 568.00 61.00
M 571.00 70.00 
C 580.94 73.14 578.81 88.97 580.00 98.00 C 581.19 107.03 578.95 124.78 579.22 134.22 C 579.49 143.66 571.55 156.33 560.98 151.02 C 550.40 145.72 552.79 134.11 551.07 123.93 C 549.35 113.74 551.78 98.09 552.00 88.00 C 552.22 77.91 558.95 66.19 571.00 70.00 Z"/>
</g>
<g fill="None" fill-opacity="0.0" stroke="#FEFEFE" stroke-opacity="0.94" stroke-width="0.3"><path d="
M 763.00 61.00 
C 723.98 59.33 706.27 103.05 721.08 134.92 C 735.88 166.80 781.89 167.00 798.69 137.69 C 815.50 108.39 798.77 62.53 763.00 61.00
M 746.00 118.00 
C 745.97 117.90 742.41 110.11 744.00 106.00 C 745.59 101.89 745.40 102.10 746.00 99.00
C 746.00 89.37 743.88 73.03 757.03 70.03 C 770.17 67.02 773.53 83.24 774.00 94.00 C 774.47 104.76 774.07 121.32 774.00 132.00 C 773.94 142.69 765.37 157.40 754.32 150.68 C 743.28 143.95 746.00 128.41 746.00 118.00 Z"/>
</g>
<g fill="None" fill-opacity="0.0" stroke="#FEFEFE" stroke-opacity="0.93" stroke-width="0.3"><path d="
M 838.00 144.00 
C 837.77 143.34 837.14 143.11 837.00 142.00
C 834.60 136.11 836.01 126.78 836.00 120.00 C 835.99 113.22 834.62 103.83 837.00 98.00
C 837.16 96.74 837.76 96.78 838.00 96.00
C 836.39 89.20 843.69 79.38 849.75 85.25 C 855.81 91.12 862.35 89.98 868.00 85.00
C 864.10 102.27 874.81 118.69 890.00 126.00
C 871.53 130.55 861.88 156.55 881.00 167.00
C 871.61 167.06 862.69 179.20 868.75 187.25 C 874.81 195.31 883.61 197.56 893.33 198.67 C 903.05 199.78 918.62 199.24 927.99 197.99 C 937.36 196.74 945.36 192.35 951.25 185.25 C 957.13 178.14 960.47 165.69 954.75 157.25 C 949.03 148.80 941.40 146.42 931.01 144.99 C 920.61 143.56 910.00 144.71 898.00 144.00 C 886.00 143.29 890.32 125.96 901.78 128.22 C 913.24 130.48 922.22 127.99 931.30 123.30 C 940.39 118.62 944.17 112.57 947.67 103.67 C 951.17 94.78 946.97 83.98 941.00 77.00
C 946.33 77.00 951.67 77.00 957.00 77.00
C 957.00 73.00 957.00 69.00 957.00 65.00
C 940.16 67.30 921.55 62.65 906.07 61.07 C 890.60 59.50 880.33 70.79 870.00 79.00
C 874.46 55.22 843.52 59.10 839.00 77.00
C 835.88 73.34 838.03 68.49 838.00 64.00
C 825.00 64.00 812.00 64.00 799.00 64.00
C 802.70 70.14 810.34 72.86 809.00 83.00 C 807.66 93.14 809.06 101.07 809.00 111.00 C 808.94 120.93 807.81 128.88 809.00 139.00 C 810.19 149.12 801.90 150.52 799.00 157.00
C 804.55 157.41 812.72 156.46 818.00 157.00 C 823.29 157.54 832.68 155.96 837.00 157.00 C 841.32 158.04 853.94 156.26 848.22 152.78 C 842.51 149.30 840.50 151.30 838.00 144.00
M 912.00 69.00 
C 923.37 71.96 919.85 90.14 921.00 99.00 C 922.15 107.86 917.32 124.55 905.93 121.07 C 894.54 117.59 896.17 101.17 896.00 92.00 C 895.83 82.83 899.39 65.72 912.00 69.00
M 929.00 170.00 
C 941.30 172.00 943.03 183.61 931.92 188.92 C 920.81 194.23 908.25 190.76 897.00 191.00 C 885.74 191.24 879.60 172.68 891.03 171.03 C 902.45 169.37 917.28 168.10 929.00 170.00 Z"/>
</g>
<g fill="None" fill-opacity="0.0" stroke="#FEFEFE" stroke-opacity="0.93" stroke-width="0.3"><path d="
M 1032.00 108.00 
C 1032.61 96.11 1029.64 83.76 1022.25 74.75 C 1014.86 65.74 1004.52 60.48 993.07 61.07 C 981.62 61.66 972.75 67.90 965.25 76.25 C 957.75 84.60 954.26 94.77 952.99 105.99 C 951.73 117.21 953.49 130.87 959.25 140.75 C 965.01 150.64 973.62 156.19 983.98 159.02 C 994.34 161.86 1010.55 158.69 1017.75 151.75 C 1024.96 144.82 1035.98 133.61 1027.00 129.00
C 1022.78 141.23 1007.17 147.76 996.08 140.92 C 984.99 134.08 980.92 120.40 980.00 108.00
C 997.33 108.00 1014.67 108.00 1032.00 108.00
M 1007.00 100.00 
C 998.00 100.00 989.00 100.00 980.00 100.00
C 981.24 90.59 979.25 70.92 993.03 69.03 C 1006.80 67.13 1007.47 90.66 1007.00 100.00 Z"/>
</g>
<g fill="None" fill-opacity="0.0" stroke="#FBFCFB" stroke-opacity="0.51" stroke-width="0.3"><path d="
M 8.00 70.00 
C 27.50 67.68 48.08 69.66 68.00 69.00
C 68.67 71.04 66.29 78.04 70.00 76.00
C 69.78 65.24 61.47 68.15 53.67 67.33 C 45.87 66.51 35.33 66.63 29.00 67.00 C 22.67 67.37 8.79 64.24 8.00 70.00 Z"/>
</g>
<g fill="None" fill-opacity="0.0" stroke="#F8FBF1" stroke-opacity="0.90" stroke-width="0.3"><path d="
M 79.00 103.00 
C 79.51 108.23 79.19 114.92 79.00 120.00
C 79.00 122.00 79.00 124.00 79.00 126.00
C 93.06 125.77 110.10 135.95 106.93 151.93 C 103.75 167.90 87.93 170.92 75.00 171.00
C 77.66 178.50 74.28 187.52 77.00 195.00
C 98.24 190.95 122.14 196.98 143.00 194.00
C 164.33 190.95 187.90 194.20 210.00 193.00
C 210.00 186.00 210.00 179.00 210.00 172.00
C 208.12 171.53 205.07 173.06 204.00 171.00
C 180.51 174.51 170.69 138.00 190.78 130.78 C 210.86 123.55 228.88 120.65 245.25 108.25 C 261.62 95.85 270.10 83.64 280.00 67.00
C 212.76 66.07 146.42 70.03 80.00 67.00
C 79.34 78.23 79.00 90.81 79.00 103.00
M 256.00 80.00 
C 257.47 79.97 258.17 77.18 260.00 78.00
C 260.05 80.22 257.71 81.99 256.00 83.00
C 241.64 95.27 227.97 111.79 207.00 112.00
C 209.11 102.14 207.49 89.85 208.00 79.00
C 223.54 79.01 240.70 78.04 256.00 80.00
M 196.00 91.00 
C 196.27 93.85 197.00 96.82 197.00 100.00
C 197.00 100.50 197.00 101.00 197.00 101.00
C 198.35 102.83 198.80 107.26 197.00 109.00
C 196.25 115.23 197.91 115.24 192.00 117.00
C 190.11 117.57 188.53 118.05 187.00 119.00
C 184.46 120.58 181.52 123.01 179.00 125.00
C 174.85 128.84 171.24 134.35 169.00 139.00
C 168.65 139.73 167.01 143.66 167.00 144.00
C 166.99 144.38 168.92 144.68 168.99 147.01 C 169.06 149.35 167.84 152.14 168.00 154.00
C 168.29 157.33 171.60 164.13 174.00 167.00
C 175.50 168.79 177.66 171.50 179.00 173.00
C 183.42 176.18 187.64 179.79 193.00 181.00
C 179.16 185.14 162.51 182.35 147.00 183.00 C 131.49 183.65 114.64 182.51 99.00 183.00
C 95.73 183.32 90.98 184.84 87.00 184.00
C 86.94 183.20 86.75 178.97 88.00 181.00
C 95.69 177.56 107.81 177.33 113.00 167.00
C 112.99 165.39 113.34 166.01 114.00 165.00
C 116.20 161.64 117.59 156.95 118.00 153.00
C 118.01 150.93 118.07 144.94 118.00 143.00
C 116.23 129.71 103.90 118.94 91.00 117.00
C 91.00 111.67 91.00 106.33 91.00 101.00
C 90.66 97.38 90.66 94.61 91.00 91.00
C 91.37 87.03 90.72 82.97 91.00 79.00
C 126.33 79.00 161.67 79.00 197.00 79.00
C 194.98 82.54 196.45 87.05 196.00 91.00 Z"/>
</g>
<g fill="None" fill-opacity="0.0" stroke="#F7FAF0" stroke-opacity="0.91" stroke-width="0.3"><path d="
M 8.00 70.00 
C 13.47 78.03 16.11 88.22 22.23 95.77 C 28.35 103.32 34.71 110.33 43.77 114.23 C 52.83 118.13 59.49 126.22 69.00 126.00
C 70.48 109.78 70.33 92.61 70.00 76.00
C 66.29 78.04 68.67 71.04 68.00 69.00
C 48.08 69.66 27.50 67.68 8.00 70.00
M 59.00 86.00 
C 59.15 93.30 59.58 101.09 58.00 108.00
C 44.50 103.02 33.30 91.32 26.00 79.00
C 30.67 79.00 35.33 79.00 40.00 79.00
C 45.75 77.83 53.59 76.27 60.00 77.00
C 59.41 79.84 61.22 83.98 59.00 86.00 Z"/>
</g>
<g fill="None" fill-opacity="0.0" stroke="#000000" stroke-opacity="0.00" stroke-width="0.3"><path d="
M 912.00 69.00 
C 899.39 65.72 895.83 82.83 896.00 92.00 C 896.17 101.17 894.54 117.59 905.93 121.07 C 917.32 124.55 922.15 107.86 921.00 99.00 C 919.85 90.14 923.37 71.96 912.00 69.00 Z"/>
</g>
<g fill="None" fill-opacity="0.0" stroke="#000000" stroke-opacity="0.00" stroke-width="0.3"><path d="
M 1007.00 100.00 
C 1007.47 90.66 1006.80 67.13 993.03 69.03 C 979.25 70.92 981.24 90.59 980.00 100.00
C 989.00 100.00 998.00 100.00 1007.00 100.00 Z"/>
</g>
<g fill="None" fill-opacity="0.0" stroke="#000000" stroke-opacity="0.00" stroke-width="0.3"><path d="
M 571.00 70.00 
C 558.95 66.19 552.22 77.91 552.00 88.00 C 551.78 98.09 549.35 113.74 551.07 123.93 C 552.79 134.11 550.40 145.72 560.98 151.02 C 571.55 156.33 579.49 143.66 579.22 134.22 C 578.95 124.78 581.19 107.03 580.00 98.00 C 578.81 88.97 580.94 73.14 571.00 70.00 Z"/>
</g>
<g fill="None" fill-opacity="0.0" stroke="#000000" stroke-opacity="0.00" stroke-width="0.3"><path d="
M 746.00 99.00 
C 746.00 105.33 746.00 111.67 746.00 118.00
C 746.00 128.41 743.28 143.95 754.32 150.68 C 765.37 157.40 773.94 142.69 774.00 132.00 C 774.07 121.32 774.47 104.76 774.00 94.00 C 773.53 83.24 770.17 67.02 757.03 70.03 C 743.88 73.03 746.00 89.37 746.00 99.00 Z"/>
</g>
<g fill="None" fill-opacity="0.0" stroke="#F9FBF9" stroke-opacity="0.49" stroke-width="0.3"><path d="
M 40.00 79.00 
C 46.33 79.00 52.67 79.00 59.00 79.00
C 59.00 81.33 59.00 83.67 59.00 86.00
C 61.22 83.98 59.41 79.84 60.00 77.00
C 53.59 76.27 45.75 77.83 40.00 79.00 Z"/>
</g>
<g fill="None" fill-opacity="0.0" stroke="#000000" stroke-opacity="0.00" stroke-width="0.3"><path d="
M 256.00 83.00 
C 256.37 82.16 255.64 80.84 256.00 80.00
C 240.70 78.04 223.54 79.01 208.00 79.00
C 207.49 89.85 209.11 102.14 207.00 112.00
C 227.97 111.79 241.64 95.27 256.00 83.00 Z"/>
</g>
<g fill="None" fill-opacity="0.0" stroke="#DBDDDD" stroke-opacity="0.39" stroke-width="0.3"><path d="
M 256.00 80.00 
C 255.64 80.84 256.37 82.16 256.00 83.00
C 257.71 81.99 260.05 80.22 260.00 78.00
C 258.17 77.18 257.47 79.97 256.00 80.00 Z"/>
</g>
<g fill="None" fill-opacity="0.0" stroke="#000000" stroke-opacity="0.00" stroke-width="0.3"><path d="
M 59.00 86.00 
C 59.00 83.67 59.00 81.33 59.00 79.00
C 52.67 79.00 46.33 79.00 40.00 79.00
C 35.33 79.00 30.67 79.00 26.00 79.00
C 33.30 91.32 44.50 103.02 58.00 108.00
C 59.58 101.09 59.15 93.30 59.00 86.00 Z"/>
</g>
<g fill="None" fill-opacity="0.0" stroke="#000000" stroke-opacity="0.00" stroke-width="0.3"><path d="
M 91.00 91.00 
C 95.45 87.85 105.32 92.42 111.00 91.00 C 116.68 89.58 124.76 91.63 131.00 91.00 C 137.24 90.37 144.48 91.27 151.00 91.00 C 157.52 90.73 164.29 91.10 171.00 91.00 C 177.71 90.90 185.22 91.00 192.00 91.00
C 192.95 91.00 195.17 90.58 196.00 91.00
C 196.45 87.05 194.98 82.54 197.00 79.00
C 161.67 79.00 126.33 79.00 91.00 79.00
C 90.72 82.97 91.37 87.03 91.00 91.00 Z"/>
</g>
<g fill="None" fill-opacity="0.0" stroke="#939FAE" stroke-opacity="0.89" stroke-width="0.3"><path d="
M 91.00 101.00 
C 95.22 103.98 104.62 99.65 110.00 101.00 C 115.38 102.35 123.10 100.40 129.00 101.00 C 134.90 101.60 141.87 100.74 148.00 101.00 C 154.13 101.26 160.77 100.90 167.00 101.00 C 173.23 101.10 179.75 101.00 186.00 101.00
C 188.10 100.80 191.23 100.00 194.00 100.00
C 196.75 98.02 194.58 91.95 192.00 91.00
C 185.22 91.00 177.71 90.90 171.00 91.00 C 164.29 91.10 157.52 90.73 151.00 91.00 C 144.48 91.27 137.24 90.37 131.00 91.00 C 124.76 91.63 116.68 89.58 111.00 91.00 C 105.32 92.42 95.45 87.85 91.00 91.00
C 90.66 94.61 90.66 97.38 91.00 101.00 Z"/>
</g>
<g fill="None" fill-opacity="0.0" stroke="#C1CCD2" stroke-opacity="0.65" stroke-width="0.3"><path d="
M 194.00 100.00 
C 194.39 100.00 196.76 99.74 197.00 100.00
C 197.00 96.82 196.27 93.85 196.00 91.00
C 195.17 90.58 192.95 91.00 192.00 91.00
C 194.58 91.95 196.75 98.02 194.00 100.00 Z"/>
</g>
<g fill="None" fill-opacity="0.0" stroke="#FFFFFF" stroke-opacity="0.03" stroke-width="0.3"><path d="
M 837.00 98.00 
C 836.46 102.35 836.68 107.62 837.00 112.00
C 837.12 107.69 837.66 101.05 838.00 96.00
C 837.76 96.78 837.16 96.74 837.00 98.00 Z"/>
</g>
<g fill="None" fill-opacity="0.0" stroke="#FFFFFF" stroke-opacity="0.78" stroke-width="0.3"><path d="
M 837.00 142.00 
C 836.12 134.85 836.47 126.19 837.00 119.00
C 837.19 116.41 837.19 114.59 837.00 112.00
C 836.68 107.62 836.46 102.35 837.00 98.00
C 834.62 103.83 835.99 113.22 836.00 120.00 C 836.01 126.78 834.60 136.11 837.00 142.00 Z"/>
</g>
<g fill="None" fill-opacity="0.0" stroke="#FEFEFF" stroke-opacity="0.45" stroke-width="0.3"><path d="
M 746.00 118.00 
C 746.00 111.67 746.00 105.33 746.00 99.00
C 745.40 102.10 745.59 101.89 744.00 106.00 C 742.41 110.11 745.97 117.90 746.00 118.00 Z"/>
</g>
<g fill="None" fill-opacity="0.0" stroke="#A8B2BE" stroke-opacity="0.43" stroke-width="0.3"><path d="
M 186.00 101.00 
C 189.62 101.00 193.40 101.33 197.00 101.00
C 197.00 101.00 197.00 100.50 197.00 100.00
C 196.76 99.74 194.39 100.00 194.00 100.00
C 191.23 100.00 188.10 100.80 186.00 101.00 Z"/>
</g>
<g fill="None" fill-opacity="0.0" stroke="#000000" stroke-opacity="0.00" stroke-width="0.3"><path d="
M 118.00 143.00 
C 118.40 146.03 118.31 149.96 118.00 153.00
C 117.59 156.95 116.20 161.64 114.00 165.00
C 113.61 165.24 115.40 165.49 116.00 165.00
C 121.35 160.58 129.83 162.04 138.00 162.00 C 146.17 161.96 154.79 162.00 163.00 162.00
C 164.53 162.00 166.51 161.67 168.00 162.00
C 169.60 162.36 173.73 166.79 174.00 167.00
C 171.60 164.13 168.29 157.33 168.00 154.00
C 162.57 151.10 153.34 155.17 147.00 154.00 C 140.66 152.83 131.62 154.40 125.00 154.00
C 123.01 153.88 120.99 154.09 119.00 154.00
C 119.00 150.67 119.00 147.33 119.00 144.00
C 124.85 142.91 130.80 145.80 136.00 144.00
C 143.61 143.57 151.37 144.00 159.00 144.00
C 160.86 144.00 165.41 144.86 167.00 144.00
C 167.01 143.66 168.65 139.73 169.00 139.00
C 169.40 136.46 168.04 136.66 168.00 136.00
C 160.61 133.36 150.84 137.38 143.00 136.00 C 135.16 134.62 125.96 137.03 118.00 136.00
C 118.00 133.00 118.00 130.00 118.00 127.00
C 135.58 127.66 153.86 125.68 171.00 128.00
C 175.19 128.48 175.63 127.66 179.00 125.00
C 181.52 123.01 184.46 120.58 187.00 119.00
C 184.25 119.90 183.16 119.19 181.00 119.00
C 179.36 119.15 177.64 119.00 176.00 119.00
C 174.00 119.00 172.00 119.00 170.00 119.00
C 152.33 119.00 134.67 119.00 117.00 119.00
C 113.67 119.00 110.33 119.00 107.00 119.00
C 106.02 119.00 104.98 119.08 104.00 119.00
C 99.68 118.64 100.06 113.28 98.00 110.00
C 99.00 110.00 100.00 110.00 101.00 110.00
C 101.50 109.98 102.55 110.15 103.00 110.00
C 105.45 109.15 107.30 109.10 110.00 109.00
C 114.65 108.82 119.35 109.00 124.00 109.00
C 134.67 109.00 145.33 109.00 156.00 109.00
C 162.67 109.00 169.33 109.00 176.00 109.00
C 179.00 109.00 182.00 109.00 185.00 109.00
C 187.33 109.00 189.67 109.00 192.00 109.00
C 193.33 109.00 194.67 109.00 196.00 109.00
C 196.69 106.46 197.36 103.84 197.00 101.00
C 193.40 101.33 189.62 101.00 186.00 101.00
C 179.75 101.00 173.23 101.10 167.00 101.00 C 160.77 100.90 154.13 101.26 148.00 101.00 C 141.87 100.74 134.90 101.60 129.00 101.00 C 123.10 100.40 115.38 102.35 110.00 101.00 C 104.62 99.65 95.22 103.98 91.00 101.00
C 91.00 106.33 91.00 111.67 91.00 117.00
C 103.90 118.94 116.23 129.71 118.00 143.00 Z"/>
</g>
<g fill="None" fill-opacity="0.0" stroke="#EDF2F0" stroke-opacity="0.61" stroke-width="0.3"><path d="
M 196.00 109.00 
C 196.50 109.00 197.00 109.00 197.00 109.00
C 198.80 107.26 198.35 102.83 197.00 101.00
C 197.36 103.84 196.69 106.46 196.00 109.00 Z"/>
</g>
<g fill="None" fill-opacity="0.0" stroke="#FEFDFF" stroke-opacity="0.51" stroke-width="0.3"><path d="
M 79.00 120.00 
C 79.19 114.92 79.51 108.23 79.00 103.00
C 79.00 108.63 78.66 114.38 79.00 120.00 Z"/>
</g>
<g fill="None" fill-opacity="0.0" stroke="#8996A0" stroke-opacity="0.65" stroke-width="0.3"><path d="
M 103.00 110.00 
C 103.07 113.19 102.39 117.60 107.00 119.00
C 110.33 119.00 113.67 119.00 117.00 119.00
C 116.96 119.00 117.00 118.00 117.00 118.00
C 111.66 118.00 105.18 118.72 107.00 111.00
C 108.28 110.72 110.50 111.76 111.00 110.00
C 110.65 109.95 110.24 109.07 110.00 109.00
C 107.30 109.10 105.45 109.15 103.00 110.00 Z"/>
</g>
<g fill="None" fill-opacity="0.0" stroke="#A4ADBC" stroke-opacity="0.35" stroke-width="0.3"><path d="
M 111.00 110.00 
C 115.14 110.60 119.81 110.00 124.00 110.00
C 123.96 110.00 124.00 109.00 124.00 109.00
C 119.35 109.00 114.65 108.82 110.00 109.00
C 110.24 109.07 110.65 109.95 111.00 110.00 Z"/>
</g>
<g fill="None" fill-opacity="0.0" stroke="#A5AFBD" stroke-opacity="0.54" stroke-width="0.3"><path d="
M 124.00 110.00 
C 134.67 110.00 145.33 110.00 156.00 110.00
C 155.96 110.00 156.00 109.00 156.00 109.00
C 145.33 109.00 134.67 109.00 124.00 109.00
C 124.00 109.00 123.96 110.00 124.00 110.00 Z"/>
</g>
<g fill="None" fill-opacity="0.0" stroke="#A3ACBB" stroke-opacity="0.27" stroke-width="0.3"><path d="
M 156.00 110.00 
C 162.58 110.00 169.46 110.59 176.00 110.00
C 175.96 110.00 176.00 109.00 176.00 109.00
C 169.33 109.00 162.67 109.00 156.00 109.00
C 156.00 109.00 155.96 110.00 156.00 110.00 Z"/>
</g>
<g fill="None" fill-opacity="0.0" stroke="#919AAA" stroke-opacity="0.11" stroke-width="0.3"><path d="
M 176.00 110.00 
C 179.19 110.29 182.60 109.23 185.00 109.00
C 182.00 109.00 179.00 109.00 176.00 109.00
C 176.00 109.00 175.96 110.00 176.00 110.00 Z"/>
</g>
<g fill="None" fill-opacity="0.0" stroke="#909DA7" stroke-opacity="0.53" stroke-width="0.3"><path d="
M 176.00 110.00 
C 177.47 110.17 179.89 110.95 182.00 111.00
C 183.93 111.05 187.21 110.32 189.00 111.00
C 194.69 113.18 184.04 118.73 181.00 119.00
C 183.16 119.19 184.25 119.90 187.00 119.00
C 188.53 118.05 190.11 117.57 192.00 117.00
C 194.07 115.20 194.61 110.12 192.00 109.00
C 189.67 109.00 187.33 109.00 185.00 109.00
C 182.60 109.23 179.19 110.29 176.00 110.00 Z"/>
</g>
<g fill="None" fill-opacity="0.0" stroke="#BECBCB" stroke-opacity="0.21" stroke-width="0.3"><path d="
M 192.00 117.00 
C 197.91 115.24 196.25 115.23 197.00 109.00
C 197.00 109.00 196.50 109.00 196.00 109.00
C 194.67 109.00 193.33 109.00 192.00 109.00
C 194.61 110.12 194.07 115.20 192.00 117.00 Z"/>
</g>
<g fill="None" fill-opacity="0.0" stroke="#B0B9C0" stroke-opacity="0.10" stroke-width="0.3"><path d="
M 104.00 119.00 
C 101.87 118.17 98.87 111.62 101.00 110.00
C 100.00 110.00 99.00 110.00 98.00 110.00
C 100.06 113.28 99.68 118.64 104.00 119.00 Z"/>
</g>
<g fill="None" fill-opacity="0.0" stroke="#99A6AD" stroke-opacity="0.36" stroke-width="0.3"><path d="
M 104.00 119.00 
C 104.98 119.08 106.02 119.00 107.00 119.00
C 102.39 117.60 103.07 113.19 103.00 110.00
C 102.55 110.15 101.50 109.98 101.00 110.00
C 98.87 111.62 101.87 118.17 104.00 119.00 Z"/>
</g>
<g fill="None" fill-opacity="0.0" stroke="#929FAE" stroke-opacity="0.97" stroke-width="0.3"><path d="
M 117.00 118.00 
C 134.54 118.00 153.28 117.38 170.00 119.00
C 172.00 119.00 174.00 119.00 176.00 119.00
C 177.45 118.81 180.22 117.55 182.00 117.00
C 183.30 115.91 180.63 113.24 182.00 111.00
C 179.89 110.95 177.47 110.17 176.00 110.00
C 169.46 110.59 162.58 110.00 156.00 110.00
C 145.33 110.00 134.67 110.00 124.00 110.00
C 119.81 110.00 115.14 110.60 111.00 110.00
C 110.50 111.76 108.28 110.72 107.00 111.00
C 105.18 118.72 111.66 118.00 117.00 118.00 Z"/>
</g>
<g fill="None" fill-opacity="0.0" stroke="#6F7C8B" stroke-opacity="0.97" stroke-width="0.3"><path d="
M 182.00 117.00 
C 184.81 116.12 189.77 115.11 189.00 111.00
C 187.21 110.32 183.93 111.05 182.00 111.00
C 180.63 113.24 183.30 115.91 182.00 117.00 Z"/>
</g>
<g fill="None" fill-opacity="0.0" stroke="#808D9C" stroke-opacity="0.78" stroke-width="0.3"><path d="
M 182.00 117.00 
C 180.22 117.55 177.45 118.81 176.00 119.00
C 177.64 119.00 179.36 119.15 181.00 119.00
C 184.04 118.73 194.69 113.18 189.00 111.00
C 189.77 115.11 184.81 116.12 182.00 117.00 Z"/>
</g>
<g fill="None" fill-opacity="0.0" stroke="#A6B2BF" stroke-opacity="0.24" stroke-width="0.3"><path d="
M 117.00 119.00 
C 134.67 119.00 152.33 119.00 170.00 119.00
C 153.28 117.38 134.54 118.00 117.00 118.00
C 117.00 118.00 116.96 119.00 117.00 119.00 Z"/>
</g>
<g fill="None" fill-opacity="0.0" stroke="#FFFFFF" stroke-opacity="0.02" stroke-width="0.3"><path d="
M 837.00 142.00 
C 837.14 143.11 837.77 143.34 838.00 144.00
C 837.04 136.25 837.20 126.17 837.00 119.00
C 836.47 126.19 836.12 134.85 837.00 142.00 Z"/>
</g>
<g fill="None" fill-opacity="0.0" stroke="#FEFEFE" stroke-opacity="0.50" stroke-width="0.3"><path d="
M 462.00 144.00 
C 461.40 137.39 459.44 125.87 462.00 120.00
C 458.15 125.67 459.78 137.17 462.00 144.00 Z"/>
</g>
<g fill="None" fill-opacity="0.0" stroke="#CAD7DF" stroke-opacity="0.14" stroke-width="0.3"><path d="
M 171.00 128.00 
C 170.68 130.59 167.82 133.25 168.00 136.00
C 168.04 136.66 169.40 136.46 169.00 139.00
C 171.24 134.35 174.85 128.84 179.00 125.00
C 175.63 127.66 175.19 128.48 171.00 128.00 Z"/>
</g>
<g fill="None" fill-opacity="0.0" stroke="#A6B2C1" stroke-opacity="0.65" stroke-width="0.3"><path d="
M 168.00 136.00 
C 167.82 133.25 170.68 130.59 171.00 128.00
C 153.86 125.68 135.58 127.66 118.00 127.00
C 118.00 130.00 118.00 133.00 118.00 136.00
C 125.96 137.03 135.16 134.62 143.00 136.00 C 150.84 137.38 160.61 133.36 168.00 136.00
M 168.00 129.00 
C 167.71 133.71 163.23 132.07 160.00 133.00
C 163.07 136.64 153.44 134.50 149.00 135.00 C 144.56 135.50 136.92 134.48 132.00 135.00 C 127.08 135.52 119.87 135.34 122.00 128.00
C 137.38 128.17 152.98 127.38 168.00 129.00 Z"/>
</g>
<g fill="None" fill-opacity="0.0" stroke="#91A1B1" stroke-opacity="0.96" stroke-width="0.3"><path d="
M 168.00 129.00 
C 152.98 127.38 137.38 128.17 122.00 128.00
C 119.87 135.34 127.08 135.52 132.00 135.00 C 136.92 134.48 144.56 135.50 149.00 135.00 C 153.44 134.50 163.07 136.64 160.00 133.00
C 163.23 132.07 167.71 133.71 168.00 129.00 Z"/>
</g>
<g fill="None" fill-opacity="0.0" stroke="#E6EEF3" stroke-opacity="0.70" stroke-width="0.3"><path d="
M 118.00 153.00 
C 118.31 149.96 118.40 146.03 118.00 143.00
C 118.07 144.94 118.01 150.93 118.00 153.00 Z"/>
</g>
<g fill="None" fill-opacity="0.0" stroke="#B3CAD8" stroke-opacity="0.55" stroke-width="0.3"><path d="
M 125.00 154.00 
C 123.18 152.28 125.42 151.74 127.00 152.00
C 119.82 146.11 129.22 145.74 135.00 146.00 C 140.78 146.26 149.87 146.63 155.00 145.00
C 148.66 145.37 141.53 144.28 136.00 144.00
C 130.80 145.80 124.85 142.91 119.00 144.00
C 119.00 147.33 119.00 150.67 119.00 154.00
C 120.99 154.09 123.01 153.88 125.00 154.00 Z"/>
</g>
<g fill="None" fill-opacity="0.0" stroke="#B8CAD6" stroke-opacity="0.07" stroke-width="0.3"><path d="
M 155.00 145.00 
C 156.59 144.91 158.03 144.17 159.00 144.00
C 151.37 144.00 143.61 143.57 136.00 144.00
C 141.53 144.28 148.66 145.37 155.00 145.00 Z"/>
</g>
<g fill="None" fill-opacity="0.0" stroke="#A7BDC9" stroke-opacity="0.73" stroke-width="0.3"><path d="
M 155.00 145.00 
C 149.87 146.63 140.78 146.26 135.00 146.00 C 129.22 145.74 119.82 146.11 127.00 152.00
C 125.42 151.74 123.18 152.28 125.00 154.00
C 131.62 154.40 140.66 152.83 147.00 154.00 C 153.34 155.17 162.57 151.10 168.00 154.00
C 167.84 152.14 169.06 149.35 168.99 147.01 C 168.92 144.68 166.99 144.38 167.00 144.00
C 165.41 144.86 160.86 144.00 159.00 144.00
C 158.03 144.17 156.59 144.91 155.00 145.00 Z"/>
</g>
<g fill="None" fill-opacity="0.0" stroke="#C2CEDD" stroke-opacity="0.25" stroke-width="0.3"><path d="
M 116.00 165.00 
C 116.10 165.10 115.38 171.21 114.00 171.00
C 118.54 174.95 127.90 170.92 134.00 172.00 C 140.10 173.08 149.48 171.49 156.00 172.00 C 162.52 172.51 170.11 172.41 176.00 170.00
C 176.67 171.20 177.64 172.58 179.00 173.00
C 177.66 171.50 175.50 168.79 174.00 167.00
C 173.73 166.79 169.60 162.36 168.00 162.00
C 169.47 164.86 169.29 168.20 171.00 171.00
C 153.00 171.00 135.00 171.00 117.00 171.00
C 117.75 160.14 127.66 163.44 136.00 163.00 C 144.34 162.56 155.36 164.16 163.00 162.00
C 154.79 162.00 146.17 161.96 138.00 162.00 C 129.83 162.04 121.35 160.58 116.00 165.00 Z"/>
</g>
<g fill="None" fill-opacity="0.0" stroke="#A7B9C8" stroke-opacity="0.79" stroke-width="0.3"><path d="
M 168.00 162.00 
C 166.51 161.67 164.53 162.00 163.00 162.00
C 155.36 164.16 144.34 162.56 136.00 163.00 C 127.66 163.44 117.75 160.14 117.00 171.00
C 135.00 171.00 153.00 171.00 171.00 171.00
C 169.29 168.20 169.47 164.86 168.00 162.00 Z"/>
</g>
<g fill="None" fill-opacity="0.0" stroke="#B8C7CB" stroke-opacity="0.05" stroke-width="0.3"><path d="
M 113.00 167.00 
C 113.00 167.44 113.72 170.76 114.00 171.00
C 115.38 171.21 116.10 165.10 116.00 165.00
C 115.40 165.49 113.61 165.24 114.00 165.00
C 113.34 166.01 112.99 165.39 113.00 167.00 Z"/>
</g>
<g fill="None" fill-opacity="0.0" stroke="#000000" stroke-opacity="0.00" stroke-width="0.3"><path d="
M 88.00 181.00 
C 88.93 184.40 95.70 183.00 99.00 183.00
C 114.64 182.51 131.49 183.65 147.00 183.00 C 162.51 182.35 179.16 185.14 193.00 181.00
C 187.64 179.79 183.42 176.18 179.00 173.00
C 177.64 172.58 176.67 171.20 176.00 170.00
C 170.11 172.41 162.52 172.51 156.00 172.00 C 149.48 171.49 140.10 173.08 134.00 172.00 C 127.90 170.92 118.54 174.95 114.00 171.00
C 113.72 170.76 113.00 167.44 113.00 167.00
C 107.81 177.33 95.69 177.56 88.00 181.00 Z"/>
</g>
<g fill="None" fill-opacity="0.0" stroke="#000000" stroke-opacity="0.00" stroke-width="0.3"><path d="
M 929.00 170.00 
C 917.28 168.10 902.45 169.37 891.03 171.03 C 879.60 172.68 885.74 191.24 897.00 191.00 C 908.25 190.76 920.81 194.23 931.92 188.92 C 943.03 183.61 941.30 172.00 929.00 170.00 Z"/>
</g>
<g fill="None" fill-opacity="0.0" stroke="#FDFEFE" stroke-opacity="0.51" stroke-width="0.3"><path d="
M 143.00 194.00 
C 153.11 195.74 160.20 194.14 171.00 195.00 C 181.80 195.86 191.26 193.75 203.00 195.00 C 214.74 196.25 210.56 179.98 211.00 171.00
C 208.69 170.81 206.30 171.26 204.00 171.00
C 205.07 173.06 208.12 171.53 210.00 172.00
C 210.00 179.00 210.00 186.00 210.00 193.00
C 187.90 194.20 164.33 190.95 143.00 194.00 Z"/>
</g>
<g fill="None" fill-opacity="0.0" stroke="#FBFCFB" stroke-opacity="0.45" stroke-width="0.3"><path d="
M 99.00 183.00 
C 95.70 183.00 88.93 184.40 88.00 181.00
C 86.75 178.97 86.94 183.20 87.00 184.00
C 90.98 184.84 95.73 183.32 99.00 183.00 Z"/>
</g>
<g fill="#000000" fill-opacity="0.00" stroke="None">
<path d="
M 0.00 200.00 
L 1050.00 200.00
L 1050.00 0.00
L 0.00 0.00
L 0.00 200.00
M 90.00 22.00 
C 91.51 23.95 91.14 28.57 91.00 31.00
C 90.90 32.69 90.28 34.03 90.00 36.00
C 91.64 37.58 91.34 42.62 91.00 45.00
C 97.81 44.71 106.21 46.28 114.00 45.00
C 114.00 49.00 114.00 53.00 114.00 57.00
C 102.33 57.00 90.67 57.00 79.00 57.00
C 79.42 53.02 78.01 48.56 80.00 45.00
C 79.99 43.28 79.65 42.50 79.00 41.00
C 77.31 39.01 73.41 40.40 74.01 35.99 C 74.61 31.58 74.03 31.86 77.00 29.00
C 77.48 28.54 77.78 27.59 78.00 27.00
C 78.78 24.88 79.70 22.28 80.00 20.00
C 80.48 16.40 79.64 12.62 80.00 9.00
C 91.33 9.00 102.67 9.00 114.00 9.00
C 114.00 12.67 114.00 16.33 114.00 20.00
C 105.89 19.92 97.17 19.89 90.00 22.00
M 421.00 20.00 
C 422.77 16.94 437.13 19.11 441.00 19.00 C 444.87 18.89 458.35 17.24 461.00 20.00
C 463.60 22.48 459.87 32.12 461.00 37.00 C 462.13 41.88 460.47 50.55 461.00 56.00 C 461.53 61.45 462.32 67.01 462.00 73.00 C 461.68 78.99 462.61 86.09 462.00 92.00 C 461.39 97.91 462.94 104.09 461.00 109.00
C 471.87 104.06 477.40 87.36 485.92 79.92 C 494.44 72.48 476.22 68.36 477.00 64.00
C 490.67 64.00 504.33 64.00 518.00 64.00
C 516.71 71.42 503.65 71.11 498.77 77.77 C 493.89 84.43 488.35 89.11 483.00 95.00
C 486.23 102.95 492.67 108.81 496.75 116.25 C 500.84 123.68 506.21 130.21 510.30 137.70 C 514.40 145.18 523.49 150.19 526.00 157.00
C 510.33 157.00 494.67 157.00 479.00 157.00
C 479.46 149.80 488.51 152.14 482.69 143.31 C 476.88 134.47 470.44 125.50 466.00 116.00
C 464.43 116.96 462.75 118.32 462.00 120.00
C 459.44 125.87 461.40 137.39 462.00 144.00
C 462.83 153.14 471.60 149.39 473.00 157.00
C 463.90 156.98 455.13 157.03 446.00 157.00 C 436.87 156.97 428.26 157.06 419.00 157.00 C 409.74 156.94 400.42 157.11 391.00 157.00 C 381.58 156.89 373.76 157.26 364.00 157.00 C 354.24 156.74 346.45 157.55 336.00 157.00 C 325.55 156.45 321.11 158.27 309.00 157.00 C 296.89 155.73 305.81 152.33 315.07 151.07 C 324.34 149.82 320.36 137.20 321.00 130.00 C 321.64 122.80 320.75 110.00 321.00 102.00 C 321.25 94.00 321.01 83.06 321.00 75.00 C 320.99 66.94 321.24 54.41 321.00 47.00 C 320.76 39.59 323.48 27.80 314.92 26.08 C 306.37 24.36 296.40 20.47 308.00 19.00 C 319.61 17.53 324.75 19.64 335.00 19.00 C 345.25 18.36 353.30 19.31 363.00 19.00 C 372.70 18.69 380.54 19.16 390.00 19.00 C 399.46 18.84 408.57 19.12 418.00 19.00
C 418.00 32.33 418.00 45.67 418.00 59.00
C 409.26 58.81 412.14 45.58 406.08 39.92 C 400.02 34.25 396.20 28.59 386.93 28.07 C 377.66 27.55 364.61 28.31 355.00 28.00
C 355.00 46.00 355.00 64.00 355.00 82.00
C 364.26 83.95 372.98 80.13 377.75 72.75 C 382.52 65.37 379.25 52.89 388.00 51.00
C 388.00 74.67 388.00 98.33 388.00 122.00
C 379.35 120.99 382.43 107.79 377.23 100.77 C 372.03 93.75 364.39 89.67 355.00 91.00
C 354.96 100.76 355.05 114.65 355.00 124.00 C 354.95 133.35 352.54 146.88 363.22 148.78 C 373.90 150.67 385.52 148.36 395.01 147.01 C 404.50 145.66 407.75 138.31 413.75 132.75 C 419.76 127.20 419.42 113.12 428.00 115.00
C 425.25 127.46 424.16 140.36 422.00 153.00
C 439.09 150.00 432.54 128.41 433.00 114.00 C 433.46 99.59 433.54 77.39 433.00 63.00 C 432.46 48.61 439.39 24.84 421.00 24.00
C 421.00 22.67 421.00 21.33 421.00 20.00
M 719.00 19.00 
C 719.00 32.00 719.00 45.00 719.00 58.00
C 710.85 56.75 713.98 44.73 708.25 38.75 C 702.51 32.78 697.27 28.27 687.98 28.02 C 678.68 27.77 666.55 28.16 657.00 28.00
C 657.00 46.67 657.00 65.33 657.00 84.00
C 666.60 84.32 674.65 82.01 681.75 75.75 C 688.85 69.49 685.00 56.07 694.00 55.00
C 694.89 63.52 692.81 73.64 694.00 82.00 C 695.19 90.36 691.72 101.23 694.00 109.00 C 696.28 116.77 689.01 131.23 688.02 115.98 C 687.04 100.72 672.69 89.23 657.00 92.00
C 657.23 101.29 656.69 110.72 657.00 120.00 C 657.31 129.28 655.74 138.47 658.93 147.07 C 662.11 155.67 678.14 147.32 678.00 157.00
C 653.67 157.00 629.33 157.00 605.00 157.00
C 606.50 148.51 624.46 154.34 623.98 141.98 C 623.50 129.61 624.08 119.83 624.00 108.00 C 623.92 96.17 623.69 85.62 624.00 74.00 C 624.31 62.38 623.11 51.59 624.00 40.00 C 624.89 28.41 616.71 21.72 605.00 24.00
C 606.39 14.90 620.04 19.85 629.00 19.00 C 637.96 18.15 649.48 19.40 659.00 19.00 C 668.52 18.60 679.25 19.21 689.00 19.00 C 698.75 18.79 709.19 19.16 719.00 19.00
M 128.00 42.00 
C 125.69 42.00 123.30 42.17 121.00 42.00
C 117.33 41.72 109.83 41.63 109.00 37.00
C 107.28 34.14 108.53 28.62 112.00 28.00
C 122.42 27.06 133.51 27.52 144.00 28.00 C 154.49 28.48 166.66 25.90 177.00 28.00 C 187.34 30.10 199.30 22.04 208.25 29.75 C 217.19 37.47 202.64 43.25 193.00 41.00 C 183.36 38.75 170.19 41.46 160.00 41.00 C 149.81 40.54 138.53 42.00 128.00 42.00
M 568.00 61.00 
C 604.10 62.54 621.25 108.28 604.08 138.08 C 586.90 167.87 541.12 166.04 526.23 134.77 C 511.34 103.51 529.75 59.37 568.00 61.00
M 763.00 61.00 
C 798.77 62.53 815.50 108.39 798.69 137.69 C 781.89 167.00 735.88 166.80 721.08 134.92 C 706.27 103.05 723.98 59.33 763.00 61.00
M 838.00 96.00 
C 837.66 101.05 837.12 107.69 837.00 112.00
C 837.19 114.59 837.19 116.41 837.00 119.00
C 837.20 126.17 837.04 136.25 838.00 144.00
C 840.50 151.30 842.51 149.30 848.22 152.78 C 853.94 156.26 841.32 158.04 837.00 157.00 C 832.68 155.96 823.29 157.54 818.00 157.00 C 812.72 156.46 804.55 157.41 799.00 157.00
C 801.90 150.52 810.19 149.12 809.00 139.00 C 807.81 128.88 808.94 120.93 809.00 111.00 C 809.06 101.07 807.66 93.14 809.00 83.00 C 810.34 72.86 802.70 70.14 799.00 64.00
C 812.00 64.00 825.00 64.00 838.00 64.00
C 838.03 68.49 835.88 73.34 839.00 77.00
C 843.52 59.10 874.46 55.22 870.00 79.00
C 880.33 70.79 890.60 59.50 906.07 61.07 C 921.55 62.65 940.16 67.30 957.00 65.00
C 957.00 69.00 957.00 73.00 957.00 77.00
C 951.67 77.00 946.33 77.00 941.00 77.00
C 946.97 83.98 951.17 94.78 947.67 103.67 C 944.17 112.57 940.39 118.62 931.30 123.30 C 922.22 127.99 913.24 130.48 901.78 128.22 C 890.32 125.96 886.00 143.29 898.00 144.00 C 910.00 144.71 920.61 143.56 931.01 144.99 C 941.40 146.42 949.03 148.80 954.75 157.25 C 960.47 165.69 957.13 178.14 951.25 185.25 C 945.36 192.35 937.36 196.74 927.99 197.99 C 918.62 199.24 903.05 199.78 893.33 198.67 C 883.61 197.56 874.81 195.31 868.75 187.25 C 862.69 179.20 871.61 167.06 881.00 167.00
C 861.88 156.55 871.53 130.55 890.00 126.00
C 874.81 118.69 864.10 102.27 868.00 85.00
C 862.35 89.98 855.81 91.12 849.75 85.25 C 843.69 79.38 836.39 89.20 838.00 96.00
M 1032.00 108.00 
C 1014.67 108.00 997.33 108.00 980.00 108.00
C 980.92 120.40 984.99 134.08 996.08 140.92 C 1007.17 147.76 1022.78 141.23 1027.00 129.00
C 1035.98 133.61 1024.96 144.82 1017.75 151.75 C 1010.55 158.69 994.34 161.86 983.98 159.02 C 973.62 156.19 965.01 150.64 959.25 140.75 C 953.49 130.87 951.73 117.21 952.99 105.99 C 954.26 94.77 957.75 84.60 965.25 76.25 C 972.75 67.90 981.62 61.66 993.07 61.07 C 1004.52 60.48 1014.86 65.74 1022.25 74.75 C 1029.64 83.76 1032.61 96.11 1032.00 108.00
M 70.00 76.00 
C 70.33 92.61 70.48 109.78 69.00 126.00
C 59.49 126.22 52.83 118.13 43.77 114.23 C 34.71 110.33 28.35 103.32 22.23 95.77 C 16.11 88.22 13.47 78.03 8.00 70.00
C 8.79 64.24 22.67 67.37 29.00 67.00 C 35.33 66.63 45.87 66.51 53.67 67.33 C 61.47 68.15 69.78 65.24 70.00 76.00
M 204.00 171.00 
C 206.30 171.26 208.69 170.81 211.00 171.00
C 210.56 179.98 214.74 196.25 203.00 195.00 C 191.26 193.75 181.80 195.86 171.00 195.00 C 160.20 194.14 153.11 195.74 143.00 194.00
C 122.14 196.98 98.24 190.95 77.00 195.00
C 74.28 187.52 77.66 178.50 75.00 171.00
C 87.93 170.92 103.75 167.90 106.93 151.93 C 110.10 135.95 93.06 125.77 79.00 126.00
C 79.00 124.00 79.00 122.00 79.00 120.00
C 78.66 114.38 79.00 108.63 79.00 103.00
C 79.00 90.81 79.34 78.23 80.00 67.00
C 146.42 70.03 212.76 66.07 280.00 67.00
C 270.10 83.64 261.62 95.85 245.25 108.25 C 228.88 120.65 210.86 123.55 190.78 130.78 C 170.69 138.00 180.51 174.51 204.00 171.00 Z"/>
</g>
<g fill="#F4F9F2" fill-opacity="0.91" stroke="None">
<path d="
M 80.00 20.00 
C 82.92 19.84 85.77 19.77 88.00 21.00
C 88.58 21.32 89.30 22.00 90.00 22.00
C 97.17 19.89 105.89 19.92 114.00 20.00
C 114.00 16.33 114.00 12.67 114.00 9.00
C 102.67 9.00 91.33 9.00 80.00 9.00
C 79.64 12.62 80.48 16.40 80.00 20.00 Z"/>
</g>
<g fill="#FEFEFE" fill-opacity="0.93" stroke="None">
<path d="
M 462.00 144.00 
C 459.78 137.17 458.15 125.67 462.00 120.00
C 462.75 118.32 464.43 116.96 466.00 116.00
C 470.44 125.50 476.88 134.47 482.69 143.31 C 488.51 152.14 479.46 149.80 479.00 157.00
C 494.67 157.00 510.33 157.00 526.00 157.00
C 523.49 150.19 514.40 145.18 510.30 137.70 C 506.21 130.21 500.84 123.68 496.75 116.25 C 492.67 108.81 486.23 102.95 483.00 95.00
C 488.35 89.11 493.89 84.43 498.77 77.77 C 503.65 71.11 516.71 71.42 518.00 64.00
C 504.33 64.00 490.67 64.00 477.00 64.00
C 476.22 68.36 494.44 72.48 485.92 79.92 C 477.40 87.36 471.87 104.06 461.00 109.00
C 460.19 111.04 459.72 101.05 460.00 96.00 C 460.28 90.95 459.83 82.75 460.00 77.00 C 460.17 71.25 459.84 64.05 460.00 58.00 C 460.16 51.95 459.73 45.17 460.00 39.00 C 460.27 32.83 459.44 26.18 460.00 20.00
C 447.00 20.00 434.00 20.00 421.00 20.00
C 421.00 21.33 421.00 22.67 421.00 24.00
C 439.39 24.84 432.46 48.61 433.00 63.00 C 433.54 77.39 433.46 99.59 433.00 114.00 C 432.54 128.41 439.09 150.00 422.00 153.00
C 424.16 140.36 425.25 127.46 428.00 115.00
C 419.42 113.12 419.76 127.20 413.75 132.75 C 407.75 138.31 404.50 145.66 395.01 147.01 C 385.52 148.36 373.90 150.67 363.22 148.78 C 352.54 146.88 354.95 133.35 355.00 124.00 C 355.05 114.65 354.96 100.76 355.00 91.00
C 364.39 89.67 372.03 93.75 377.23 100.77 C 382.43 107.79 379.35 120.99 388.00 122.00
C 388.00 98.33 388.00 74.67 388.00 51.00
C 379.25 52.89 382.52 65.37 377.75 72.75 C 372.98 80.13 364.26 83.95 355.00 82.00
C 355.00 64.00 355.00 46.00 355.00 28.00
C 364.61 28.31 377.66 27.55 386.93 28.07 C 396.20 28.59 400.02 34.25 406.08 39.92 C 412.14 45.58 409.26 58.81 418.00 59.00
C 418.00 45.67 418.00 32.33 418.00 19.00
C 408.57 19.12 399.46 18.84 390.00 19.00 C 380.54 19.16 372.70 18.69 363.00 19.00 C 353.30 19.31 345.25 18.36 335.00 19.00 C 324.75 19.64 319.61 17.53 308.00 19.00 C 296.40 20.47 306.37 24.36 314.92 26.08 C 323.48 27.80 320.76 39.59 321.00 47.00 C 321.24 54.41 320.99 66.94 321.00 75.00 C 321.01 83.06 321.25 94.00 321.00 102.00 C 320.75 110.00 321.64 122.80 321.00 130.00 C 320.36 137.20 324.34 149.82 315.07 151.07 C 305.81 152.33 296.89 155.73 309.00 157.00 C 321.11 158.27 325.55 156.45 336.00 157.00 C 346.45 157.55 354.24 156.74 364.00 157.00 C 373.76 157.26 381.58 156.89 391.00 157.00 C 400.42 157.11 409.74 156.94 419.00 157.00 C 428.26 157.06 436.87 156.97 446.00 157.00 C 455.13 157.03 463.90 156.98 473.00 157.00
C 471.60 149.39 462.83 153.14 462.00 144.00 Z"/>
</g>
<g fill="#FEFEFF" fill-opacity="0.27" stroke="None">
<path d="
M 421.00 20.00 
C 434.00 20.00 447.00 20.00 460.00 20.00
C 460.50 20.00 461.00 20.00 461.00 20.00
C 458.35 17.24 444.87 18.89 441.00 19.00 C 437.13 19.11 422.77 16.94 421.00 20.00 Z"/>
</g>
<g fill="#FEFEFE" fill-opacity="0.93" stroke="None">
<path d="
M 719.00 19.00 
C 709.19 19.16 698.75 18.79 689.00 19.00 C 679.25 19.21 668.52 18.60 659.00 19.00 C 649.48 19.40 637.96 18.15 629.00 19.00 C 620.04 19.85 606.39 14.90 605.00 24.00
C 616.71 21.72 624.89 28.41 624.00 40.00 C 623.11 51.59 624.31 62.38 624.00 74.00 C 623.69 85.62 623.92 96.17 624.00 108.00 C 624.08 119.83 623.50 129.61 623.98 141.98 C 624.46 154.34 606.50 148.51 605.00 157.00
C 629.33 157.00 653.67 157.00 678.00 157.00
C 678.14 147.32 662.11 155.67 658.93 147.07 C 655.74 138.47 657.31 129.28 657.00 120.00 C 656.69 110.72 657.23 101.29 657.00 92.00
C 672.69 89.23 687.04 100.72 688.02 115.98 C 689.01 131.23 696.28 116.77 694.00 109.00 C 691.72 101.23 695.19 90.36 694.00 82.00 C 692.81 73.64 694.89 63.52 694.00 55.00
C 685.00 56.07 688.85 69.49 681.75 75.75 C 674.65 82.01 666.60 84.32 657.00 84.00
C 657.00 65.33 657.00 46.67 657.00 28.00
C 666.55 28.16 678.68 27.77 687.98 28.02 C 697.27 28.27 702.51 32.78 708.25 38.75 C 713.98 44.73 710.85 56.75 719.00 58.00
C 719.00 45.00 719.00 32.00 719.00 19.00 Z"/>
</g>
<g fill="#6B7783" fill-opacity="0.95" stroke="None">
<path d="
M 78.00 27.00 
C 80.24 26.81 81.04 33.89 81.33 35.67 C 81.62 37.46 82.05 43.05 82.00 45.00
C 84.20 45.93 87.16 46.41 90.00 46.00
C 89.22 43.57 90.00 39.57 90.00 37.00
C 89.85 35.66 89.21 32.91 89.00 31.00
C 88.80 29.15 86.49 22.60 88.00 21.00
C 85.77 19.77 82.92 19.84 80.00 20.00
C 79.70 22.28 78.78 24.88 78.00 27.00 Z"/>
</g>
<g fill="#FEFEFE" fill-opacity="0.58" stroke="None">
<path d="
M 461.00 109.00 
C 462.94 104.09 461.39 97.91 462.00 92.00 C 462.61 86.09 461.68 78.99 462.00 73.00 C 462.32 67.01 461.53 61.45 461.00 56.00 C 460.47 50.55 462.13 41.88 461.00 37.00 C 459.87 32.12 463.60 22.48 461.00 20.00
C 461.00 20.00 460.50 20.00 460.00 20.00
C 459.44 26.18 460.27 32.83 460.00 39.00 C 459.73 45.17 460.16 51.95 460.00 58.00 C 459.84 64.05 460.17 71.25 460.00 77.00 C 459.83 82.75 460.28 90.95 460.00 96.00 C 459.72 101.05 460.19 111.04 461.00 109.00 Z"/>
</g>
<g fill="#9096A2" fill-opacity="0.53" stroke="None">
<path d="
M 89.00 31.00 
C 89.17 31.24 90.89 30.79 91.00 31.00
C 91.14 28.57 91.51 23.95 90.00 22.00
C 89.30 22.00 88.58 21.32 88.00 21.00
C 86.49 22.60 88.80 29.15 89.00 31.00 Z"/>
</g>
<g fill="#A0B3BC" fill-opacity="0.91" stroke="None">
<path d="
M 77.00 29.00 
C 74.32 34.35 77.21 36.85 79.00 41.00
C 79.65 42.50 79.99 43.28 80.00 45.00
C 80.29 45.25 81.58 44.82 82.00 45.00
C 82.05 43.05 81.62 37.46 81.33 35.67 C 81.04 33.89 80.24 26.81 78.00 27.00
C 77.78 27.59 77.48 28.54 77.00 29.00 Z"/>
</g>
<g fill="#9DA1AD" fill-opacity="0.12" stroke="None">
<path d="
M 109.00 37.00 
C 109.13 37.22 110.00 37.00 110.00 37.00
C 109.89 34.10 109.62 30.82 112.00 29.00
C 111.85 28.55 112.00 28.00 112.00 28.00
C 108.53 28.62 107.28 34.14 109.00 37.00 Z"/>
</g>
<g fill="#B1BCC5" fill-opacity="0.91" stroke="None">
<path d="
M 112.00 29.00 
C 112.60 30.79 113.07 38.99 110.00 37.00
C 110.00 37.00 109.13 37.22 109.00 37.00
C 109.83 41.63 117.33 41.72 121.00 42.00
C 122.82 41.97 126.13 41.82 128.00 42.00
C 138.53 42.00 149.81 40.54 160.00 41.00 C 170.19 41.46 183.36 38.75 193.00 41.00 C 202.64 43.25 217.19 37.47 208.25 29.75 C 199.30 22.04 187.34 30.10 177.00 28.00 C 166.66 25.90 154.49 28.48 144.00 28.00 C 133.51 27.52 122.42 27.06 112.00 28.00
C 112.00 28.00 111.85 28.55 112.00 29.00 Z"/>
</g>
<g fill="#DEEAF1" fill-opacity="0.68" stroke="None">
<path d="
M 79.00 41.00 
C 77.21 36.85 74.32 34.35 77.00 29.00
C 74.03 31.86 74.61 31.58 74.01 35.99 C 73.41 40.40 77.31 39.01 79.00 41.00 Z"/>
</g>
<g fill="#7C868D" fill-opacity="0.70" stroke="None">
<path d="
M 110.00 37.00 
C 113.07 38.99 112.60 30.79 112.00 29.00
C 109.62 30.82 109.89 34.10 110.00 37.00 Z"/>
</g>
<g fill="#607394" fill-opacity="0.44" stroke="None">
<path d="
M 90.00 37.00 
C 90.00 36.50 90.00 36.00 90.00 36.00
C 90.28 34.03 90.90 32.69 91.00 31.00
C 90.89 30.79 89.17 31.24 89.00 31.00
C 89.21 32.91 89.85 35.66 90.00 37.00 Z"/>
</g>
<g fill="#8898A0" fill-opacity="0.12" stroke="None">
<path d="
M 90.00 37.00 
C 90.00 39.57 89.22 43.57 90.00 46.00
C 90.35 45.95 90.95 45.35 91.00 45.00
C 91.34 42.62 91.64 37.58 90.00 36.00
C 90.00 36.00 90.00 36.50 90.00 37.00 Z"/>
</g>
<g fill="#C6D0D7" fill-opacity="0.48" stroke="None">
<path d="
M 121.00 42.00 
C 123.30 42.17 125.69 42.00 128.00 42.00
C 126.13 41.82 122.82 41.97 121.00 42.00 Z"/>
</g>
<g fill="#F5FBF5" fill-opacity="0.86" stroke="None">
<path d="
M 91.00 45.00 
C 90.95 45.35 90.35 45.95 90.00 46.00
C 87.16 46.41 84.20 45.93 82.00 45.00
C 81.58 44.82 80.29 45.25 80.00 45.00
C 78.01 48.56 79.42 53.02 79.00 57.00
C 90.67 57.00 102.33 57.00 114.00 57.00
C 114.00 53.00 114.00 49.00 114.00 45.00
C 106.21 46.28 97.81 44.71 91.00 45.00 Z"/>
</g>
<g fill="#FEFEFE" fill-opacity="0.94" stroke="None">
<path d="
M 568.00 61.00 
C 529.75 59.37 511.34 103.51 526.23 134.77 C 541.12 166.04 586.90 167.87 604.08 138.08 C 621.25 108.28 604.10 62.54 568.00 61.00
M 571.00 70.00 
C 580.94 73.14 578.81 88.97 580.00 98.00 C 581.19 107.03 578.95 124.78 579.22 134.22 C 579.49 143.66 571.55 156.33 560.98 151.02 C 550.40 145.72 552.79 134.11 551.07 123.93 C 549.35 113.74 551.78 98.09 552.00 88.00 C 552.22 77.91 558.95 66.19 571.00 70.00 Z"/>
</g>
<g fill="#FEFEFE" fill-opacity="0.94" stroke="None">
<path d="
M 763.00 61.00 
C 723.98 59.33 706.27 103.05 721.08 134.92 C 735.88 166.80 781.89 167.00 798.69 137.69 C 815.50 108.39 798.77 62.53 763.00 61.00
M 746.00 118.00 
C 745.97 117.90 742.41 110.11 744.00 106.00 C 745.59 101.89 745.40 102.10 746.00 99.00
C 746.00 89.37 743.88 73.03 757.03 70.03 C 770.17 67.02 773.53 83.24 774.00 94.00 C 774.47 104.76 774.07 121.32 774.00 132.00 C 773.94 142.69 765.37 157.40 754.32 150.68 C 743.28 143.95 746.00 128.41 746.00 118.00 Z"/>
</g>
<g fill="#FEFEFE" fill-opacity="0.93" stroke="None">
<path d="
M 838.00 144.00 
C 837.77 143.34 837.14 143.11 837.00 142.00
C 834.60 136.11 836.01 126.78 836.00 120.00 C 835.99 113.22 834.62 103.83 837.00 98.00
C 837.16 96.74 837.76 96.78 838.00 96.00
C 836.39 89.20 843.69 79.38 849.75 85.25 C 855.81 91.12 862.35 89.98 868.00 85.00
C 864.10 102.27 874.81 118.69 890.00 126.00
C 871.53 130.55 861.88 156.55 881.00 167.00
C 871.61 167.06 862.69 179.20 868.75 187.25 C 874.81 195.31 883.61 197.56 893.33 198.67 C 903.05 199.78 918.62 199.24 927.99 197.99 C 937.36 196.74 945.36 192.35 951.25 185.25 C 957.13 178.14 960.47 165.69 954.75 157.25 C 949.03 148.80 941.40 146.42 931.01 144.99 C 920.61 143.56 910.00 144.71 898.00 144.00 C 886.00 143.29 890.32 125.96 901.78 128.22 C 913.24 130.48 922.22 127.99 931.30 123.30 C 940.39 118.62 944.17 112.57 947.67 103.67 C 951.17 94.78 946.97 83.98 941.00 77.00
C 946.33 77.00 951.67 77.00 957.00 77.00
C 957.00 73.00 957.00 69.00 957.00 65.00
C 940.16 67.30 921.55 62.65 906.07 61.07 C 890.60 59.50 880.33 70.79 870.00 79.00
C 874.46 55.22 843.52 59.10 839.00 77.00
C 835.88 73.34 838.03 68.49 838.00 64.00
C 825.00 64.00 812.00 64.00 799.00 64.00
C 802.70 70.14 810.34 72.86 809.00 83.00 C 807.66 93.14 809.06 101.07 809.00 111.00 C 808.94 120.93 807.81 128.88 809.00 139.00 C 810.19 149.12 801.90 150.52 799.00 157.00
C 804.55 157.41 812.72 156.46 818.00 157.00 C 823.29 157.54 832.68 155.96 837.00 157.00 C 841.32 158.04 853.94 156.26 848.22 152.78 C 842.51 149.30 840.50 151.30 838.00 144.00
M 912.00 69.00 
C 923.37 71.96 919.85 90.14 921.00 99.00 C 922.15 107.86 917.32 124.55 905.93 121.07 C 894.54 117.59 896.17 101.17 896.00 92.00 C 895.83 82.83 899.39 65.72 912.00 69.00
M 929.00 170.00 
C 941.30 172.00 943.03 183.61 931.92 188.92 C 920.81 194.23 908.25 190.76 897.00 191.00 C 885.74 191.24 879.60 172.68 891.03 171.03 C 902.45 169.37 917.28 168.10 929.00 170.00 Z"/>
</g>
<g fill="#FEFEFE" fill-opacity="0.93" stroke="None">
<path d="
M 1032.00 108.00 
C 1032.61 96.11 1029.64 83.76 1022.25 74.75 C 1014.86 65.74 1004.52 60.48 993.07 61.07 C 981.62 61.66 972.75 67.90 965.25 76.25 C 957.75 84.60 954.26 94.77 952.99 105.99 C 951.73 117.21 953.49 130.87 959.25 140.75 C 965.01 150.64 973.62 156.19 983.98 159.02 C 994.34 161.86 1010.55 158.69 1017.75 151.75 C 1024.96 144.82 1035.98 133.61 1027.00 129.00
C 1022.78 141.23 1007.17 147.76 996.08 140.92 C 984.99 134.08 980.92 120.40 980.00 108.00
C 997.33 108.00 1014.67 108.00 1032.00 108.00
M 1007.00 100.00 
C 998.00 100.00 989.00 100.00 980.00 100.00
C 981.24 90.59 979.25 70.92 993.03 69.03 C 1006.80 67.13 1007.47 90.66 1007.00 100.00 Z"/>
</g>
<g fill="#FBFCFB" fill-opacity="0.51" stroke="None">
<path d="
M 8.00 70.00 
C 27.50 67.68 48.08 69.66 68.00 69.00
C 68.67 71.04 66.29 78.04 70.00 76.00
C 69.78 65.24 61.47 68.15 53.67 67.33 C 45.87 66.51 35.33 66.63 29.00 67.00 C 22.67 67.37 8.79 64.24 8.00 70.00 Z"/>
</g>
<g fill="#F8FBF1" fill-opacity="0.90" stroke="None">
<path d="
M 79.00 103.00 
C 79.51 108.23 79.19 114.92 79.00 120.00
C 79.00 122.00 79.00 124.00 79.00 126.00
C 93.06 125.77 110.10 135.95 106.93 151.93 C 103.75 167.90 87.93 170.92 75.00 171.00
C 77.66 178.50 74.28 187.52 77.00 195.00
C 98.24 190.95 122.14 196.98 143.00 194.00
C 164.33 190.95 187.90 194.20 210.00 193.00
C 210.00 186.00 210.00 179.00 210.00 172.00
C 208.12 171.53 205.07 173.06 204.00 171.00
C 180.51 174.51 170.69 138.00 190.78 130.78 C 210.86 123.55 228.88 120.65 245.25 108.25 C 261.62 95.85 270.10 83.64 280.00 67.00
C 212.76 66.07 146.42 70.03 80.00 67.00
C 79.34 78.23 79.00 90.81 79.00 103.00
M 256.00 80.00 
C 257.47 79.97 258.17 77.18 260.00 78.00
C 260.05 80.22 257.71 81.99 256.00 83.00
C 241.64 95.27 227.97 111.79 207.00 112.00
C 209.11 102.14 207.49 89.85 208.00 79.00
C 223.54 79.01 240.70 78.04 256.00 80.00
M 196.00 91.00 
C 196.27 93.85 197.00 96.82 197.00 100.00
C 197.00 100.50 197.00 101.00 197.00 101.00
C 198.35 102.83 198.80 107.26 197.00 109.00
C 196.25 115.23 197.91 115.24 192.00 117.00
C 190.11 117.57 188.53 118.05 187.00 119.00
C 184.46 120.58 181.52 123.01 179.00 125.00
C 174.85 128.84 171.24 134.35 169.00 139.00
C 168.65 139.73 167.01 143.66 167.00 144.00
C 166.99 144.38 168.92 144.68 168.99 147.01 C 169.06 149.35 167.84 152.14 168.00 154.00
C 168.29 157.33 171.60 164.13 174.00 167.00
C 175.50 168.79 177.66 171.50 179.00 173.00
C 183.42 176.18 187.64 179.79 193.00 181.00
C 179.16 185.14 162.51 182.35 147.00 183.00 C 131.49 183.65 114.64 182.51 99.00 183.00
C 95.73 183.32 90.98 184.84 87.00 184.00
C 86.94 183.20 86.75 178.97 88.00 181.00
C 95.69 177.56 107.81 177.33 113.00 167.00
C 112.99 165.39 113.34 166.01 114.00 165.00
C 116.20 161.64 117.59 156.95 118.00 153.00
C 118.01 150.93 118.07 144.94 118.00 143.00
C 116.23 129.71 103.90 118.94 91.00 117.00
C 91.00 111.67 91.00 106.33 91.00 101.00
C 90.66 97.38 90.66 94.61 91.00 91.00
C 91.37 87.03 90.72 82.97 91.00 79.00
C 126.33 79.00 161.67 79.00 197.00 79.00
C 194.98 82.54 196.45 87.05 196.00 91.00 Z"/>
</g>
<g fill="#F7FAF0" fill-opacity="0.91" stroke="None">
<path d="
M 8.00 70.00 
C 13.47 78.03 16.11 88.22 22.23 95.77 C 28.35 103.32 34.71 110.33 43.77 114.23 C 52.83 118.13 59.49 126.22 69.00 126.00
C 70.48 109.78 70.33 92.61 70.00 76.00
C 66.29 78.04 68.67 71.04 68.00 69.00
C 48.08 69.66 27.50 67.68 8.00 70.00
M 59.00 86.00 
C 59.15 93.30 59.58 101.09 58.00 108.00
C 44.50 103.02 33.30 91.32 26.00 79.00
C 30.67 79.00 35.33 79.00 40.00 79.00
C 45.75 77.83 53.59 76.27 60.00 77.00
C 59.41 79.84 61.22 83.98 59.00 86.00 Z"/>
</g>
<g fill="#000000" fill-opacity="0.00" stroke="None">
<path d="
M 912.00 69.00 
C 899.39 65.72 895.83 82.83 896.00 92.00 C 896.17 101.17 894.54 117.59 905.93 121.07 C 917.32 124.55 922.15 107.86 921.00 99.00 C 919.85 90.14 923.37 71.96 912.00 69.00 Z"/>
</g>
<g fill="#000000" fill-opacity="0.00" stroke="None">
<path d="
M 1007.00 100.00 
C 1007.47 90.66 1006.80 67.13 993.03 69.03 C 979.25 70.92 981.24 90.59 980.00 100.00
C 989.00 100.00 998.00 100.00 1007.00 100.00 Z"/>
</g>
<g fill="#000000" fill-opacity="0.00" stroke="None">
<path d="
M 571.00 70.00 
C 558.95 66.19 552.22 77.91 552.00 88.00 C 551.78 98.09 549.35 113.74 551.07 123.93 C 552.79 134.11 550.40 145.72 560.98 151.02 C 571.55 156.33 579.49 143.66 579.22 134.22 C 578.95 124.78 581.19 107.03 580.00 98.00 C 578.81 88.97 580.94 73.14 571.00 70.00 Z"/>
</g>
<g fill="#000000" fill-opacity="0.00" stroke="None">
<path d="
M 746.00 99.00 
C 746.00 105.33 746.00 111.67 746.00 118.00
C 746.00 128.41 743.28 143.95 754.32 150.68 C 765.37 157.40 773.94 142.69 774.00 132.00 C 774.07 121.32 774.47 104.76 774.00 94.00 C 773.53 83.24 770.17 67.02 757.03 70.03 C 743.88 73.03 746.00 89.37 746.00 99.00 Z"/>
</g>
<g fill="#F9FBF9" fill-opacity="0.49" stroke="None">
<path d="
M 40.00 79.00 
C 46.33 79.00 52.67 79.00 59.00 79.00
C 59.00 81.33 59.00 83.67 59.00 86.00
C 61.22 83.98 59.41 79.84 60.00 77.00
C 53.59 76.27 45.75 77.83 40.00 79.00 Z"/>
</g>
<g fill="#000000" fill-opacity="0.00" stroke="None">
<path d="
M 256.00 83.00 
C 256.37 82.16 255.64 80.84 256.00 80.00
C 240.70 78.04 223.54 79.01 208.00 79.00
C 207.49 89.85 209.11 102.14 207.00 112.00
C 227.97 111.79 241.64 95.27 256.00 83.00 Z"/>
</g>
<g fill="#DBDDDD" fill-opacity="0.39" stroke="None">
<path d="
M 256.00 80.00 
C 255.64 80.84 256.37 82.16 256.00 83.00
C 257.71 81.99 260.05 80.22 260.00 78.00
C 258.17 77.18 257.47 79.97 256.00 80.00 Z"/>
</g>
<g fill="#000000" fill-opacity="0.00" stroke="None">
<path d="
M 59.00 86.00 
C 59.00 83.67 59.00 81.33 59.00 79.00
C 52.67 79.00 46.33 79.00 40.00 79.00
C 35.33 79.00 30.67 79.00 26.00 79.00
C 33.30 91.32 44.50 103.02 58.00 108.00
C 59.58 101.09 59.15 93.30 59.00 86.00 Z"/>
</g>
<g fill="#000000" fill-opacity="0.00" stroke="None">
<path d="
M 91.00 91.00 
C 95.45 87.85 105.32 92.42 111.00 91.00 C 116.68 89.58 124.76 91.63 131.00 91.00 C 137.24 90.37 144.48 91.27 151.00 91.00 C 157.52 90.73 164.29 91.10 171.00 91.00 C 177.71 90.90 185.22 91.00 192.00 91.00
C 192.95 91.00 195.17 90.58 196.00 91.00
C 196.45 87.05 194.98 82.54 197.00 79.00
C 161.67 79.00 126.33 79.00 91.00 79.00
C 90.72 82.97 91.37 87.03 91.00 91.00 Z"/>
</g>
<g fill="#939FAE" fill-opacity="0.89" stroke="None">
<path d="
M 91.00 101.00 
C 95.22 103.98 104.62 99.65 110.00 101.00 C 115.38 102.35 123.10 100.40 129.00 101.00 C 134.90 101.60 141.87 100.74 148.00 101.00 C 154.13 101.26 160.77 100.90 167.00 101.00 C 173.23 101.10 179.75 101.00 186.00 101.00
C 188.10 100.80 191.23 100.00 194.00 100.00
C 196.75 98.02 194.58 91.95 192.00 91.00
C 185.22 91.00 177.71 90.90 171.00 91.00 C 164.29 91.10 157.52 90.73 151.00 91.00 C 144.48 91.27 137.24 90.37 131.00 91.00 C 124.76 91.63 116.68 89.58 111.00 91.00 C 105.32 92.42 95.45 87.85 91.00 91.00
C 90.66 94.61 90.66 97.38 91.00 101.00 Z"/>
</g>
<g fill="#C1CCD2" fill-opacity="0.65" stroke="None">
<path d="
M 194.00 100.00 
C 194.39 100.00 196.76 99.74 197.00 100.00
C 197.00 96.82 196.27 93.85 196.00 91.00
C 195.17 90.58 192.95 91.00 192.00 91.00
C 194.58 91.95 196.75 98.02 194.00 100.00 Z"/>
</g>
<g fill="#FFFFFF" fill-opacity="0.03" stroke="None">
<path d="
M 837.00 98.00 
C 836.46 102.35 836.68 107.62 837.00 112.00
C 837.12 107.69 837.66 101.05 838.00 96.00
C 837.76 96.78 837.16 96.74 837.00 98.00 Z"/>
</g>
<g fill="#FFFFFF" fill-opacity="0.78" stroke="None">
<path d="
M 837.00 142.00 
C 836.12 134.85 836.47 126.19 837.00 119.00
C 837.19 116.41 837.19 114.59 837.00 112.00
C 836.68 107.62 836.46 102.35 837.00 98.00
C 834.62 103.83 835.99 113.22 836.00 120.00 C 836.01 126.78 834.60 136.11 837.00 142.00 Z"/>
</g>
<g fill="#FEFEFF" fill-opacity="0.45" stroke="None">
<path d="
M 746.00 118.00 
C 746.00 111.67 746.00 105.33 746.00 99.00
C 745.40 102.10 745.59 101.89 744.00 106.00 C 742.41 110.11 745.97 117.90 746.00 118.00 Z"/>
</g>
<g fill="#A8B2BE" fill-opacity="0.43" stroke="None">
<path d="
M 186.00 101.00 
C 189.62 101.00 193.40 101.33 197.00 101.00
C 197.00 101.00 197.00 100.50 197.00 100.00
C 196.76 99.74 194.39 100.00 194.00 100.00
C 191.23 100.00 188.10 100.80 186.00 101.00 Z"/>
</g>
<g fill="#000000" fill-opacity="0.00" stroke="None">
<path d="
M 118.00 143.00 
C 118.40 146.03 118.31 149.96 118.00 153.00
C 117.59 156.95 116.20 161.64 114.00 165.00
C 113.61 165.24 115.40 165.49 116.00 165.00
C 121.35 160.58 129.83 162.04 138.00 162.00 C 146.17 161.96 154.79 162.00 163.00 162.00
C 164.53 162.00 166.51 161.67 168.00 162.00
C 169.60 162.36 173.73 166.79 174.00 167.00
C 171.60 164.13 168.29 157.33 168.00 154.00
C 162.57 151.10 153.34 155.17 147.00 154.00 C 140.66 152.83 131.62 154.40 125.00 154.00
C 123.01 153.88 120.99 154.09 119.00 154.00
C 119.00 150.67 119.00 147.33 119.00 144.00
C 124.85 142.91 130.80 145.80 136.00 144.00
C 143.61 143.57 151.37 144.00 159.00 144.00
C 160.86 144.00 165.41 144.86 167.00 144.00
C 167.01 143.66 168.65 139.73 169.00 139.00
C 169.40 136.46 168.04 136.66 168.00 136.00
C 160.61 133.36 150.84 137.38 143.00 136.00 C 135.16 134.62 125.96 137.03 118.00 136.00
C 118.00 133.00 118.00 130.00 118.00 127.00
C 135.58 127.66 153.86 125.68 171.00 128.00
C 175.19 128.48 175.63 127.66 179.00 125.00
C 181.52 123.01 184.46 120.58 187.00 119.00
C 184.25 119.90 183.16 119.19 181.00 119.00
C 179.36 119.15 177.64 119.00 176.00 119.00
C 174.00 119.00 172.00 119.00 170.00 119.00
C 152.33 119.00 134.67 119.00 117.00 119.00
C 113.67 119.00 110.33 119.00 107.00 119.00
C 106.02 119.00 104.98 119.08 104.00 119.00
C 99.68 118.64 100.06 113.28 98.00 110.00
C 99.00 110.00 100.00 110.00 101.00 110.00
C 101.50 109.98 102.55 110.15 103.00 110.00
C 105.45 109.15 107.30 109.10 110.00 109.00
C 114.65 108.82 119.35 109.00 124.00 109.00
C 134.67 109.00 145.33 109.00 156.00 109.00
C 162.67 109.00 169.33 109.00 176.00 109.00
C 179.00 109.00 182.00 109.00 185.00 109.00
C 187.33 109.00 189.67 109.00 192.00 109.00
C 193.33 109.00 194.67 109.00 196.00 109.00
C 196.69 106.46 197.36 103.84 197.00 101.00
C 193.40 101.33 189.62 101.00 186.00 101.00
C 179.75 101.00 173.23 101.10 167.00 101.00 C 160.77 100.90 154.13 101.26 148.00 101.00 C 141.87 100.74 134.90 101.60 129.00 101.00 C 123.10 100.40 115.38 102.35 110.00 101.00 C 104.62 99.65 95.22 103.98 91.00 101.00
C 91.00 106.33 91.00 111.67 91.00 117.00
C 103.90 118.94 116.23 129.71 118.00 143.00 Z"/>
</g>
<g fill="#EDF2F0" fill-opacity="0.61" stroke="None">
<path d="
M 196.00 109.00 
C 196.50 109.00 197.00 109.00 197.00 109.00
C 198.80 107.26 198.35 102.83 197.00 101.00
C 197.36 103.84 196.69 106.46 196.00 109.00 Z"/>
</g>
<g fill="#FEFDFF" fill-opacity="0.51" stroke="None">
<path d="
M 79.00 120.00 
C 79.19 114.92 79.51 108.23 79.00 103.00
C 79.00 108.63 78.66 114.38 79.00 120.00 Z"/>
</g>
<g fill="#8996A0" fill-opacity="0.65" stroke="None">
<path d="
M 103.00 110.00 
C 103.07 113.19 102.39 117.60 107.00 119.00
C 110.33 119.00 113.67 119.00 117.00 119.00
C 116.96 119.00 117.00 118.00 117.00 118.00
C 111.66 118.00 105.18 118.72 107.00 111.00
C 108.28 110.72 110.50 111.76 111.00 110.00
C 110.65 109.95 110.24 109.07 110.00 109.00
C 107.30 109.10 105.45 109.15 103.00 110.00 Z"/>
</g>
<g fill="#A4ADBC" fill-opacity="0.35" stroke="None">
<path d="
M 111.00 110.00 
C 115.14 110.60 119.81 110.00 124.00 110.00
C 123.96 110.00 124.00 109.00 124.00 109.00
C 119.35 109.00 114.65 108.82 110.00 109.00
C 110.24 109.07 110.65 109.95 111.00 110.00 Z"/>
</g>
<g fill="#A5AFBD" fill-opacity="0.54" stroke="None">
<path d="
M 124.00 110.00 
C 134.67 110.00 145.33 110.00 156.00 110.00
C 155.96 110.00 156.00 109.00 156.00 109.00
C 145.33 109.00 134.67 109.00 124.00 109.00
C 124.00 109.00 123.96 110.00 124.00 110.00 Z"/>
</g>
<g fill="#A3ACBB" fill-opacity="0.27" stroke="None">
<path d="
M 156.00 110.00 
C 162.58 110.00 169.46 110.59 176.00 110.00
C 175.96 110.00 176.00 109.00 176.00 109.00
C 169.33 109.00 162.67 109.00 156.00 109.00
C 156.00 109.00 155.96 110.00 156.00 110.00 Z"/>
</g>
<g fill="#919AAA" fill-opacity="0.11" stroke="None">
<path d="
M 176.00 110.00 
C 179.19 110.29 182.60 109.23 185.00 109.00
C 182.00 109.00 179.00 109.00 176.00 109.00
C 176.00 109.00 175.96 110.00 176.00 110.00 Z"/>
</g>
<g fill="#909DA7" fill-opacity="0.53" stroke="None">
<path d="
M 176.00 110.00 
C 177.47 110.17 179.89 110.95 182.00 111.00
C 183.93 111.05 187.21 110.32 189.00 111.00
C 194.69 113.18 184.04 118.73 181.00 119.00
C 183.16 119.19 184.25 119.90 187.00 119.00
C 188.53 118.05 190.11 117.57 192.00 117.00
C 194.07 115.20 194.61 110.12 192.00 109.00
C 189.67 109.00 187.33 109.00 185.00 109.00
C 182.60 109.23 179.19 110.29 176.00 110.00 Z"/>
</g>
<g fill="#BECBCB" fill-opacity="0.21" stroke="None">
<path d="
M 192.00 117.00 
C 197.91 115.24 196.25 115.23 197.00 109.00
C 197.00 109.00 196.50 109.00 196.00 109.00
C 194.67 109.00 193.33 109.00 192.00 109.00
C 194.61 110.12 194.07 115.20 192.00 117.00 Z"/>
</g>
<g fill="#B0B9C0" fill-opacity="0.10" stroke="None">
<path d="
M 104.00 119.00 
C 101.87 118.17 98.87 111.62 101.00 110.00
C 100.00 110.00 99.00 110.00 98.00 110.00
C 100.06 113.28 99.68 118.64 104.00 119.00 Z"/>
</g>
<g fill="#99A6AD" fill-opacity="0.36" stroke="None">
<path d="
M 104.00 119.00 
C 104.98 119.08 106.02 119.00 107.00 119.00
C 102.39 117.60 103.07 113.19 103.00 110.00
C 102.55 110.15 101.50 109.98 101.00 110.00
C 98.87 111.62 101.87 118.17 104.00 119.00 Z"/>
</g>
<g fill="#929FAE" fill-opacity="0.97" stroke="None">
<path d="
M 117.00 118.00 
C 134.54 118.00 153.28 117.38 170.00 119.00
C 172.00 119.00 174.00 119.00 176.00 119.00
C 177.45 118.81 180.22 117.55 182.00 117.00
C 183.30 115.91 180.63 113.24 182.00 111.00
C 179.89 110.95 177.47 110.17 176.00 110.00
C 169.46 110.59 162.58 110.00 156.00 110.00
C 145.33 110.00 134.67 110.00 124.00 110.00
C 119.81 110.00 115.14 110.60 111.00 110.00
C 110.50 111.76 108.28 110.72 107.00 111.00
C 105.18 118.72 111.66 118.00 117.00 118.00 Z"/>
</g>
<g fill="#6F7C8B" fill-opacity="0.97" stroke="None">
<path d="
M 182.00 117.00 
C 184.81 116.12 189.77 115.11 189.00 111.00
C 187.21 110.32 183.93 111.05 182.00 111.00
C 180.63 113.24 183.30 115.91 182.00 117.00 Z"/>
</g>
<g fill="#808D9C" fill-opacity="0.78" stroke="None">
<path d="
M 182.00 117.00 
C 180.22 117.55 177.45 118.81 176.00 119.00
C 177.64 119.00 179.36 119.15 181.00 119.00
C 184.04 118.73 194.69 113.18 189.00 111.00
C 189.77 115.11 184.81 116.12 182.00 117.00 Z"/>
</g>
<g fill="#A6B2BF" fill-opacity="0.24" stroke="None">
<path d="
M 117.00 119.00 
C 134.67 119.00 152.33 119.00 170.00 119.00
C 153.28 117.38 134.54 118.00 117.00 118.00
C 117.00 118.00 116.96 119.00 117.00 119.00 Z"/>
</g>
<g fill="#FFFFFF" fill-opacity="0.02" stroke="None">
<path d="
M 837.00 142.00 
C 837.14 143.11 837.77 143.34 838.00 144.00
C 837.04 136.25 837.20 126.17 837.00 119.00
C 836.47 126.19 836.12 134.85 837.00 142.00 Z"/>
</g>
<g fill="#FEFEFE" fill-opacity="0.50" stroke="None">
<path d="
M 462.00 144.00 
C 461.40 137.39 459.44 125.87 462.00 120.00
C 458.15 125.67 459.78 137.17 462.00 144.00 Z"/>
</g>
<g fill="#CAD7DF" fill-opacity="0.14" stroke="None">
<path d="
M 171.00 128.00 
C 170.68 130.59 167.82 133.25 168.00 136.00
C 168.04 136.66 169.40 136.46 169.00 139.00
C 171.24 134.35 174.85 128.84 179.00 125.00
C 175.63 127.66 175.19 128.48 171.00 128.00 Z"/>
</g>
<g fill="#A6B2C1" fill-opacity="0.65" stroke="None">
<path d="
M 168.00 136.00 
C 167.82 133.25 170.68 130.59 171.00 128.00
C 153.86 125.68 135.58 127.66 118.00 127.00
C 118.00 130.00 118.00 133.00 118.00 136.00
C 125.96 137.03 135.16 134.62 143.00 136.00 C 150.84 137.38 160.61 133.36 168.00 136.00
M 168.00 129.00 
C 167.71 133.71 163.23 132.07 160.00 133.00
C 163.07 136.64 153.44 134.50 149.00 135.00 C 144.56 135.50 136.92 134.48 132.00 135.00 C 127.08 135.52 119.87 135.34 122.00 128.00
C 137.38 128.17 152.98 127.38 168.00 129.00 Z"/>
</g>
<g fill="#91A1B1" fill-opacity="0.96" stroke="None">
<path d="
M 168.00 129.00 
C 152.98 127.38 137.38 128.17 122.00 128.00
C 119.87 135.34 127.08 135.52 132.00 135.00 C 136.92 134.48 144.56 135.50 149.00 135.00 C 153.44 134.50 163.07 136.64 160.00 133.00
C 163.23 132.07 167.71 133.71 168.00 129.00 Z"/>
</g>
<g fill="#E6EEF3" fill-opacity="0.70" stroke="None">
<path d="
M 118.00 153.00 
C 118.31 149.96 118.40 146.03 118.00 143.00
C 118.07 144.94 118.01 150.93 118.00 153.00 Z"/>
</g>
<g fill="#B3CAD8" fill-opacity="0.55" stroke="None">
<path d="
M 125.00 154.00 
C 123.18 152.28 125.42 151.74 127.00 152.00
C 119.82 146.11 129.22 145.74 135.00 146.00 C 140.78 146.26 149.87 146.63 155.00 145.00
C 148.66 145.37 141.53 144.28 136.00 144.00
C 130.80 145.80 124.85 142.91 119.00 144.00
C 119.00 147.33 119.00 150.67 119.00 154.00
C 120.99 154.09 123.01 153.88 125.00 154.00 Z"/>
</g>
<g fill="#B8CAD6" fill-opacity="0.07" stroke="None">
<path d="
M 155.00 145.00 
C 156.59 144.91 158.03 144.17 159.00 144.00
C 151.37 144.00 143.61 143.57 136.00 144.00
C 141.53 144.28 148.66 145.37 155.00 145.00 Z"/>
</g>
<g fill="#A7BDC9" fill-opacity="0.73" stroke="None">
<path d="
M 155.00 145.00 
C 149.87 146.63 140.78 146.26 135.00 146.00 C 129.22 145.74 119.82 146.11 127.00 152.00
C 125.42 151.74 123.18 152.28 125.00 154.00
C 131.62 154.40 140.66 152.83 147.00 154.00 C 153.34 155.17 162.57 151.10 168.00 154.00
C 167.84 152.14 169.06 149.35 168.99 147.01 C 168.92 144.68 166.99 144.38 167.00 144.00
C 165.41 144.86 160.86 144.00 159.00 144.00
C 158.03 144.17 156.59 144.91 155.00 145.00 Z"/>
</g>
<g fill="#C2CEDD" fill-opacity="0.25" stroke="None">
<path d="
M 116.00 165.00 
C 116.10 165.10 115.38 171.21 114.00 171.00
C 118.54 174.95 127.90 170.92 134.00 172.00 C 140.10 173.08 149.48 171.49 156.00 172.00 C 162.52 172.51 170.11 172.41 176.00 170.00
C 176.67 171.20 177.64 172.58 179.00 173.00
C 177.66 171.50 175.50 168.79 174.00 167.00
C 173.73 166.79 169.60 162.36 168.00 162.00
C 169.47 164.86 169.29 168.20 171.00 171.00
C 153.00 171.00 135.00 171.00 117.00 171.00
C 117.75 160.14 127.66 163.44 136.00 163.00 C 144.34 162.56 155.36 164.16 163.00 162.00
C 154.79 162.00 146.17 161.96 138.00 162.00 C 129.83 162.04 121.35 160.58 116.00 165.00 Z"/>
</g>
<g fill="#A7B9C8" fill-opacity="0.79" stroke="None">
<path d="
M 168.00 162.00 
C 166.51 161.67 164.53 162.00 163.00 162.00
C 155.36 164.16 144.34 162.56 136.00 163.00 C 127.66 163.44 117.75 160.14 117.00 171.00
C 135.00 171.00 153.00 171.00 171.00 171.00
C 169.29 168.20 169.47 164.86 168.00 162.00 Z"/>
</g>
<g fill="#B8C7CB" fill-opacity="0.05" stroke="None">
<path d="
M 113.00 167.00 
C 113.00 167.44 113.72 170.76 114.00 171.00
C 115.38 171.21 116.10 165.10 116.00 165.00
C 115.40 165.49 113.61 165.24 114.00 165.00
C 113.34 166.01 112.99 165.39 113.00 167.00 Z"/>
</g>
<g fill="#000000" fill-opacity="0.00" stroke="None">
<path d="
M 88.00 181.00 
C 88.93 184.40 95.70 183.00 99.00 183.00
C 114.64 182.51 131.49 183.65 147.00 183.00 C 162.51 182.35 179.16 185.14 193.00 181.00
C 187.64 179.79 183.42 176.18 179.00 173.00
C 177.64 172.58 176.67 171.20 176.00 170.00
C 170.11 172.41 162.52 172.51 156.00 172.00 C 149.48 171.49 140.10 173.08 134.00 172.00 C 127.90 170.92 118.54 174.95 114.00 171.00
C 113.72 170.76 113.00 167.44 113.00 167.00
C 107.81 177.33 95.69 177.56 88.00 181.00 Z"/>
</g>
<g fill="#000000" fill-opacity="0.00" stroke="None">
<path d="
M 929.00 170.00 
C 917.28 168.10 902.45 169.37 891.03 171.03 C 879.60 172.68 885.74 191.24 897.00 191.00 C 908.25 190.76 920.81 194.23 931.92 188.92 C 943.03 183.61 941.30 172.00 929.00 170.00 Z"/>
</g>
<g fill="#FDFEFE" fill-opacity="0.51" stroke="None">
<path d="
M 143.00 194.00 
C 153.11 195.74 160.20 194.14 171.00 195.00 C 181.80 195.86 191.26 193.75 203.00 195.00 C 214.74 196.25 210.56 179.98 211.00 171.00
C 208.69 170.81 206.30 171.26 204.00 171.00
C 205.07 173.06 208.12 171.53 210.00 172.00
C 210.00 179.00 210.00 186.00 210.00 193.00
C 187.90 194.20 164.33 190.95 143.00 194.00 Z"/>
</g>
<g fill="#FBFCFB" fill-opacity="0.45" stroke="None">
<path d="
M 99.00 183.00 
C 95.70 183.00 88.93 184.40 88.00 181.00
C 86.75 178.97 86.94 183.20 87.00 184.00
C 90.98 184.84 95.73 183.32 99.00 183.00 Z"/>
</g>
</svg>